<svg width="20" height="22" viewBox="0 0 20 22" fill="none" xmlns="http://www.w3.org/2000/svg">
<path d="M19.0098 17.1449C18.6771 17.9135 18.2833 18.6211 17.827 19.2715C17.2051 20.1583 16.6958 20.7721 16.3034 21.113C15.695 21.6724 15.0432 21.959 14.3451 21.9753C13.8441 21.9753 13.2398 21.8327 12.5363 21.5434C11.8306 21.2555 11.182 21.113 10.589 21.113C9.96702 21.113 9.29998 21.2555 8.5865 21.5434C7.87192 21.8327 7.29628 21.9834 6.85615 21.9984C6.18681 22.0269 5.51963 21.7322 4.85368 21.113C4.42863 20.7422 3.89698 20.1067 3.26009 19.2063C2.57675 18.2449 2.01495 17.13 1.57483 15.8589C1.10348 14.486 0.867188 13.1565 0.867188 11.8694C0.867188 10.3951 1.18577 9.12345 1.82389 8.05784C2.32539 7.20191 2.99256 6.52672 3.82759 6.03105C4.66261 5.53539 5.56485 5.2828 6.53649 5.26664C7.06814 5.26664 7.76532 5.43109 8.63172 5.75429C9.49566 6.07858 10.0504 6.24303 10.2936 6.24303C10.4754 6.24303 11.0917 6.05074 12.1364 5.66738C13.1243 5.31186 13.9581 5.16466 14.6412 5.22264C16.4921 5.37202 17.8827 6.10167 18.8075 7.41619C17.1521 8.4192 16.3332 9.82403 16.3495 11.6262C16.3645 13.03 16.8737 14.1981 17.8745 15.1256C18.3281 15.5561 18.8346 15.8888 19.3982 16.1251C19.276 16.4795 19.147 16.819 19.0098 17.1449ZM14.7648 0.440369C14.7648 1.54062 14.3628 2.56792 13.5616 3.51878C12.5947 4.64917 11.4252 5.30236 10.157 5.19929C10.1408 5.06729 10.1315 4.92837 10.1315 4.78239C10.1315 3.72615 10.5913 2.59576 11.4078 1.67152C11.8155 1.20356 12.334 0.814453 12.9627 0.504058C13.5901 0.198295 14.1835 0.0292007 14.7417 0.000244141C14.758 0.147331 14.7648 0.294426 14.7648 0.440355V0.440369Z" fill="black"/>
</svg>
