<svg width="125" height="125" viewBox="0 0 125 125" fill="none" xmlns="http://www.w3.org/2000/svg">
<g clip-path="url(#clip0_1417_7872)">
<g opacity="0.05">
<rect width="125" height="125" rx="62.5" fill="#20C375"/>
</g>
<g opacity="0.1">
<rect x="12" y="12" width="101" height="101" rx="50.5" fill="#20C375"/>
</g>
<path d="M87.9995 63C87.9995 76.8071 76.8066 88 62.9995 88C49.1924 88 37.9995 76.8071 37.9995 63C37.9995 49.1929 49.1924 38 62.9995 38C76.8066 38 87.9995 49.1929 87.9995 63Z" fill="#20C375"/>
<path d="M73.0763 55.4242C73.8085 56.1564 73.8085 57.3436 73.0763 58.0758L60.5763 70.5758C59.8441 71.3081 58.6569 71.3081 57.9247 70.5758L52.9247 65.5758C52.1924 64.8436 52.1924 63.6564 52.9247 62.9242C53.6569 62.1919 54.8441 62.1919 55.5763 62.9242L59.2505 66.5983L64.8376 61.0113L70.4247 55.4242C71.1569 54.6919 72.3441 54.6919 73.0763 55.4242Z" fill="white"/>
</g>
<defs>
<clipPath id="clip0_1417_7872">
<rect width="125" height="125" fill="white"/>
</clipPath>
</defs>
</svg>
