<svg width="125" height="125" viewBox="0 0 125 125" fill="none" xmlns="http://www.w3.org/2000/svg">
<path d="M115.042 13.3094L74.4142 42.6812L67.7476 47.512C64.2159 50.1212 59.3952 50.1212 55.8635 47.512L49.1969 42.6812L8.52051 13.3576C10.783 10.1937 14.4376 8.32116 18.3273 8.33339H105.284C109.145 8.33679 112.772 10.1862 115.042 13.3094Z" fill="#FFD54F"/>
<path d="M8.52071 13.3583L49.1971 42.6819L9.77682 82.1021C7.51324 79.8329 6.24444 76.7568 6.25011 73.5514V20.4115C6.23946 17.8789 7.03452 15.4088 8.52071 13.3583Z" fill="#FFC107"/>
<path d="M117.361 20.4109V73.5511C117.366 76.7564 116.098 79.8325 113.834 82.1018L74.4141 42.6815L115.042 13.3095C116.55 15.3697 117.362 17.8573 117.361 20.4109Z" fill="#FFC107"/>
<path d="M78.7136 95.2899C75.5059 95.2899 73.8827 92.8743 73.8827 88.0435C73.9618 81.2937 68.5542 75.7582 61.8044 75.6791C55.0546 75.6001 49.5191 81.0077 49.44 87.7575C49.361 94.5073 54.7686 100.043 61.5184 100.122C65.1359 100.164 68.5863 98.6017 70.9407 95.8551C72.5446 98.6037 75.5335 100.244 78.7136 100.121C88.3755 100.121 88.3755 91.029 88.3755 88.0435C88.3757 73.3694 76.4801 61.4733 61.806 61.4729C47.1319 61.4724 35.2358 73.3682 35.2354 88.0426C35.2351 102.717 47.1307 114.613 61.8048 114.613C68.6991 114.613 75.3236 111.934 80.2788 107.14C81.238 106.207 81.2584 104.672 80.3247 103.713C79.3909 102.754 77.8565 102.733 76.8972 103.667C68.2557 112.002 54.4935 111.753 46.1586 103.112C37.8237 94.4701 38.0723 80.7079 46.7138 72.373C55.3553 64.0381 69.1176 64.2867 77.4525 72.9282C81.3664 76.9862 83.5507 82.406 83.5446 88.0437C83.5446 93.459 82.3272 95.2899 78.7136 95.2899ZM61.8055 95.2899C57.8035 95.2899 54.5592 92.0455 54.5592 88.0435C54.5592 84.0415 57.8035 80.7971 61.8055 80.7971C65.8076 80.7971 69.0519 84.0415 69.0519 88.0435C69.0519 92.0455 65.8076 95.2899 61.8055 95.2899Z" fill="#455A64"/>
<path d="M74.414 42.6812L67.7473 47.5121C64.2156 50.1212 59.395 50.1212 55.8633 47.5121L49.1966 42.6812L9.77637 82.1015C12.0456 84.3651 15.1217 85.6339 18.3271 85.628H30.525C31.8318 68.3538 46.8945 55.4095 64.169 56.7163C79.6262 57.8857 91.9112 70.1708 93.0806 85.628H105.284C108.489 85.6336 111.565 84.3651 113.834 82.1015L74.414 42.6812Z" fill="#FFA000"/>
</svg>
