<?xml version="1.0" encoding="UTF-8"?>
<svg id="Layer_1" data-name="Layer 1" xmlns="http://www.w3.org/2000/svg" viewBox="0 0 512 512">
  <path d="m30.21,281.97c.86-4.43,1.55-8.9,2.62-13.28,11.28-46.07,39.99-75.61,86.15-85.59,62.42-13.49,121.78,24.58,134.53,87.81,5.15,25.53.57,50.12-8.82,73.99-11.81,30-29.22,56.7-49.15,81.81-9.56,12.05-19.69,23.64-29.64,35.54.71.63,2.03,1.23,2.38,2.19,1.03,2.89,2.94,6.31,2.15,8.77-.86,2.68-4.11,6.02-6.74,6.44-7.19,1.13-14.6,1.16-21.91,1-2.17-.05-4.73-1.72-6.39-3.37-35.25-35.2-66.64-73.33-88.29-118.61-8.04-16.81-14.23-34.32-16.1-53.07-.08-.85-.51-1.66-.78-2.49,0-7.04,0-14.08,0-21.13Zm112.31,176.59c27.43-28.72,51.94-58.2,70.8-91.95,12.29-21.97,22.22-44.85,23.07-70.63.81-24.49-6.45-46.3-22.61-64.69-28.95-32.95-76.4-41.83-115.3-20.97-30.46,16.34-46.64,42.59-49.03,77.14-1.4,20.26,4.14,39.13,12.13,57.4,12.38,28.28,29.66,53.48,49.28,77.12,10.18,12.26,20.84,24.12,31.65,36.58Z"/>
  <path d="m414.89,30.21c5.86,1.64,11.86,2.9,17.56,4.99,29.36,10.77,49.18,39.99,48.38,71.25-.3,11.8-4.5,22.64-9.28,33.19-13.25,29.24-30.7,55.98-49.77,81.65-4.81,6.47-7.73,12.86-6.77,20.9.2,1.73.04,3.53-.19,5.27-.63,4.75-4.73,8.19-9.45,8.06-4.56-.13-8.52-3.54-8.88-8.14-.31-4.08.23-8.25-.26-12.3-.34-2.86-1.16-6.05-2.81-8.32-18.05-24.79-35.16-50.17-48.95-77.62-6.25-12.44-12.02-25.14-13.38-39.25-1.71-17.7,3.31-33.7,13.51-47.98,12.44-17.41,29.38-27.82,50.68-30.89.69-.1,1.33-.53,1.99-.8,5.87,0,11.74,0,17.61,0Zm-9.12,181.26c19.53-27.71,38.58-55.12,51.35-86.26,2.09-5.09,3.88-10.56,4.39-15.99,2.87-30.94-21.13-57.86-52.28-59.95-40.11-2.69-71.12,38.5-55.23,75.33,13.4,31.05,32.09,58.79,51.77,86.86Z"/>
  <path d="m279.58,368.12c8.65-.11,13.55,6.23,10.76,12.74-5.53,12.87-11.66,25.49-17.98,38-2.38,4.72-7.86,5.87-12.16,3.59-4.51-2.39-6.42-7.53-4.18-12.4,5.61-12.21,11.38-24.34,17.18-36.46,1.62-3.39,4.35-5.47,6.38-5.47Z"/>
  <path d="m297.02,348.96c-6.19.11-11.26-5.77-9.04-11.46,5.94-15.19,15.05-28.09,29.43-36.53,4.76-2.79,9.93-1.33,12.71,3.01,2.57,4.02,1.89,9.58-2.44,12.45-10.14,6.72-16.77,16.12-22.05,26.76-1.74,3.51-4.45,5.77-8.61,5.76Z"/>
  <path d="m193.09,463.24c.02-4.48,2.48-7.27,7.7-9.57,7.48-3.3,14.92-6.71,22.22-10.38,3.11-1.56,5.79-3.97,8.73-5.89,5.24-3.42,10.49-2.83,13.72,1.44,3.36,4.44,2.38,9.93-2.65,13.83-11.1,8.61-23.47,14.88-36.77,19.26-6.86,2.26-12.96-1.98-12.94-8.69Z"/>
  <path d="m406.28,286.86c-.5,1.02-1.28,3.4-2.68,5.33-7.63,10.46-18.66,15.18-30.84,17.75-3.14.66-6.36,1.02-9.56,1.35-5.62.57-10.21-2.85-10.82-7.91-.65-5.35,2.52-9.63,8.09-10.7,2.73-.53,5.53-.7,8.26-1.22,8.42-1.61,15.82-4.93,21.25-12.03,2.63-3.44,6.44-4.48,10.63-2.63,3.72,1.64,5.64,4.51,5.69,10.06Z"/>
  <path d="m142.94,236.76c31.23.07,56.34,25.34,56.26,56.64-.08,30.9-25.5,56.24-56.37,56.2-31.11-.04-56.34-25.49-56.26-56.74.08-30.95,25.41-56.16,56.37-56.09Zm37.27,56.55c.23-20.45-16.63-37.85-37.21-37.63-21.47.23-37.35,16.83-37.44,37.4-.09,20.47,16.55,37.23,36.99,37.39,20.68.16,37.43-16.36,37.66-37.16Z"/>
  <path d="m405.63,86.57c10.4-.06,18.82,8.17,18.92,18.48.09,10.53-8.43,19.22-18.8,19.18-10.12-.04-18.81-8.73-18.85-18.85-.05-10.18,8.49-18.75,18.74-18.81Z"/>
</svg>