<?xml version="1.0" encoding="UTF-8"?>
<svg id="Layer_1" data-name="Layer 1" xmlns="http://www.w3.org/2000/svg" viewBox="0 0 512 512">
  <path d="m487.69,455.34v7.23c-3.06,6.24-7.44,10-15.01,9.99-144.18-.1-288.37-.07-432.55-.08-11.66,0-17.88-9.19-13.45-19.9,3.39-8.18,6.93-16.3,10.42-24.44,23.13-53.94,46.34-107.85,69.3-161.86,3.47-8.17,8.72-11.8,17.64-11.55,14.29.41,28.59.11,42.89.11,1.45,0,2.89,0,4.98,0-1.02-2.03-1.75-3.45-2.45-4.89-6.74-13.75-13.97-27.28-20.13-41.28-15.26-34.71-20.31-70.62-10.14-107.72,11.8-43.05,38.35-72.44,81.44-85.83,7.53-2.34,15.44-3.43,23.17-5.1,8.13,0,16.26,0,24.39,0,.97.31,1.92.77,2.92.89,27.49,3.39,51.7,14.16,70.85,34.2,33.48,35.06,42.26,77.58,33.97,124.07-4.93,27.61-17.14,52.72-30.5,77.19-1.41,2.59-2.81,5.18-4.6,8.46h5.13c14.3,0,28.61.29,42.89-.11,8.91-.25,14.19,3.36,17.65,11.54,17.9,42.31,36.07,84.51,54.2,126.72,8.94,20.81,17.99,41.57,26.99,62.35Zm-231.36-126.61c2.78-3.51,5.12-6.4,7.4-9.34,27.1-35.02,52.12-71.37,70.72-111.77,12.84-27.89,20.47-56.48,15.31-87.75-9.19-55.74-54.3-86.52-101.9-81.97-36.33,3.47-62.74,21.62-77.04,55.34-13.22,31.16-12.33,62.9-.48,94.48,19.59,52.22,51.78,96.73,85.99,141.02Zm-77.03,33.13c.54.78.81,1.32,1.21,1.72,26.7,26.72,53.39,53.43,80.17,80.07,1.01,1,2.87,1.56,4.35,1.59,6.62.17,13.26.35,19.85-.04,3.46-.2,7.17-.93,10.21-2.49,31.4-16.11,62.7-32.44,94.02-48.71,11.43-5.94,22.86-11.89,34.15-17.77-.05-.71,0-1.03-.1-1.28-12.86-30.09-25.76-60.15-38.55-90.27-1.08-2.55-2.81-2.62-5.01-2.61-17,.04-34.01.11-51.01-.05-3.23-.03-5.16.93-6.94,3.66-16.39,25.08-34.24,49.08-53.65,71.91-7.13,8.38-15.9,8.42-22.98.11-5.75-6.74-11.31-13.65-17.14-20.69-16.14,8.26-32.25,16.5-48.59,24.86Zm43.51,83.19c-.9-1.1-1.38-1.8-1.98-2.4-21.69-21.71-43.43-43.37-65.04-65.17-2.06-2.08-3.54-1.86-5.81-.69-22.54,11.63-44.97,23.5-67.8,34.55-7.72,3.73-12.8,8.55-15.38,16.67-1.83,5.77-4.6,11.24-7.04,17.05h163.04Zm-11.81-130.15c-.71-1.23-1.17-2.16-1.76-3-6.14-8.92-12.39-17.76-18.39-26.78-1.53-2.31-3.16-3.11-5.87-3.09-16.86.11-33.72.19-50.58-.05-3.78-.05-5.51,1.22-6.93,4.58-12.18,28.76-24.53,57.45-36.82,86.17-.5,1.17-.88,2.4-1.68,4.61,41.23-21.1,81.52-41.72,122.02-62.45Zm223.48,86.35c-28.15,14.63-55.6,28.91-83.06,43.18.12.2.24.4.37.6h101.45c-6.32-14.74-12.44-29.02-18.76-43.78Z"/>
  <path d="m215.69,132.41c.05-22.48,18.21-40.76,40.62-40.88,22.52-.12,40.93,18.35,40.9,41.04-.03,22.66-18.46,40.99-41.06,40.85-22.36-.14-40.5-18.53-40.46-41.01Zm54.32.1c.01-7.39-6.04-13.38-13.54-13.39-7.49-.01-13.57,5.96-13.58,13.33-.02,7.31,6.15,13.43,13.54,13.44,7.4.01,13.57-6.07,13.59-13.39Z"/>
</svg>