<svg width="201" height="200" viewBox="0 0 201 200" fill="none" xmlns="http://www.w3.org/2000/svg">
<path opacity="0.15" fill-rule="evenodd" clip-rule="evenodd" d="M100.5 175C137.319 158.333 167.167 128.486 167.167 91.6667C167.167 54.8477 137.319 25 100.5 25C63.6812 25 33.8335 54.8477 33.8335 91.6667C33.8335 128.486 63.6812 158.333 100.5 175ZM100.5 116.667C114.308 116.667 125.5 105.474 125.5 91.6667C125.5 77.8596 114.308 66.6667 100.5 66.6667C86.6927 66.6667 75.5002 77.8596 75.5002 91.6667C75.5002 105.474 86.6927 116.667 100.5 116.667Z" fill="#B3C5D5"/>
<path d="M100.5 116.667C114.307 116.667 125.5 105.474 125.5 91.6667C125.5 77.8597 114.307 66.6667 100.5 66.6667C86.6925 66.6667 75.5 77.8597 75.5 91.6667C75.5 105.474 86.6925 116.667 100.5 116.667Z" stroke="#23292C" stroke-width="8" stroke-linecap="round" stroke-linejoin="round"/>
<path d="M100.5 175C137.319 158.333 167.167 128.486 167.167 91.6667C167.167 54.8477 137.319 25 100.5 25C63.6812 25 33.8335 54.8477 33.8335 91.6667C33.8335 128.486 63.6812 158.333 100.5 175Z" stroke="#23292C" stroke-width="8" stroke-linecap="round" stroke-linejoin="round"/>
</svg>
