<?xml version="1.0" encoding="UTF-8"?>
<svg id="Layer_1" data-name="Layer 1" xmlns="http://www.w3.org/2000/svg" viewBox="0 0 512 512">
  <defs>
    <style>
      .cls-1 {
        stroke-width: 5px;
      }

      .cls-1, .cls-2, .cls-3 {
        fill: #3fb874;
      }

      .cls-1, .cls-3 {
        stroke: #acdabc;
        stroke-miterlimit: 10;
      }

      .cls-4 {
        fill: #58595b;
        opacity: .3;
      }

      .cls-3 {
        stroke-width: 2px;
      }

      .cls-5 {
        fill: #abd9bb;
      }

      .cls-6 {
        fill: #acdabc;
      }
    </style>
  </defs>
  <path class="cls-1" d="m387.5,227.89c-3.81-5.05-7.58-9.9-11.18-14.88-9.53-13.22-18.29-26.91-24.74-41.95-4.07-9.49-6.95-19.26-6.22-29.77,1.02-14.79,5.91-27.69,18.77-36.21,22.33-14.78,56.3-5.98,64.15,25.54,3.24,12.99,1.5,25.45-3.48,37.69-6.22,15.3-14.87,29.19-24.37,42.6-3.83,5.41-7.96,10.61-11.95,15.9-.23.3-.51.57-.98,1.08Z"/>
  <path class="cls-1" d="m361.4,140.55c0,14.46,11.71,26.27,26.11,26.33,14.54.06,26.38-11.78,26.36-26.36-.01-14.49-11.66-26.24-26.11-26.35-14.47-.11-26.37,11.8-26.37,26.38Z"/>
  <g>
    <rect class="cls-6" x="377.48" y="186.14" width="4.78" height="4.78"/>
    <rect class="cls-6" x="382.26" y="190.92" width="4.78" height="4.78"/>
    <rect class="cls-6" x="387.04" y="186.14" width="4.78" height="4.78"/>
    <rect class="cls-6" x="391.82" y="190.92" width="4.78" height="4.78"/>
    <rect class="cls-6" x="396.59" y="186.14" width="4.78" height="4.78"/>
  </g>
  <path class="cls-3" d="m99.85,248.68c-5.19-.34-9.03-.38-12.81-.89-7.25-.96-13.1-6.39-13.99-13.54-.65-5.27-.77-10.68-.38-15.97.47-6.47,5.1-10.41,11.63-10.49,5.78-.07,11.62-.29,17.35.35,9.59,1.08,17.21,6.04,23.4,14.22,4.27-8.49,8.25-16.5,12.33-24.45,9.59-18.69,24.58-30.53,45.14-35.01,4.46-.97,9.11-1.42,13.68-1.43,40.25-.11,80.49-.3,120.74.02,25.93.2,45.38,12.1,57.98,34.79,4.52,8.15,8.47,16.62,12.88,25.34,1.15-1.26,2.09-2.27,3.01-3.29,6.37-7.11,14.4-10.83,23.85-11.35,4.74-.26,9.5-.18,14.25-.05,6.53.18,10.99,4.08,11.63,10.55.42,4.26.46,8.62.1,12.89-.88,10.56-7.3,16.55-18.01,17.1-3.09.16-6.2.02-9.65.81,1.11.77,2.2,1.58,3.34,2.3,22.37,14.09,33.86,34.18,33.7,60.79-.1,15.74.19,31.49-.1,47.22-.2,11.04-2.96,21.37-10.38,30.06-.93,1.08-1.23,2.94-1.31,4.46-.28,5.63.08,11.31-.59,16.88-1.11,9.25-8.23,15.74-17.47,15.9-14.25.25-28.52.28-42.77,0-10.62-.21-17.77-8.3-18.01-19.82-.15-7.27-.02-14.55-.04-21.83,0-5.56-1.81-7.39-7.43-7.42-44.85-.25-89.69-.5-134.54-.72-18.56-.09-37.13-.1-55.69-.12-6.25,0-7.83,1.62-7.84,7.87,0,7.13.06,14.26-.02,21.39-.13,13.23-7.65,20.72-20.76,20.75-12.62.02-25.25.04-37.87,0-11.94-.04-19.49-7.23-20.14-19.12-.11-2.07-.13-4.16-.02-6.24.34-6.14-.51-11.44-4.69-16.8-5.13-6.58-6.94-15.09-7.04-23.51-.23-18.26-.7-36.56.08-54.79.98-22.68,11.78-40.3,30.55-53.03,1.56-1.06,3.17-2.06,5.91-3.83Zm20.61,3.21c-6.05,3.77-11.58,7.2-17.11,10.66-17.82,11.14-26.64,27.32-26.79,48.24-.1,14.85-.37,29.71.14,44.55.22,6.25,1.81,12.56,3.57,18.62,1.65,5.66,6.07,8.55,12.11,8.56,9.95.02,19.9.14,29.85-.07,2.19-.05,4.68-.82,6.48-2.06,7.47-5.11,14.64-10.66,22.11-15.76,1.92-1.31,4.54-2.24,6.85-2.25,24.35,0,48.71.27,73.06.36,40.99.15,81.97.27,122.96.28,3.92,0,7.12.97,10.23,3.36,6.35,4.88,12.81,9.65,19.49,14.05,2.41,1.58,5.59,2.75,8.43,2.77,9.94.08,19.88-.39,29.82-.73,5.06-.17,9.12-2.56,10.68-7.28,1.93-5.85,3.91-11.97,4.12-18.04.56-16.17.41-32.37.12-48.55-.26-14.88-5.35-28.22-16.6-38.05-8.17-7.14-17.73-12.69-26.95-19.14-11.75,19.95-25.2,37.36-41.65,52.8-3.13-3.28-6.08-6.37-9.21-9.65,13.72-13.51,26.01-27.96,35.84-44.74h-242.89c10.07,16.83,22.21,31.31,35.94,44.72-3.11,3.27-6.05,6.37-9.18,9.67-16.49-15.41-29.91-32.83-41.42-52.32Zm258.65-16.59c-.41-1.11-.63-1.95-1.01-2.71-4.98-9.94-9.75-20-15.03-29.77-9.81-18.16-25.34-27.67-45.87-27.83-40.39-.32-80.78-.34-121.17,0-20.91.18-36.48,10.07-46.32,28.61-3.89,7.33-7.49,14.82-11.21,22.24-1.51,3.01-2.96,6.04-4.64,9.46h245.26ZM88.8,396.6c0,3.87.02,7.13,0,10.38-.03,3.46,1.84,5.42,5.11,5.46,13.65.13,27.3.11,40.94.02,2.76-.02,5.04-1.37,5.12-4.47.15-6.01.04-12.03.04-19.31-7.39,7.36-15.68,8.31-24.5,7.99-8.71-.31-17.44-.07-26.71-.07Zm284.44-7.06c0,7.13-.34,13.03.23,18.83.15,1.52,3.13,3.89,4.85,3.94,13.64.32,27.29.24,40.94.13,2.76-.02,4.92-1.45,5.04-4.55.14-3.65.03-7.31.03-11.15-7.27,0-14.08-.33-20.84.08-10.54.63-21.12,2.11-30.26-7.27ZM86.57,221.66c-.13.38-.21.52-.22.66q-1.15,12.25,10.9,12.27c6.11,0,12.23,0,18.62,0-4.39-11.07-13.68-15.02-29.29-12.93Zm340.43-.6c-14.62-2.94-27.66,2.76-29.08,12.67,8.32,0,16.61.17,24.89-.16,1.44-.06,3.71-2,4.01-3.41.62-2.95.19-6.11.19-9.1Z"/>
  <path class="cls-5" d="m120.45,251.89c11.51,19.49,24.93,36.91,41.42,52.32,3.13-3.3,6.07-6.4,9.18-9.67-13.73-13.41-25.87-27.89-35.94-44.72h242.89c-9.83,16.78-22.12,31.22-35.84,44.74,3.12,3.27,6.08,6.37,9.21,9.65,16.45-15.44,29.9-32.85,41.65-52.8,9.22,6.45,18.78,12,26.95,19.14,11.25,9.83,16.34,23.17,16.6,38.05.29,16.18.44,32.39-.12,48.55-.21,6.06-2.18,12.19-4.12,18.04-1.56,4.72-5.62,7.11-10.68,7.28-9.94.33-19.88.8-29.82.73-2.84-.02-6.02-1.19-8.43-2.77-6.68-4.4-13.14-9.17-19.49-14.05-3.11-2.39-6.31-3.36-10.23-3.36-40.99,0-81.97-.12-122.96-.28-24.35-.09-48.71-.36-73.06-.36-2.3,0-4.93.93-6.85,2.25-7.47,5.1-14.64,10.65-22.11,15.76-1.8,1.24-4.29,2.01-6.48,2.06-9.95.21-19.9.08-29.85.07-6.04,0-10.47-2.9-12.11-8.56-1.76-6.05-3.35-12.37-3.57-18.62-.51-14.83-.25-29.7-.14-44.55.14-20.92,8.97-37.1,26.79-48.24,5.52-3.45,11.06-6.89,17.11-10.66Zm210.37,75.42h-151.4v12.92h151.4v-12.92Zm-175.86,21.95c0-2.31,0-4.07,0-5.84-.1-19.83-12.67-35.1-32.19-38.09-6.82-1.04-13.91-.48-20.87-.42-7.09.06-11.84,4.94-11.98,12.12-.09,4.74-.1,9.49.04,14.24.28,9.27,7.36,17.57,16.54,17.86,15.97.51,31.97.14,48.47.14Zm203.41-.03c16.41,0,32.55.42,48.65-.16,9.01-.33,15.92-8.64,16.2-17.7.15-5.04.16-10.09,0-15.13-.17-5.48-3.91-10.73-9.19-10.99-10.44-.52-21.05-1.85-31.26,1.96-16.85,6.29-25.38,20.78-24.41,42.03Z"/>
  <path class="cls-5" d="m379.1,235.3h-245.26c1.67-3.42,3.13-6.45,4.64-9.46,3.72-7.42,7.32-14.91,11.21-22.24,9.84-18.54,25.41-28.43,46.32-28.61,40.39-.35,80.78-.33,121.17,0,20.53.17,36.07,9.67,45.87,27.83,5.28,9.78,10.05,19.83,15.03,29.77.38.76.6,1.6,1.01,2.71Z"/>
  <path class="cls-5" d="m88.8,396.6c9.27,0,18-.24,26.71.07,8.82.32,17.11-.63,24.5-7.99,0,7.28.11,13.3-.04,19.31-.08,3.1-2.36,4.45-5.12,4.47-13.65.09-27.3.11-40.94-.02-3.27-.03-5.14-1.99-5.11-5.46.03-3.25,0-6.51,0-10.38Z"/>
  <path class="cls-5" d="m373.24,389.54c9.14,9.38,19.72,7.91,30.26,7.27,6.76-.41,13.57-.08,20.84-.08,0,3.83.11,7.5-.03,11.15-.12,3.1-2.28,4.53-5.04,4.55-13.65.11-27.3.19-40.94-.13-1.73-.04-4.7-2.42-4.85-3.94-.58-5.8-.23-11.7-.23-18.83Z"/>
  <path class="cls-5" d="m86.57,221.66c15.61-2.09,24.91,1.86,29.29,12.93-6.39,0-12.51,0-18.62,0q-12.03,0-10.9-12.27c.01-.14.09-.28.22-.66Z"/>
  <path class="cls-5" d="m427,221.07c0,2.99.44,6.16-.19,9.1-.3,1.41-2.57,3.36-4.01,3.41-8.28.33-16.57.16-24.89.16,1.43-9.91,14.46-15.62,29.08-12.67Z"/>
  <path class="cls-2" d="m330.82,327.31v12.92h-151.4v-12.92h151.4Z"/>
  <path class="cls-2" d="m154.97,349.27c-16.49,0-32.49.37-48.47-.14-9.18-.29-16.27-8.59-16.54-17.86-.14-4.74-.13-9.49-.04-14.24.14-7.17,4.9-12.05,11.98-12.12,6.96-.06,14.05-.62,20.87.42,19.52,2.99,32.09,18.26,32.19,38.09,0,1.77,0,3.54,0,5.84Zm-51.68-30.65c0,4.07-.09,7.91.03,11.74.1,3.32,2.13,5.44,5.29,5.5,10.48.2,20.96.07,31.5.07-2.55-13.35-15.64-19.53-36.82-17.32Z"/>
  <path class="cls-2" d="m358.38,349.24c-.97-21.25,7.55-35.73,24.41-42.03,10.2-3.81,20.82-2.48,31.26-1.96,5.28.26,9.03,5.51,9.19,10.99.15,5.04.15,10.09,0,15.13-.28,9.06-7.18,17.37-16.2,17.7-16.11.58-32.25.16-48.65.16Zm51.55-30.2c-16.58-4.8-35.36,3.86-36.66,16.96,10.1,0,20.18.06,30.25-.03,4.03-.03,6.38-2.08,6.4-6.32.02-3.56,0-7.11,0-10.62Z"/>
  <path class="cls-5" d="m103.28,318.62c21.17-2.21,34.27,3.97,36.82,17.32-10.54,0-21.02.12-31.5-.07-3.16-.06-5.18-2.18-5.29-5.5-.12-3.83-.03-7.67-.03-11.74Z"/>
  <path class="cls-5" d="m409.93,319.04c0,3.5.01,7.06,0,10.62-.02,4.23-2.38,6.28-6.4,6.32-10.08.09-20.16.03-30.25.03,1.3-13.1,20.08-21.76,36.66-16.96Z"/>
  <ellipse class="cls-4" cx="255.12" cy="431.33" rx="190.41" ry="5.23"/>
  <path class="cls-3" d="m249.32,140.52h26.96c9.89,0,17.92,8.03,17.92,17.92v2.88h-62.8v-2.88c0-9.89,8.03-17.92,17.92-17.92Z"/>
  <g>
    <rect class="cls-6" x="244.13" y="151.25" width="7.28" height="7.28"/>
    <rect class="cls-6" x="251.41" y="143.97" width="7.28" height="7.28"/>
    <rect class="cls-6" x="258.69" y="151.25" width="7.28" height="7.28"/>
    <rect class="cls-6" x="265.97" y="143.97" width="7.28" height="7.28"/>
    <rect class="cls-6" x="273.26" y="151.25" width="7.28" height="7.28"/>
  </g>
</svg>