<?xml version="1.0" encoding="UTF-8"?>
<svg id="Layer_1" data-name="Layer 1" xmlns="http://www.w3.org/2000/svg" viewBox="0 0 512 512">
  <defs>
    <style>
      .cls-1, .cls-2 {
        fill: #3fb874;
      }

      .cls-3 {
        fill: #58595b;
        opacity: .3;
      }

      .cls-2 {
        stroke: #acdabc;
        stroke-miterlimit: 10;
        stroke-width: 2px;
      }

      .cls-4 {
        fill: #acdabc;
      }
    </style>
  </defs>
  <path class="cls-2" d="m109.32,227.22c-5.19-.34-9.03-.38-12.81-.89-7.25-.96-13.1-6.39-13.99-13.54-.65-5.27-.77-10.68-.38-15.97.47-6.47,5.1-10.41,11.63-10.49,5.78-.07,11.62-.29,17.35.35,9.59,1.08,17.21,6.04,23.4,14.22,4.27-8.49,8.25-16.5,12.33-24.45,9.59-18.69,24.58-30.53,45.14-35.01,4.46-.97,9.11-1.42,13.68-1.43,40.25-.11,80.49-.3,120.74.02,25.93.2,45.38,12.1,57.98,34.79,4.52,8.15,8.47,16.62,12.88,25.34,1.15-1.26,2.09-2.27,3.01-3.29,6.37-7.11,14.4-10.83,23.85-11.35,4.74-.26,9.5-.18,14.25-.05,6.53.18,10.99,4.08,11.63,10.55.42,4.26.46,8.62.1,12.89-.88,10.56-7.3,16.55-18.01,17.1-3.09.16-6.2.02-9.65.81,1.11.77,2.2,1.58,3.34,2.3,22.37,14.09,33.86,34.18,33.7,60.79-.1,15.74.19,31.49-.1,47.22-.2,11.04-2.96,21.37-10.38,30.06-.93,1.08-1.23,2.94-1.31,4.46-.28,5.63.08,11.31-.59,16.88-1.11,9.25-8.23,15.74-17.47,15.9-14.25.25-28.52.28-42.77,0-10.62-.21-17.77-8.3-18.01-19.82-.15-7.27-.02-14.55-.04-21.83,0-5.56-1.81-7.39-7.43-7.42-44.85-.25-89.69-.5-134.54-.72-18.56-.09-37.13-.1-55.69-.12-6.25,0-7.83,1.62-7.84,7.87,0,7.13.06,14.26-.02,21.39-.13,13.23-7.65,20.72-20.76,20.75-12.62.02-25.25.04-37.87,0-11.94-.04-19.49-7.23-20.14-19.12-.11-2.07-.13-4.16-.02-6.24.34-6.14-.51-11.44-4.69-16.8-5.13-6.58-6.94-15.09-7.04-23.51-.23-18.26-.7-36.56.08-54.79.98-22.68,11.78-40.3,30.55-53.03,1.56-1.06,3.17-2.06,5.91-3.83Zm20.61,3.21c-6.05,3.77-11.58,7.2-17.11,10.66-17.82,11.14-26.64,27.32-26.79,48.24-.1,14.85-.37,29.71.14,44.55.22,6.25,1.81,12.56,3.57,18.62,1.65,5.66,6.07,8.55,12.11,8.56,9.95.02,19.9.14,29.85-.07,2.19-.05,4.68-.82,6.48-2.06,7.47-5.11,14.64-10.66,22.11-15.76,1.92-1.31,4.54-2.24,6.85-2.25,24.35,0,48.71.27,73.06.36,40.99.15,81.97.27,122.96.28,3.92,0,7.12.97,10.23,3.36,6.35,4.88,12.81,9.65,19.49,14.05,2.41,1.58,5.59,2.75,8.43,2.77,9.94.08,19.88-.39,29.82-.73,5.06-.17,9.12-2.56,10.68-7.28,1.93-5.85,3.91-11.97,4.12-18.04.56-16.17.41-32.37.12-48.55-.26-14.88-5.35-28.22-16.6-38.05-8.17-7.14-17.73-12.69-26.95-19.14-11.75,19.95-25.2,37.36-41.65,52.8-3.13-3.28-6.08-6.37-9.21-9.65,13.72-13.51,26.01-27.96,35.84-44.74h-242.89c10.07,16.83,22.21,31.31,35.94,44.72-3.11,3.27-6.05,6.37-9.18,9.67-16.49-15.41-29.91-32.83-41.42-52.32Zm258.65-16.59c-.41-1.11-.63-1.95-1.01-2.71-4.98-9.94-9.75-20-15.03-29.77-9.81-18.16-25.34-27.67-45.87-27.83-40.39-.32-80.78-.34-121.17,0-20.91.18-36.48,10.07-46.32,28.61-3.89,7.33-7.49,14.82-11.21,22.24-1.51,3.01-2.96,6.04-4.64,9.46h245.26ZM98.27,375.13c0,3.87.02,7.13,0,10.38-.03,3.46,1.84,5.42,5.11,5.46,13.65.13,27.3.11,40.94.02,2.76-.02,5.04-1.37,5.12-4.47.15-6.01.04-12.03.04-19.31-7.39,7.36-15.68,8.31-24.5,7.99-8.71-.31-17.44-.07-26.71-.07Zm284.44-7.06c0,7.13-.34,13.03.23,18.83.15,1.52,3.13,3.89,4.85,3.94,13.64.32,27.29.24,40.94.13,2.76-.02,4.92-1.45,5.04-4.55.14-3.65.03-7.31.03-11.15-7.27,0-14.08-.33-20.84.08-10.54.63-21.12,2.11-30.26-7.27ZM96.04,200.2c-.13.38-.21.52-.22.66q-1.15,12.25,10.9,12.27c6.11,0,12.23,0,18.62,0-4.39-11.07-13.68-15.02-29.29-12.93Zm340.43-.6c-14.62-2.94-27.66,2.76-29.08,12.67,8.32,0,16.61.17,24.89-.16,1.44-.06,3.71-2,4.01-3.41.62-2.95.19-6.11.19-9.1Z"/>
  <path class="cls-1" d="m340.3,305.85v12.92h-151.4v-12.92h151.4Z"/>
  <path class="cls-1" d="m164.44,327.8c-16.49,0-32.49.37-48.47-.14-9.18-.29-16.27-8.59-16.54-17.86-.14-4.74-.13-9.49-.04-14.24.14-7.17,4.9-12.05,11.98-12.12,6.96-.06,14.05-.62,20.87.42,19.52,2.99,32.09,18.26,32.19,38.09,0,1.77,0,3.54,0,5.84Zm-51.68-30.65c0,4.07-.09,7.91.03,11.74.1,3.32,2.13,5.44,5.29,5.5,10.48.2,20.96.07,31.5.07-2.55-13.35-15.64-19.53-36.82-17.32Z"/>
  <path class="cls-1" d="m367.85,327.78c-.97-21.25,7.55-35.73,24.41-42.03,10.2-3.81,20.82-2.48,31.26-1.96,5.28.26,9.03,5.51,9.19,10.99.15,5.04.15,10.09,0,15.13-.28,9.06-7.18,17.37-16.2,17.7-16.11.58-32.25.16-48.65.16Zm51.55-30.2c-16.58-4.8-35.36,3.86-36.66,16.96,10.1,0,20.18.06,30.25-.03,4.03-.03,6.38-2.08,6.4-6.32.02-3.56,0-7.11,0-10.62Z"/>
  <ellipse class="cls-3" cx="264.6" cy="409.86" rx="190.41" ry="5.23"/>
  <path class="cls-2" d="m258.79,119.05h26.96c9.89,0,17.92,8.03,17.92,17.92v2.88h-62.8v-2.88c0-9.89,8.03-17.92,17.92-17.92Z"/>
  <g>
    <rect class="cls-4" x="253.6" y="129.79" width="7.28" height="7.28"/>
    <rect class="cls-4" x="260.89" y="122.51" width="7.28" height="7.28"/>
    <rect class="cls-4" x="268.17" y="129.79" width="7.28" height="7.28"/>
    <rect class="cls-4" x="275.45" y="122.51" width="7.28" height="7.28"/>
    <rect class="cls-4" x="282.73" y="129.79" width="7.28" height="7.28"/>
  </g>
</svg>