<?xml version="1.0" encoding="UTF-8"?>
<svg version="1.1" viewBox="0 0 1600 1600" width="1280" height="1280" xmlns="http://www.w3.org/2000/svg">
<path transform="translate(110 87.6)" d="m0 0c1.21 1.4 1.21 1.4 1.21 3.4 1.49 0.5 1.49 0.5 3 1v2c0.56 0.25 1.12 0.5 1.69 0.75 2.74 1.48 4.99 3.19 7.31 5.25v2h2c1.34 1.66 2.68 3.33 4 5 1.37 1.09 1.37 1.09 2.75 2.19 0.75 0.6 1.49 1.2 2.25 1.81v2c0.99 0.33 1.98 0.66 3 1v2c0.99 0.33 1.98 0.66 3 1v2h2v2c0.99 0.33 1.98 0.66 3 1v2c1.49 0.5 1.49 0.5 3 1v2c1.49 0.5 1.49 0.5 3 1v2c0.64 0.27 1.28 0.54 1.94 0.81 2.06 1.19 2.06 1.19 3.06 4.19 1.49 0.5 1.49 0.5 3 1v2c1.49 0.5 1.49 0.5 3 1v2c1.49 0.5 1.49 0.5 3 1v2h2v2c1.49 0.5 1.49 0.5 3 1v2c1.49 0.5 1.49 0.5 3 1v2c1.49 0.5 1.49 0.5 3 1v2c1.49 0.5 1.49 0.5 3 1v2h2v2c1.49 0.5 1.49 0.5 3 1v2c1.49 0.5 1.49 0.5 3 1v2c1.49 0.5 1.49 0.5 3 1v2h2c1.63 1.38 1.63 1.38 3 3v2c1.49 0.5 1.49 0.5 3 1v2c1.49 0.5 1.49 0.5 3 1v2c1.49 0.5 1.49 0.5 3 1v2h2v2c1.49 0.5 1.49 0.5 3 1v2c0.99 0.33 1.98 0.66 3 1v2c0.99 0.33 1.98 0.66 3 1v2h2c1.63 1.38 1.63 1.38 3 3v2c0.99 0.33 1.98 0.66 3 1v2c0.99 0.33 1.98 0.66 3 1v2h2c1.36 1.65 2.69 3.32 4 5l2 1v2c0.99 0.33 1.98 0.66 3 1v2c0.99 0.33 1.98 0.66 3 1v2h2c1.63 1.38 1.63 1.38 3 3v2c0.99 0.33 1.98 0.66 3 1v2c0.99 0.33 1.98 0.66 3 1v2h2c1.36 1.65 2.69 3.32 4 5l2 1v2c0.99 0.33 1.98 0.66 3 1v2c0.99 0.33 1.98 0.66 3 1v2h2c1.63 1.38 1.63 1.38 3 3v2c0.99 0.33 1.98 0.66 3 1v2c0.99 0.33 1.98 0.66 3 1v2h2c1.36 1.65 2.69 3.32 4 5l2 1v2c0.99 0.33 1.98 0.66 3 1v2c0.99 0.33 1.98 0.66 3 1v2h2v2c0.99 0.33 1.98 0.66 3 1v2c0.99 0.33 1.98 0.66 3 1v2c0.99 0.33 1.98 0.66 3 1v2c0.64 0.27 1.28 0.54 1.94 0.81 2.06 1.19 2.06 1.19 3.06 4.19 0.99 0.33 1.98 0.66 3 1v2c0.99 0.33 1.98 0.66 3 1v2c0.99 0.33 1.98 0.66 3 1v2h2c1.63 1.38 1.63 1.38 3 3v2c0.99 0.33 1.98 0.66 3 1v2h2c1.34 1.66 2.68 3.33 4 5 1.18 0.93 1.18 0.93 2.38 1.88 2.2 1.78 3.82 3.41 5.62 5.56 0.51 0.6 1.02 1.2 1.54 1.81 0.48 0.58 0.97 1.16 1.46 1.75 3.26 3.93 3.26 3.93 7.88 5.56 3.21-0.57 5.28-1.7 8.02-3.42 3.5-1.89 7.28-2.93 11.1-4.13 2.75-0.91 5.38-1.94 8.04-3.07 21.3-8.6 44.8-8.39 67.4-8.32 3.95 0 7.9-0.01 11.8-0.01 6.9-0.01 13.8-0.01 20.7-0.01 10.3 0.02 20.5 0.01 30.8 0 18.3-0.02 36.6-0.01 55-0.01 16 0.01 32.1 0.01 48.1 0.01h3.22 13c40.6-0.01 81.1 0 122 0.01 36 0.02 72 0.02 108 0 40.5-0.01 80.9-0.02 121-0.01h13 3.22c16 0.01 32 0 48.1-0.01 18.2-0.01 36.5 0 54.7 0.01 10.2 0.01 20.4 0.01 30.6 0 6.82-0.01 13.6 0 20.5 0.01 3.88 0.01 7.76 0.01 11.6 0 48.8-0.13 48.8-0.13 70.5 9.17 2.36 0.99 4.72 1.92 7.11 2.82 8.88 3.36 17.4 6.92 25.8 11.4v2c0.57 0.12 1.14 0.23 1.73 0.35 7.23 2.07 13.6 7.53 19.7 11.8 0.61 0.43 1.21 0.86 1.83 1.3 5.82 4.19 5.82 4.19 7.73 6.51v2c0.59 0.27 1.17 0.53 1.77 0.8 8.05 4.32 16 12.8 21.2 20.2v2h2c1.51 1.65 1.51 1.65 3.13 3.81 0.54 0.71 1.08 1.42 1.63 2.15 1.24 2.04 1.24 2.04 1.24 5.04h2c1.65 2.24 3.15 4.47 4.63 6.81 0.42 0.65 0.84 1.29 1.27 1.95 3.1 4.86 3.1 4.86 3.1 8.24h2c0.46 1.06 0.92 2.13 1.4 3.22 0.61 1.43 1.23 2.86 1.85 4.28 0.49 1.12 0.49 1.12 0.98 2.25 0.32 0.74 0.64 1.47 0.97 2.23 0.44 1.01 0.44 1.01 0.89 2.04 0.93 2.03 1.98 3.96 3.04 5.92 1.29 2.65 2.31 5.25 3.16 8.07 0.22 0.75 0.44 1.49 0.67 2.26 0.84 2.9 1.67 5.8 2.48 8.7 0.84 3.02 1.7 6.02 2.56 9.03 5.6 20 5.15 40.8 5.13 61.3 0 2.58 0 5.16 0.01 7.74v16.8c-0.01 8.32 0 16.6 0 25v44.6 39 2.62 10.5c0 32.9 0 65.7-0.01 98.6 0 29.2 0 58.4 0.01 87.6v98.4 10.5 2.61 39 44.3c-0.01 8.27-0.01 16.5 0 24.8 0 6.18 0 12.4-0.01 18.5 0 2.49 0 4.99 0.01 7.48 0.01 15.7 0.01 31.1-2.95 46.6-0.17 0.94-0.35 1.88-0.53 2.84-2.2 11.5-5.01 22.5-9.66 33.2-0.85 2.09-1.7 4.17-2.56 6.25-1.67 4-3.42 7.91-5.44 11.8-0.44 0.94-0.44 0.94-0.89 1.89-1.69 3.53-3.47 6.76-5.79 9.92-2.42 3-2.42 3-3.32 6.19h-2l-1 5h-2c-0.22 0.52-0.45 1.03-0.68 1.56-1.8 3.34-3.81 6.59-6.32 9.44h-2c-0.24 0.56-0.49 1.12-0.75 1.69-1.47 2.74-3.18 4.99-5.25 7.31h-2l-1 3h-2v2h-2l-1 3h-2l-1 3h-2v2c-3.46 3-3.46 3-6 3v2c-4.35 4-4.35 4-8 4v5c0.58 0.25 1.16 0.5 1.75 0.75 2.58 1.44 4.32 3.04 6.25 5.25v2c0.55 0.22 1.1 0.44 1.67 0.67 3.08 1.76 5.34 4.16 7.77 6.71 2.69 2.79 5.35 5.45 8.41 7.85 0.71 0.58 1.42 1.17 2.15 1.77v2c0.99 0.33 1.98 0.66 3 1v2c0.99 0.33 1.98 0.66 3 1v2h2c1.63 1.38 1.63 1.38 3 3v2c0.99 0.33 1.98 0.66 3 1v2c0.99 0.33 1.98 0.66 3 1v2c0.96 0.4 0.96 0.4 1.94 0.81 2.06 1.19 2.06 1.19 3.06 4.19 0.99 0.33 1.98 0.66 3 1v2c0.99 0.33 1.98 0.66 3 1v2c0.99 0.33 1.98 0.66 3 1v2h2v2c0.99 0.33 1.98 0.66 3 1v2c0.99 0.33 1.98 0.66 3 1v2c0.99 0.33 1.98 0.66 3 1v2c0.99 0.33 1.98 0.66 3 1v2h2v2c0.99 0.33 1.98 0.66 3 1v2c0.99 0.33 1.98 0.66 3 1v2c0.99 0.33 1.98 0.66 3 1v2h2c1.63 1.38 1.63 1.38 3 3v2c0.99 0.33 1.98 0.66 3 1v2c0.99 0.33 1.98 0.66 3 1v2h2c1.36 1.65 2.69 3.32 4 5l2 1v2c0.99 0.33 1.98 0.66 3 1v2c0.99 0.33 1.98 0.66 3 1v2h2c1.63 1.38 1.63 1.38 3 3v2c0.99 0.33 1.98 0.66 3 1v2c0.99 0.33 1.98 0.66 3 1v2h2c1.63 1.38 1.63 1.38 3 3v2c0.99 0.33 1.98 0.66 3 1v2c0.99 0.33 1.98 0.66 3 1v2c0.99 0.33 1.98 0.66 3 1v2h2c1.63 1.38 1.63 1.38 3 3v2c0.99 0.33 1.98 0.66 3 1v2c0.99 0.33 1.98 0.66 3 1v2h2c1.63 1.38 1.63 1.38 3 3v2c0.99 0.33 1.98 0.66 3 1v2c0.99 0.33 1.98 0.66 3 1v2c0.99 0.33 1.98 0.66 3 1v2h2c1.63 1.38 1.63 1.38 3 3v2c0.99 0.33 1.98 0.66 3 1v2c0.99 0.33 1.98 0.66 3 1v2c0.99 0.33 1.98 0.66 3 1v2h2v2c0.99 0.33 1.98 0.66 3 1v2c0.99 0.33 1.98 0.66 3 1v2c0.99 0.33 1.98 0.66 3 1v2h2c1.63 1.38 1.63 1.38 3 3v2c0.99 0.33 1.98 0.66 3 1v2c0.99 0.33 1.98 0.66 3 1v2h2c1.36 1.65 2.69 3.32 4 5l2 1v2c0.99 0.33 1.98 0.66 3 1v2h2c1.36 1.65 2.69 3.32 4 5l2 1v2c0.99 0.33 1.98 0.66 3 1v2h2c1.34 1.66 2.68 3.33 4 5 0.91 0.72 1.82 1.45 2.75 2.19 0.75 0.6 1.49 1.2 2.25 1.81v2h2c3 3.46 3 3.46 3 6 0.99 0.33 1.98 0.66 3 1 2.04 3.45 3.25 7.2 2.7 11.2-1.82 5.36-4.93 8.8-9.51 12.1-4.39 1.39-8.12 1.62-12.3-0.26-6.77-4.22-12.6-10.1-17.9-16v-2c-0.95-0.4-0.95-0.4-1.93-0.81-2.07-1.19-2.07-1.19-3.07-4.19-0.99-0.33-1.98-0.66-3-1v-2c-0.59-0.27-1.19-0.54-1.8-0.82-2.16-1.16-3.55-2.28-5.27-4l-1.76-1.76c-0.63-0.63-1.26-1.27-1.91-1.93-0.68-0.67-1.36-1.35-2.06-2.05-2.27-2.27-4.54-4.55-6.81-6.82-1.63-1.63-3.25-3.26-4.88-4.89-4.43-4.42-8.85-8.85-13.3-13.3-4.62-4.63-9.25-9.26-13.9-13.9-7.78-7.78-15.6-15.6-23.3-23.4-7.98-8-16-16-24-24-0.5-0.49-0.99-0.98-1.5-1.49-2.46-2.47-4.93-4.94-7.4-7.41-17-17-34-34.1-51.1-51.2-0.72-0.72-1.44-1.44-2.18-2.19-1.32-1.32-2.64-2.64-3.96-3.97l-7.74-7.74c-1.61-1.61-3.21-3.23-4.8-4.86-2.32-2.38-2.32-2.38-4.75-4.07-0.83-0.64-0.83-0.64-1.69-1.31v-2h-2c-0.55-0.7-1.11-1.4-1.68-2.12-1.89-2.35-3.53-3.99-5.82-5.88-2.91-2.43-5.17-4.98-7.5-8-2.55-2.62-5.16-5.16-7.81-7.69-2.19-2.31-2.19-2.31-2.19-4.31-0.8-0.27-1.6-0.53-2.43-0.81-0.85-0.39-1.69-0.78-2.57-1.19l-1-3h-7v2c-0.76 0.24-1.52 0.49-2.3 0.74-4.91 1.59-9.71 3.18-14.4 5.39-3.68 1.7-7.23 2.66-11.2 3.44-3.1 0.63-6.1 1.55-9.13 2.43-23 6.69-48.5 5.15-72.2 5.13h-11.4c-6.62 0.01-13.2 0.01-19.9 0.01-9.84-0.01-19.7-0.01-29.5 0h-52.8c-15.4 0-30.8-0.01-46.2 0h-3.09-12.4c-38.9 0-77.8 0-117-0.01h-104c-38.8 0.01-77.6 0.01-116 0.01h-12.4-3.09c-15.4-0.01-30.8 0-46.1 0h-52.5c-9.78-0.01-19.6-0.01-29.3 0-6.54 0-13.1 0-19.6-0.01h-11.2c-58 0.06-58 0.06-79.1-9.1-2.97-1.19-5.98-2.07-9.06-2.97-5.02-1.5-9.5-3.37-14.1-5.82-3.7-1.94-7.53-3.58-11.4-5.24v-2c-0.56-0.11-1.13-0.23-1.72-0.35-7.17-2.05-13.6-7.45-19.6-11.7-0.88-0.62-0.88-0.62-1.77-1.25-3.66-2.62-6.77-5.45-9.92-8.69-2.64-2.36-5.31-4.69-7.98-7.01-0.67-0.66-1.33-1.31-2.02-1.99v-2c-0.58-0.24-1.17-0.48-1.78-0.73-2.64-1.51-3.87-3.13-5.65-5.58-2.04-2.73-4.03-5.28-6.5-7.63-1.02-1.02-1.02-1.02-2.07-2.06v-2h-2l-1-4h-2c-4-6.75-4-6.75-4-9h-2c-1-1.76-2-3.54-3-5.31-0.55-0.99-1.11-1.97-1.68-2.99-1.32-2.7-1.32-2.7-1.32-5.7h-2c-0.23-0.58-0.46-1.16-0.69-1.76-1.91-4.79-3.86-9.56-5.87-14.3-1.78-4.25-3.38-8.5-4.76-12.9-0.5-1.5-1.06-2.98-1.67-4.45-7.71-19.8-7.45-42.7-7.39-63.6 0-2.67 0-5.34-0.01-8.02-0.01-5.77-0.01-11.6 0-17.3 0.01-8.59 0-17.2-0.01-25.8-0.01-15.4-0.01-30.7 0-46 0.01-13.4 0.01-26.9 0-40.3v-2.71-10.9c-0.01-34 0-67.9 0.02-102 0.01-30.1 0.01-60.3-0.01-90.4-0.01-33.9-0.02-67.8-0.01-102v-10.8-2.7c0.01-13.4 0-26.8 0-40.3-0.01-15.3-0.01-30.5 0.01-45.8 0-8.54 0.01-17.1-0.01-25.6 0-5.71 0-11.4 0.01-17.1 0.01-3.25 0.01-6.49 0-9.74-0.05-19.4 1.41-37.4 7.39-55.9 0.25-0.78 0.5-1.56 0.75-2.36 0.72-2.23 1.49-4.43 2.25-6.64 0.34-1.02 0.68-2.04 1.02-3.1 3.19-9.42 7.38-18.1 12-26.9h2c0.12-0.57 0.23-1.14 0.35-1.72 2.09-7.27 7.59-13.8 11.9-19.9 0.44-0.63 0.88-1.26 1.33-1.91 1.09-1.53 2.25-3 3.42-4.47h2c0.27-0.58 0.54-1.17 0.82-1.78 4.69-8.81 14.9-18.8 23.2-24.2h2v-2c1.72-1.36 3.54-2.5 5.38-3.68 1.92-1.32 1.92-1.32 2.62-4.32h-3c-1.68-1.37-1.68-1.37-3-3v-2h-2c-1.33-1.66-2.67-3.33-4-5-0.9-0.72-1.81-1.44-2.75-2.19-0.74-0.59-1.48-1.19-2.25-1.81v-2h-2c-1.33-1.66-2.67-3.33-4-5-1.64-1.36-3.3-2.7-5-4-1.81-1.62-1.81-1.62-3-3v-2h-2c-1.36-1.64-2.68-3.31-4-5-1.65-1.68-3.31-3.35-5-5-2.77-2.72-5.54-5.45-8.31-8.19-0.74-0.72-1.48-1.44-2.24-2.19-0.7-0.69-1.4-1.38-2.12-2.1-0.64-0.63-1.28-1.25-1.94-1.9-1.39-1.62-1.39-1.62-1.39-3.62-0.55-0.23-1.11-0.46-1.68-0.7-2.91-1.63-4.94-3.66-7.3-6.02-0.93-0.93-1.87-1.86-2.83-2.82-0.72-0.73-0.72-0.73-1.46-1.47-1.48-1.49-2.97-2.97-4.46-4.44-0.93-0.94-1.85-1.87-2.81-2.83l-2.59-2.59c-1.87-2.13-1.87-2.13-1.87-4.13-0.54-0.22-1.08-0.44-1.64-0.66-3.12-1.77-5.46-4.16-7.96-6.69-0.56-0.55-1.11-1.1-1.68-1.67-1.86-1.85-3.71-3.71-5.56-5.57-1.33-1.32-2.66-2.65-3.99-3.98-3.62-3.6-7.23-7.21-10.8-10.8-3.77-3.77-7.55-7.54-11.3-11.3-6.34-6.33-12.7-12.7-19-19-7.32-7.33-14.6-14.7-22-22-6.29-6.28-12.6-12.6-18.9-18.9-3.76-3.76-7.51-7.52-11.3-11.3-3.53-3.52-7.06-7.06-10.6-10.6l-3.9-3.9c-1.77-1.76-3.54-3.53-5.3-5.31-0.52-0.51-1.04-1.03-1.58-1.57-3.52-3.55-3.52-3.55-3.52-5.78-1.48-0.49-1.48-0.49-3-1v-2c-0.99-0.33-1.98-0.66-3-1v-2h-2c-1.41-1.57-2.76-3.21-4.06-4.87-0.71-0.91-1.42-1.81-2.16-2.74-2.97-3.99-3.11-6.4-2.78-11.4 1.88-5.53 5.06-8.23 10-11 7.18-3.02 14.6 1.93 19.8 6.6zm392 247-12.4 0.09c-7.13 0.05-14.3 0.11-21.4 0.17-2.35 0.02-4.69 0.04-7.04 0.06-12.1 0.08-24.2 0.29-36.3 0.74-1.06 0.04-2.11 0.08-3.2 0.11-9.02 0.37-17.8 0.95-26.5 3.24-1.01 0.27-1.01 0.27-2.03 0.54-1.39 0.36-2.78 0.73-4.17 1.1-2.13 0.56-4.27 1.08-6.41 1.6-1.36 0.34-2.72 0.68-4.08 1.01-1.22 0.31-2.45 0.61-3.71 0.92-3.2 0.79-3.2 0.79-4.92 4.02 1.37 2.04 1.37 2.04 3 4h2l1 3h2c0.23 0.56 0.46 1.12 0.69 1.69 1.32 2.32 2.84 3.9 4.73 5.76 1.86 1.82 3.68 3.68 5.5 5.54 1.43 1.44 2.85 2.88 4.27 4.32 0.73 0.75 1.45 1.49 2.2 2.25 0.69 0.7 1.38 1.4 2.1 2.12 0.62 0.64 1.25 1.28 1.9 1.93 1.51 1.61 1.51 1.61 3.61 1.39l1 3h2v2c3.93 1.91 5.83 1.9 10 1 1.67-0.08 3.34-0.12 5-0.12 0.99-0.01 1.98-0.01 3-0.01 1.63 0 1.63 0 3.28 0.01 1.16 0 2.32-0.01 3.51-0.01h9.68c3.5 0.01 7.01 0 10.5 0h18.4 27.4c16.3-0.01 32.6-0.01 49 0h42.8 2.87 11.5c36-0.01 72.1 0 108 0 32 0.01 64.1 0.01 96.2 0 36 0 72-0.01 108 0h11.5 2.86 42.8c16.2-0.01 32.4-0.01 48.7 0h27.3 18.2c3.46 0 6.92 0.01 10.4 0 3.71 0 7.43 0 11.2 0.01 1.09-0.01 2.17-0.01 3.3-0.01 0.98 0 1.96 0 2.97 0.01h2.58c2.04 0.12 2.04 0.12 4.04 1.12v10c-1.17 0-2.35 0.01-3.57 0.01-52 0.07-104 0.15-156 0.24h-2.39c-17.2 0.03-34.4 0.06-51.6 0.08-8.43 0.02-16.9 0.03-25.3 0.04-0.84 0.01-1.68 0.01-2.55 0.01-27.1 0.04-54.2 0.08-81.3 0.12-27.9 0.04-55.8 0.09-83.7 0.14-3.96 0-7.92 0.01-11.9 0.02h-2.36c-12.4 0.02-24.9 0.04-37.3 0.05-12.6 0.02-25.1 0.04-37.7 0.07-6.78 0.01-13.6 0.02-20.3 0.03-27.9 0.03-55.7 0.2-83.6 0.84-52.8 1.2-52.8 1.2-73.2-0.63-3.28-0.31-3.28-0.31-6.12 1.98 1.29 1.71 2.62 3.38 4 5h2c0.27 0.6 0.54 1.19 0.82 1.8 1.19 2.21 2.39 3.67 4.15 5.44 0.57 0.57 1.15 1.14 1.73 1.74 0.9 0.87 0.9 0.87 1.8 1.77 0.6 0.6 1.19 1.21 1.81 1.83 0.85 0.85 0.85 0.85 1.73 1.72 0.52 0.52 1.04 1.04 1.58 1.57 1.35 1.34 1.35 1.34 3.38 1.13l1 3h2v2h2l1 3h2l1 3h2l1 3h2v2c1.65 1.36 3.32 2.69 5 4l1 2h2l1 3h2v2c1.65 1.36 3.32 2.69 5 4l1 2h2l1 3h2l1 3h2v2c1.65 1.36 3.32 2.69 5 4l1 2h2l1 3h2v2c1.34 1.67 1.34 1.67 3 3h2l1 3h2l1 3h2l1 3h2v2c1.65 1.36 3.32 2.69 5 4l1 2h2l1 3h2v2c1.34 1.67 1.34 1.67 3 3h2l1 3h2l1 3h2l1 3h2v2c1.34 1.67 1.34 1.67 3 3h2l1 3h2l1 3h2v2c1.34 1.67 1.34 1.67 3 3h2l1 3h2l1 3h2l1 3h2v2c1.34 1.67 1.34 1.67 3 3h2l1 3h2l1 3h2v2c1.34 1.67 1.34 1.67 3 3h2l1 3h2l1 3h2l1 3h2v2c1.34 1.67 1.34 1.67 3 3h2l1 3h2l1 3h2v2c1.34 1.67 1.34 1.67 3 3h2l1 3h2l1 3h2l1 3h2v2c1.65 1.36 3.32 2.69 5 4l1 2h2l1 3h2v2c1.65 1.36 3.32 2.69 5 4l1 2h2l1 3h2l1 3h2v2c1.65 1.36 3.32 2.69 5 4l1 2h2l1 3h2v2c1.34 1.67 1.34 1.67 3 3h2l1 3h2l1 3h2l1 3h2v2c1.65 1.36 3.32 2.69 5 4l1 2h2l1 3h2v2c1.34 1.67 1.34 1.67 3 3h2l1 3h2l1 3h2l1 3h2v2c1.65 1.36 3.32 2.69 5 4l1 2h2l1 3h2v2c1.34 1.67 1.34 1.67 3 3h2l1 3h2l1 3h2l1 3h2v2c1.65 1.36 3.32 2.69 5 4l1 2h2l1 3h2v2c1.65 1.36 3.32 2.69 5 4l1 2h2l1 3h2l1 3h2v2c1.65 1.36 3.32 2.69 5 4l1 2h2l1 3h2v2c1.65 1.36 3.32 2.69 5 4l1 2h2l1 3h2l1 3h2v2c1.65 1.36 3.32 2.69 5 4l1 2h2l1 3h2v2c1.67 1.34 3.33 2.67 5 4 0.73 0.91 1.45 1.82 2.19 2.75 0.6 0.74 1.2 1.49 1.81 2.25h2v2c1.67 1.34 3.33 2.67 5 4 0.73 0.91 1.45 1.82 2.19 2.75 0.6 0.74 1.2 1.49 1.81 2.25h2v2c1.67 1.34 3.33 2.67 5 4 1.37 1.65 2.7 3.31 4 5 1.52 1.78 1.52 1.78 3 3h2v2c1.67 1.34 3.33 2.67 5 4 0.73 0.91 1.45 1.82 2.19 2.75 0.6 0.74 1.2 1.49 1.81 2.25h2v2c1.67 1.34 3.33 2.67 5 4 0.73 0.91 1.45 1.82 2.19 2.75 0.6 0.74 1.2 1.49 1.81 2.25h2l1 3h2l1 3h2v2c1.65 1.36 3.32 2.69 5 4l1 2h2l1 3h2v2c1.65 1.36 3.32 2.69 5 4l1 2h2l1 3h2v2c1.67 1.34 3.33 2.67 5 4 0.73 0.91 1.45 1.82 2.19 2.75 0.6 0.74 1.2 1.49 1.81 2.25h2v2c1.67 1.34 3.33 2.67 5 4 1.37 1.65 2.7 3.31 4 5 1.52 1.78 1.52 1.78 3 3h2v2c1.67 1.34 3.33 2.67 5 4 0.73 0.91 1.45 1.82 2.19 2.75 0.6 0.74 1.2 1.49 1.81 2.25h2l1 3h2l1 3h2v2h2l1 3h2c0.25 0.62 0.5 1.24 0.75 1.88 1.46 2.47 2.63 3.07 5.25 4.12v2h2c0.29 0.62 0.58 1.24 0.88 1.88 1.06 2.26 1.06 2.26 3.12 4.12 4.42-0.24 6.81-2.05 10-5 1.35-1.65 2.69-3.32 4-5l2-1v-2c0.99-0.33 1.98-0.66 3-1v-2h2v-3c0.88-0.38 0.88-0.38 1.77-0.78 2.42-1.32 4.05-2.77 5.98-4.72 0.62-0.61 1.23-1.21 1.86-1.84 1.61-1.55 1.61-1.55 1.39-3.66 0.99-0.33 1.98-0.66 3-1v-2c0.88-0.38 0.88-0.38 1.77-0.78 2.42-1.32 4.05-2.77 5.98-4.72 0.62-0.61 1.23-1.21 1.86-1.84 1.61-1.55 1.61-1.55 1.39-3.66 0.99-0.33 1.98-0.66 3-1v-2c0.58-0.25 1.16-0.49 1.75-0.75 2.58-1.43 4.32-3.03 6.25-5.25v-2c0.99-0.33 1.98-0.66 3-1v-2c0.99-0.33 1.98-0.66 3-1v-2c0.64-0.27 1.28-0.53 1.94-0.81 2.4-1.07 2.4-1.07 3.06-4.19 0.99-0.33 1.98-0.66 3-1v-2c0.99-0.33 1.98-0.66 3-1v-2c0.57-0.24 1.13-0.48 1.71-0.73 2.76-1.53 4.75-3.41 7.04-5.58 6.56-5.98 12.8-9.92 21.2-12.7 0.92-0.34 1.84-0.69 2.79-1.04 3.59-1.07 6.85-1.37 10.6-1.58 1.87-0.11 1.87-0.11 3.77-0.23 0.94-0.05 1.89-0.1 2.85-0.15v2l11 1v2c3.81 2.2 3.81 2.2 8 3v2c3.64 2.96 3.64 2.96 8 4l1 3h2v2c1.65 1.36 3.32 2.69 5 4l1 2h3c0.25 0.58 0.51 1.16 0.76 1.76 1.41 2.54 3.02 4.18 5.12 6.18 2.37 2.29 4.45 4.47 6.5 7.06 0.54 0.66 1.07 1.32 1.62 2h2l1 3h2v2c0.71 0.56 1.41 1.12 2.13 1.69 2.34 1.88 3.99 3.53 5.87 5.81 2.43 2.92 5.02 5.15 8 7.5 0.62 0.79 1.24 1.57 1.88 2.38 1.8 2.22 3.44 3.81 5.62 5.62 2.92 2.43 5.21 4.97 7.5 8 1.52 1.78 1.52 1.78 3 3h2v2c1.67 1.34 3.33 2.67 5 4 0.73 0.91 1.45 1.82 2.19 2.75 0.6 0.74 1.2 1.49 1.81 2.25h2l1 3h2v2c1.65 1.36 3.32 2.69 5 4l1 2h2l1 3h2v2c1.67 1.34 3.33 2.67 5 4 0.73 0.91 1.45 1.82 2.19 2.75 0.6 0.74 1.2 1.49 1.81 2.25h2l1 3h2v2c1.65 1.36 3.32 2.69 5 4l1 2h2l1 3h2v2c1.67 1.34 3.33 2.67 5 4 0.73 0.91 1.45 1.82 2.19 2.75 0.6 0.74 1.2 1.49 1.81 2.25h2l1 3h2v2c1.65 1.36 3.32 2.69 5 4l1 2h2l1 3h2l1 3h2v2c1.34 1.67 1.34 1.67 3 3h2l1 3h2l1 3h2l1 3h2v2h2l1 3h2l1 3h2l1 3h2v2c1.65 1.36 3.32 2.69 5 4l1 2h2l1 3h2l1 3h2v2h2c0.25 0.57 0.5 1.15 0.75 1.74 1.45 2.61 3.14 4.41 5.25 6.51 0.71 0.71 1.41 1.42 2.13 2.14 1.72 1.83 1.72 1.83 3.87 1.61v-162h14c0.03 31 0.05 62.1 0.06 93.1v11 2.22c0 11.8 0.01 23.6 0.02 35.4 0.01 12.1 0.02 24.3 0.02 36.4 0 6.8 0 13.6 0.01 20.4 0.01 6.42 0.01 12.8 0.01 19.3v7.02c0.02 11.9-0.1 23.8-0.54 35.7-0.03 1.02-0.07 2.05-0.1 3.11-0.32 7.71-1.33 14.9-3.48 22.3-0.19 0.75-0.38 1.5-0.58 2.28-1.93 6.72-5.39 12.9-8.58 19-1.44 2.84-2.72 5.69-3.84 8.67h-2l-1 4h-2c-1.48 1.69-1.48 1.69-2.93 3.81-1.5 2.11-2.9 4.03-4.76 5.83-1.54 1.29-1.54 1.29-1.31 3.36-0.59 0.29-1.19 0.58-1.81 0.88-2.38 1.17-2.38 1.17-5.19 3.12v2l-6 3v2c-0.74 0.29-1.48 0.58-2.25 0.88-2.31 0.95-4.52 1.97-6.75 3.12v2h-2l2 5h3c0.25 0.56 0.5 1.12 0.75 1.69 2.84 5.25 6.87 8.85 11.4 12.7 1.89 1.65 1.89 1.65 4.27 4.09 1.49 1.79 1.49 1.79 3.62 1.56v2c1.46 1.48 1.46 1.48 3.32 2.94 1.88 1.54 3.59 2.95 5.17 4.82 1.44 1.46 1.44 1.46 3.44 1.15 2.53-1.11 4.18-2.53 6.2-4.41 3.71-3.42 3.71-3.42 5.87-4.5v-2c0.99-0.33 1.98-0.66 3-1v-2c0.58-0.25 1.16-0.49 1.75-0.75 2.58-1.43 4.32-3.03 6.25-5.25v-2c0.99-0.33 1.98-0.66 3-1v-2c0.99-0.33 1.98-0.66 3-1v-2h2c1.29-1.4 1.29-1.4 2.54-3.26 0.5-0.7 0.99-1.4 1.5-2.12 0.53-0.76 1.05-1.52 1.59-2.31 0.53-0.76 1.07-1.53 1.62-2.32 8.51-10.8 8.51-10.8 12.8-23h2c0.68-1.77 1.34-3.54 2-5.31 0.38-0.99 0.75-1.97 1.13-2.99 1.03-2.7 1.03-2.7 0.87-5.7h2c0.25-1.03 0.5-2.06 0.75-3.12 0.99-3.98 2.15-7.89 3.32-11.8 1.57-5.41 2.47-10.4 2.93-16.1l1-2c1-7.75 1.15-15.5 1.13-23.3 0-1.09 0-2.17 0.01-3.28 0-3.61 0-7.21-0.01-10.8 0-2.61 0-5.23 0.01-7.85v-17c-0.01-8.45 0-16.9 0-25.4v-45.3-39.6-2.66-10.7c0-33.4 0-66.7-0.01-100 0-29.6 0-59.3 0.01-88.9v-99.9-10.7-2.65-39.6-45c-0.01-8.4-0.01-16.8 0-25.2 0-6.27 0-12.5-0.01-18.8 0-2.54 0-5.08 0.01-7.61 0-3.45 0-6.9-0.01-10.4 0-0.98 0.01-1.97 0.01-2.98 0.42-10.9 0.42-10.9-2.14-21.2-0.27-1.87-0.51-3.75-0.75-5.62-1.51-10.2-4.32-20.5-9.29-29.5-1.12-2.16-1.97-4.37-2.83-6.65-2.21-5.67-5.11-10.9-8.13-16.2h-2l-1-5h-2c-0.17-0.87-0.17-0.87-0.34-1.76-0.7-2.4-1.64-3.97-3.09-5.99-0.43-0.61-0.87-1.22-1.31-1.86-0.62-0.69-0.62-0.69-1.26-1.39h-2l-1-3h-2l-3-6h-2l-1-3h-2l-1-3h-2v-2c-1.27-1.68-1.27-1.68-3-3h-3v-2c-1.65-1.48-1.65-1.48-3.75-2.94-0.69-0.5-1.39-1-2.1-1.52-0.71-0.51-1.42-1.02-2.15-1.54-1.05-0.83-1.05-0.83-2.14-1.69-1.75-1.5-1.75-1.5-3.86-1.31v-2c-2.47-0.49-2.47-0.49-5-1v-2c-1.76-1.01-3.53-2-5.31-3-0.98-0.55-1.97-1.11-2.99-1.69-2.64-1.53-2.64-1.53-5.7-1.31v-2c-1.98-0.33-3.96-0.66-6-1v-2c-16.8-6.13-33.3-11.7-51.3-12.6-0.85-0.03-1.69-0.07-2.56-0.12-14-0.59-27.9-0.69-41.9-0.85-2.66-0.03-5.32-0.06-7.98-0.1-49.3-0.57-98.6-0.53-148-0.51h-29-2.12-8.54c-26.4-0.01-52.9 0-79.3 0-23.1 0.01-46.3 0.01-69.4 0-26.4 0-52.7-0.01-79 0h-8.55-2.13-30.8c-56.8-0.02-114 0.1-170 0.53zm-170 34.2c-1.4 1.39-1.4 1.39-1.19 3.44l-6 3v2c-0.56 0.24-1.13 0.49-1.71 0.74-7.44 4.12-13.2 12.1-18.4 18.7-0.49 0.6-0.97 1.21-1.47 1.83-2.78 3.45-2.78 3.45-3.41 7.73h-2c-4.36 5.48-9 11.9-9 19h-2c-0.49 2.97-0.49 2.97-1 6h-2c-14.6 41.4-13.2 81-13.1 124 0 7.21 0 14.4-0.01 21.6-0.01 15-0.01 29.9-0.01 44.8 0 11.6 0 23.1-0.01 34.7v10 2.52c-0.01 23.3-0.01 46.6-0.01 70v2.66 13.3 2.68 5.35c0 27.8-0.01 55.5-0.02 83.3-0.02 31.3-0.02 62.5-0.02 93.8v10 2.49c0 13.2-0.01 26.3-0.02 39.5-0.01 13.2-0.01 26.5 0 39.8 0 7.16 0 14.3-0.01 21.5-0.18 33.7-0.18 33.7 1.08 67.3 0.07 1.1 0.14 2.2 0.21 3.34 0.84 10.6 3.35 20.8 6.96 30.8 0.43 1.21 0.86 2.42 1.31 3.67 1.22 3.44 2.46 6.89 3.69 10.3h2c0.09 0.85 0.17 1.69 0.26 2.56 0.86 3.98 2.54 7.06 4.62 10.5 0.53 0.9 0.53 0.9 1.07 1.82 1.01 1.71 2.03 3.42 3.05 5.12 0.54 0.97 1.08 1.94 1.64 2.94 0.67 1.02 0.67 1.02 1.36 2.06h2c0.12 0.59 0.24 1.18 0.36 1.78 1.54 5.31 5.76 9.46 9.64 13.2 1.06 1.36 1.06 1.36 2.13 2.75 0.62 0.74 1.24 1.49 1.87 2.25h2c0.5 1.49 0.5 1.49 1 3h2c0.5 1.49 0.5 1.49 1 3h2v2c2.64 2.4 2.64 2.4 6 3 0.5 1.49 0.5 1.49 1 3h2v2c3.64 2.96 3.64 2.96 8 4v2c2.91 2.04 4.41 3 8 3v2c1.77 1.01 3.54 2.01 5.32 3 0.98 0.56 1.97 1.12 2.99 1.69 2.64 1.53 2.64 1.53 5.69 1.31v2c1.58 0.68 3.17 1.34 4.75 2 0.89 0.37 1.77 0.74 2.68 1.13 2.75 1.09 2.75 1.09 6.57 0.87v2c0.95 0.27 1.89 0.53 2.86 0.81 1.24 0.35 2.49 0.7 3.77 1.07 1.84 0.52 1.84 0.52 3.73 1.05 2.28 0.67 4.56 1.39 6.81 2.17 2.61 0.83 4.87 1.24 7.58 1.46 4.05 0.34 4.05 0.34 6.25 1.44 7.66 1.25 15.4 1.14 23.2 1.13h3.95c3.6 0.01 7.2 0 10.8 0h11.8c6.88 0.01 13.8 0.01 20.6 0.01 10.2-0.01 20.4-0.01 30.7 0h54.8c16 0 32-0.01 48 0h3.21 12.9c40.4 0 80.7 0 121-0.01h108c40.3 0.01 80.6 0.01 121 0.01h12.9 3.21c16-0.01 31.9 0 47.9 0h54.5c10.2-0.01 20.3-0.01 30.5 0 6.78 0 13.6 0 20.4-0.01h11.6c4.16 0.01 8.33 0 12.5 0 1.2 0 2.4 0 3.64 0.01 14.6-0.04 27.9-2.64 42-6.14 1.63-0.39 1.63-0.39 3.29-0.79 1.54-0.38 1.54-0.38 3.12-0.77 0.93-0.23 1.86-0.46 2.82-0.69 2.44-0.61 2.44-0.61 4.27-2.75-0.17-4.16-2.94-6.21-5.81-8.94-2.66-2.54-5.12-4.97-7.38-7.87-0.6-0.72-1.19-1.45-1.81-2.19h-2l-1-3h-2l-1-3h-2v-3c-1.5-1.61-1.5-1.61-3.43-3.06-3.47-2.76-3.47-2.76-4.57-4.94h-3l-1-3c-6.42-1.19-12.7-1.03-19.2-0.88-2.52 0.05-5.05 0.1-7.57 0.14-1.35 0.03-2.7 0.06-4.05 0.09-7.27 0.15-14.5 0.27-21.8 0.39-0.75 0.01-1.51 0.02-2.29 0.03-16.7 0.27-33.4 0.35-50.2 0.36h-2.19c-9.17 0.01-18.3 0.01-27.5 0-8.41 0-16.8 0-25.2 0.01h-49.3c-14.4 0-28.7-0.01-43 0h-2.91-11.7c-36.3 0-72.7 0-109-0.01h-96.7c-36.4 0.01-72.7 0.01-109 0.01h-11.6-2.89c-14.4-0.01-28.7 0-43.1 0h-48.9c-9.11-0.01-18.2-0.01-27.3 0-6.09 0-12.2 0-18.3-0.01h-10.4c-35.4 0.03-35.4 0.03-44.7-3.13-1.55-0.37-1.55-0.37-3.14-0.75-9.56-2.4-17.6-6.48-26.1-11.4-1.91-0.93-3.72-1.43-5.8-1.88v-2c-2.08-1.64-2.08-1.64-4.68-3.31-5.77-3.93-10-8.23-14.3-13.7-1.52-1.77-1.52-1.77-3-3h-2c-0.28-0.76-0.57-1.52-0.87-2.31-1.09-2.84-1.09-2.84-3.13-5.69h-2l-1-5h-2c-0.1-0.7-0.21-1.41-0.32-2.13-0.76-3.24-2.01-5.79-3.55-8.74-0.54-1.06-1.08-2.12-1.64-3.21-0.49-0.97-0.98-1.93-1.49-2.92-9.62-20-8.29-44-8.25-65.6 0-2.52 0-5.04-0.01-7.57-0.01-5.45-0.01-10.9 0-16.3 0.01-8.11 0-16.2 0-24.3-0.01-14.5-0.01-29-0.01-43.4 0.01-12.7 0.01-25.3 0.01-38v-2.55c0-3.42 0-6.84-0.01-10.3 0-32 0-64.1 0.02-96.2 0-28.4 0-56.9-0.01-85.3-0.01-32-0.01-64 0-96v-10.2-2.55c0-12.7 0-25.3-0.01-38 0-14.4 0-28.8 0.01-43.2 0-8.05 0.01-16.1 0-24.2-0.01-6.02 0-12 0.01-18.1 0-2.42 0-4.85-0.01-7.27-0.02-11.3 0.12-22.5 1.16-33.8 0.07-0.87 0.15-1.73 0.23-2.62 0.44-4.23 1.17-7.66 2.87-11.6 0.08-2.33 0.1-4.67 0-7h2c0.21-0.64 0.42-1.28 0.63-1.95 2.33-6.82 5.33-12.9 8.89-19.2 1.23-2.36 2.01-4.25 2.48-6.85h2c2.97-3.63 2.97-3.63 4-8h2c2.4-2.63 2.4-2.63 3-6 0.99-0.33 1.98-0.66 3-1v-2h2v-2c0.58-0.26 1.15-0.53 1.75-0.81 2.33-1.23 4.29-2.64 6.38-4.25 3.68-2.84 3.68-2.84 5.87-3.94v-2l6-3-1-5h-2c-0.49-1.48-0.49-1.48-1-3h-2v-2c-1.65-1.35-3.31-2.68-5-4-0.49-0.99-0.49-0.99-1-2h-2c-0.49-1.48-0.49-1.48-1-3h-2c-0.49-1.48-0.49-1.48-1-3h-2c-0.4-0.96-0.4-0.96-0.81-1.94-1.07-2.39-1.07-2.39-4.19-3.06-0.49-1.48-0.49-1.48-1-3h-2c-0.49-1.48-0.49-1.48-1-3-5.24-4.72-8.88-2.69-13.8 1.56zm45.8 46.4v2h-3v2c-0.58 0.27-1.16 0.54-1.76 0.81-7.18 3.83-13.3 10.8-18.2 17.2v2h-2v3h-2c-1.17 2.1-2.33 4.21-3.5 6.31-0.33 0.6-0.66 1.19-1.01 1.81-1.55 2.84-2.49 4.59-2.49 7.88h-2c-3.63 9.01-6.08 17.8-6.57 27.6-0.04 0.8-0.08 1.6-0.12 2.43-0.63 14.6-0.48 29.2-0.51 43.8 0 4.72-0.02 9.45-0.03 14.2-0.02 8.16-0.04 16.3-0.06 24.5-0.02 11.8-0.05 23.6-0.08 35.4-0.04 19.2-0.09 38.3-0.13 57.4-0.04 18.6-0.08 37.2-0.12 55.8-0.01 1.15-0.01 2.3-0.01 3.48-0.01 5.76-0.03 11.5-0.04 17.3-0.12 47.7-0.22 95.4-0.33 143l4 1 1-3c1.32-0.7 2.66-1.36 4-2 1.96-1.64 1.96-1.64 3.75-3.5 0.62-0.61 1.23-1.21 1.86-1.84 1.61-1.55 1.61-1.55 1.39-3.66 0.99-0.33 1.98-0.66 3-1v-2c0.99-0.33 1.98-0.66 3-1v-2c0.99-0.33 1.98-0.66 3-1v-2h2c1.67-1.33 1.67-1.33 3-3v-2c0.99-0.33 1.98-0.66 3-1v-2c0.99-0.33 1.98-0.66 3-1v-2h2c1.67-1.33 1.67-1.33 3-3v-2c0.99-0.33 1.98-0.66 3-1v-2c0.99-0.33 1.98-0.66 3-1v-2c0.99-0.33 1.98-0.66 3-1v-2h2c1.67-1.33 1.67-1.33 3-3v-2c0.99-0.33 1.98-0.66 3-1v-2c0.99-0.33 1.98-0.66 3-1v-2h2c1.67-1.33 1.67-1.33 3-3v-2c0.99-0.33 1.98-0.66 3-1v-2c0.99-0.33 1.98-0.66 3-1v-2c0.99-0.33 1.98-0.66 3-1v-2h2c1.67-1.33 1.67-1.33 3-3v-2c0.99-0.33 1.98-0.66 3-1v-2c0.99-0.33 1.98-0.66 3-1v-2h2c1.36-1.65 2.69-3.32 4-5l2-1v-2h2c1.34-1.66 2.68-3.33 4-5 0.91-0.72 1.82-1.44 2.75-2.19 0.75-0.59 1.49-1.19 2.25-1.81v-2c0.99-0.33 1.98-0.66 3-1v-2h2c1.34-1.66 2.68-3.33 4-5 0.91-0.72 1.82-1.44 2.75-2.19 0.75-0.59 1.49-1.19 2.25-1.81v-2h2c1.34-1.66 2.68-3.33 4-5 0.91-0.72 1.82-1.44 2.75-2.19 0.75-0.59 1.49-1.19 2.25-1.81v-2c0.99-0.33 1.98-0.66 3-1 1.49-1.5 1.49-1.5 2.88-3.31 2.47-3 5.08-5.25 8.12-7.69 1.02-1.15 2.02-2.32 3-3.5 2.43-2.92 5.03-5.12 8-7.5 1.56-1.72 3.05-3.49 4.53-5.27 2.87-3.36 6.1-6.37 9.29-9.42 2.41-2.02 2.41-2.02 2.18-4.31 0.62-0.25 1.24-0.49 1.88-0.75 2.26-1.07 2.26-1.07 3.12-3.25 1.29-2.56 2.43-2.82 5-4 2.74-1.92 2.74-1.92 5-4v-2c0.72-0.27 1.43-0.53 2.16-0.81 2.92-1.22 5.59-2.64 8.34-4.19 10.8-6.07 21.3-6.25 33.5-6v2c1 0.3 1 0.3 2.02 0.6 10.9 3.52 19.9 9.93 27 19 1.91 2.51 1.91 2.51 4.38 4.32 2.79 2.26 4.86 4.71 7.15 7.46 1.94 2.18 4.19 3.86 6.47 5.66 0.73 0.91 1.45 1.82 2.19 2.75 0.6 0.74 1.2 1.49 1.81 2.25h2l1 3h2v2c1.65 1.36 3.32 2.69 5 4l1 2h2l1 3h2v2c1.67 1.34 3.33 2.67 5 4 0.73 0.91 1.45 1.82 2.19 2.75 0.6 0.74 1.2 1.49 1.81 2.25h2v2c1.67 1.34 3.33 2.67 5 4 0.62 0.79 1.24 1.57 1.88 2.38 1.8 2.22 3.44 3.81 5.62 5.62 2.92 2.43 5.21 4.97 7.5 8 1.52 1.78 1.52 1.78 3 3h2v2c1.67 1.34 3.33 2.67 5 4 0.62 0.79 1.24 1.57 1.88 2.38 1.8 2.22 3.44 3.81 5.62 5.62 2.92 2.43 5.21 4.97 7.5 8 1.52 1.78 1.52 1.78 3 3h2v2c1.67 1.34 3.33 2.67 5 4 0.62 0.79 1.24 1.57 1.88 2.38 1.8 2.22 3.44 3.81 5.62 5.62 2.92 2.43 5.21 4.97 7.5 8 1.52 1.78 1.52 1.78 3 3h2v2c1.67 1.34 3.33 2.67 5 4 0.62 0.79 1.24 1.57 1.88 2.38 1.8 2.22 3.44 3.81 5.62 5.62 2.92 2.43 5.21 4.97 7.5 8 1.52 1.78 1.52 1.78 3 3h2v2c1.67 1.34 3.33 2.67 5 4 0.62 0.79 1.24 1.57 1.88 2.38 1.8 2.22 3.44 3.81 5.62 5.62 2.93 2.43 5.13 5.03 7.5 8 1.15 1.02 2.32 2.02 3.5 3 2.93 2.43 5.13 5.03 7.5 8 1.15 1.02 2.32 2.02 3.5 3 2.11 1.75 3.72 3.28 5.44 5.44 1.87 2.32 3.68 4.02 5.94 5.94 3.24 2.76 5.93 5.65 8.62 8.93 2.1 2.36 4.48 4.28 6.91 6.29 2.16 1.9 3.81 4.14 5.59 6.4 1.66 1.35 3.32 2.69 5 4l1 2h2v2c1.67 1.34 3.33 2.67 5 4 1.09 1.36 1.09 1.36 2.19 2.75 0.6 0.74 1.2 1.49 1.81 2.25h2v2c1.67 1.34 3.33 2.67 5 4 1.37 1.65 2.7 3.31 4 5 1.52 1.78 1.52 1.78 3 3h2l1 3h2v2l5 1c0.4-0.48 0.8-0.96 1.21-1.46 0.53-0.63 1.06-1.26 1.61-1.91 0.52-0.63 1.04-1.26 1.58-1.9 1.6-1.73 1.6-1.73 4.6-3.73v-2h2v-3c0.88-0.38 0.88-0.38 1.77-0.78 2.42-1.32 4.05-2.77 5.98-4.72 0.62-0.61 1.23-1.21 1.86-1.84 1.61-1.55 1.61-1.55 1.39-3.66 0.99-0.33 1.98-0.66 3-1v-2c0.59-0.27 1.18-0.54 1.78-0.81 2.22-1.19 3.9-2.47 5.79-4.13 0.58-0.5 1.15-1 1.75-1.52 2.42-2.19 2.42-2.19 4.68-4.54v-2c0.99-0.33 1.98-0.66 3-1 2.34-2.78 2.34-2.78 1.63-5.69-0.21-0.76-0.41-1.52-0.63-2.31h-2c-0.26-0.64-0.53-1.28-0.81-1.94-1.07-2.39-1.07-2.39-4.19-3.06-0.3-0.64-0.61-1.28-0.93-1.94-1.32-2.54-2.55-2.84-5.07-4.06l-1-3h-2v-2h-2c-0.24-0.62-0.49-1.24-0.75-1.87-1.07-2.27-1.07-2.27-3.25-3.13-2.54-1.27-2.8-2.46-4-5-1.91-2.25-1.91-2.25-4-4h-2c-0.38-0.87-0.38-0.87-0.78-1.76-1.31-2.42-2.77-4.06-4.72-5.99-0.6-0.61-1.21-1.22-1.84-1.86-1.55-1.6-1.55-1.6-3.66-1.39-0.24-0.62-0.49-1.24-0.75-1.87-1.07-2.27-1.07-2.27-3.25-3.13-2.54-1.27-2.8-2.46-4-5-1.91-2.25-1.91-2.25-4-4h-2c-0.24-0.62-0.49-1.24-0.75-1.87-1.07-2.27-1.07-2.27-3.25-3.13-2.51-1.26-2.8-2.53-4-5-0.99-0.33-1.98-0.66-3-1-0.3-0.64-0.61-1.28-0.93-1.94-0.89-2.22-0.89-2.22-3.07-3.06-2-1-2-1-2.91-2.83-1.21-2.41-2.59-3.93-4.49-5.84-0.66-0.66-1.32-1.33-2.01-2.01-0.68-0.68-1.37-1.37-2.09-2.07-0.68-0.7-1.37-1.39-2.09-2.11l-2-2c-0.91-0.9-0.91-0.9-1.83-1.82-1.49-1.53-1.49-1.53-3.58-1.32-0.24-0.62-0.49-1.24-0.75-1.87-1.07-2.27-1.07-2.27-3.25-3.13-2-1-2-1-2.91-2.83-1.21-2.41-2.59-3.93-4.49-5.84-0.66-0.66-1.32-1.33-2.01-2.01-0.68-0.68-1.37-1.37-2.09-2.07-0.68-0.7-1.37-1.39-2.09-2.11l-2-2c-0.91-0.9-0.91-0.9-1.83-1.82-1.49-1.53-1.49-1.53-3.58-1.32-0.24-0.62-0.49-1.24-0.75-1.87-1.07-2.27-1.07-2.27-3.25-3.13-2-1-2-1-2.91-2.83-1.21-2.41-2.59-3.93-4.49-5.84-0.66-0.66-1.32-1.33-2.01-2.01-0.68-0.68-1.37-1.37-2.09-2.07-0.68-0.7-1.37-1.39-2.09-2.11l-2-2c-0.91-0.9-0.91-0.9-1.83-1.82-1.49-1.53-1.49-1.53-3.58-1.32-0.24-0.62-0.49-1.24-0.75-1.87-1.07-2.27-1.07-2.27-3.25-3.13-2-1-2-1-2.91-2.83-1.21-2.41-2.59-3.93-4.49-5.84-0.66-0.66-1.32-1.33-2.01-2.01-0.68-0.68-1.37-1.37-2.09-2.07-0.68-0.7-1.37-1.39-2.09-2.11l-2-2c-0.91-0.9-0.91-0.9-1.83-1.82-1.49-1.53-1.49-1.53-3.58-1.32-0.24-0.62-0.49-1.24-0.75-1.87-1.07-2.27-1.07-2.27-3.25-3.13-2-1-2-1-2.91-2.83-1.21-2.41-2.59-3.93-4.49-5.84-0.66-0.66-1.32-1.33-2.01-2.01-0.68-0.68-1.37-1.37-2.09-2.07-0.68-0.7-1.37-1.39-2.09-2.11l-2-2c-0.91-0.9-0.91-0.9-1.83-1.82-1.49-1.53-1.49-1.53-3.58-1.32-0.24-0.62-0.49-1.24-0.75-1.87-1.07-2.27-1.07-2.27-3.25-3.13-2-1-2-1-2.91-2.83-1.21-2.41-2.59-3.93-4.49-5.84-0.66-0.66-1.32-1.33-2.01-2.01-0.68-0.68-1.37-1.37-2.09-2.07-0.68-0.7-1.37-1.39-2.09-2.11l-2-2c-0.91-0.9-0.91-0.9-1.83-1.82-1.49-1.53-1.49-1.53-3.58-1.32-0.24-0.62-0.49-1.24-0.75-1.87-1.07-2.27-1.07-2.27-3.25-3.13-2-1-2-1-2.91-2.83-1.21-2.41-2.59-3.93-4.49-5.84-0.66-0.66-1.32-1.33-2.01-2.01-0.68-0.68-1.37-1.37-2.09-2.07-0.68-0.7-1.37-1.39-2.09-2.11l-2-2c-0.91-0.9-0.91-0.9-1.83-1.82-1.49-1.53-1.49-1.53-3.58-1.32-0.24-0.62-0.49-1.24-0.75-1.87-1.07-2.27-1.07-2.27-3.25-3.13-2-1-2-1-2.91-2.83-1.21-2.41-2.59-3.93-4.49-5.84-0.66-0.66-1.32-1.33-2.01-2.01-0.68-0.68-1.37-1.37-2.09-2.07-0.68-0.7-1.37-1.39-2.09-2.11l-2-2c-0.91-0.9-0.91-0.9-1.83-1.82-1.49-1.53-1.49-1.53-3.58-1.32-0.24-0.62-0.49-1.24-0.75-1.87-1.07-2.27-1.07-2.27-3.25-3.13-2-1-2-1-2.91-2.83-1.21-2.41-2.59-3.93-4.49-5.84-0.66-0.66-1.32-1.33-2.01-2.01-0.68-0.68-1.37-1.37-2.09-2.07-0.68-0.7-1.37-1.39-2.09-2.11l-2-2c-0.91-0.9-0.91-0.9-1.83-1.82-1.49-1.53-1.49-1.53-3.58-1.32-0.24-0.62-0.49-1.24-0.75-1.87-1.07-2.27-1.07-2.27-3.25-3.13-2-1-2-1-2.91-2.83-1.21-2.41-2.59-3.93-4.49-5.84-0.66-0.66-1.32-1.33-2.01-2.01-0.68-0.68-1.37-1.37-2.09-2.07-0.68-0.7-1.37-1.39-2.09-2.11l-2-2c-0.6-0.6-1.21-1.2-1.83-1.82-1.49-1.53-1.49-1.53-3.58-1.32-0.24-0.62-0.49-1.24-0.75-1.87-1.07-2.27-1.07-2.27-3.25-3.13-2-1-2-1-2.91-2.83-1.21-2.41-2.59-3.93-4.49-5.84-0.66-0.66-1.32-1.33-2.01-2.01-0.68-0.68-1.37-1.37-2.09-2.07-0.68-0.7-1.37-1.39-2.09-2.11l-2-2c-0.6-0.6-1.21-1.2-1.83-1.82-1.49-1.53-1.49-1.53-3.58-1.32-0.24-0.62-0.49-1.24-0.75-1.87-1.07-2.27-1.07-2.27-3.25-3.13-2-1-2-1-2.91-2.83-1.21-2.41-2.59-3.93-4.49-5.84-0.66-0.66-1.32-1.33-2.01-2.01-0.68-0.68-1.37-1.37-2.09-2.07-0.68-0.7-1.37-1.39-2.09-2.11l-2-2c-0.6-0.6-1.21-1.2-1.83-1.82-1.49-1.53-1.49-1.53-3.58-1.32-0.24-0.62-0.49-1.24-0.75-1.87-1.07-2.27-1.07-2.27-3.25-3.13-2-1-2-1-2.91-2.83-1.21-2.41-2.59-3.93-4.49-5.84-0.66-0.66-1.32-1.33-2.01-2.01-0.68-0.68-1.37-1.37-2.09-2.07-0.68-0.7-1.37-1.39-2.09-2.11l-2-2c-0.6-0.6-1.21-1.2-1.83-1.82-1.49-1.53-1.49-1.53-3.58-1.32-0.37-0.93-0.37-0.93-0.75-1.87-1.07-2.27-1.07-2.27-3.25-3.13-2-1-2-1-2.91-2.83-1.21-2.41-2.59-3.93-4.49-5.84-0.66-0.66-1.32-1.33-2.01-2.01-0.68-0.68-1.37-1.37-2.09-2.07-0.68-0.7-1.37-1.39-2.09-2.11l-2-2c-0.6-0.6-1.21-1.2-1.83-1.82-1.49-1.53-1.49-1.53-3.58-1.32-0.37-0.93-0.37-0.93-0.75-1.87-1.07-2.27-1.07-2.27-3.25-3.13-2.54-1.27-2.8-2.46-4-5-1.91-2.25-1.91-2.25-4-4h-2c-0.37-0.93-0.37-0.93-0.75-1.87-1.07-2.27-1.07-2.27-3.25-3.13-2.51-1.26-2.8-2.53-4-5-1.48-0.49-1.48-0.49-3-1-0.3-0.64-0.61-1.28-0.93-1.94-0.89-2.22-0.89-2.22-3.07-3.06-2.55-1.27-2.75-2.48-4-5-1.31-1.61-1.31-1.61-2.85-3.11-0.58-0.58-1.15-1.16-1.74-1.76-0.62-0.62-1.24-1.23-1.87-1.86-0.96-0.96-0.96-0.96-1.93-1.94-1.34-1.34-2.69-2.68-4.04-4.02-2.06-2.06-4.12-4.13-6.18-6.19-1.3-1.31-2.61-2.61-3.92-3.91-0.61-0.63-1.23-1.25-1.87-1.89-2.78-3.21-2.78-3.21-6.6-4.32-0.24-0.62-0.49-1.24-0.75-1.87-1.07-2.27-1.07-2.27-3.25-3.13-2.51-1.26-2.8-2.53-4-5-0.99-0.33-1.98-0.66-3-1-0.49-1.48-0.49-1.48-1-3h-2c-0.49-1.48-0.49-1.48-1-3h-2c-0.28-0.62-0.57-1.24-0.87-1.87-1.06-2.26-1.06-2.26-3.13-4.13-5.21-0.71-7.96 0.74-12 4zm155 294v2c-0.53 0.22-1.07 0.44-1.62 0.66-3.23 1.82-5.76 4.24-8.43 6.77-0.64 0.6-1.27 1.2-1.93 1.81-11.6 11-22.8 22.5-34.1 33.9-4.2 4.22-8.41 8.45-12.6 12.7-1.67 1.68-3.33 3.35-4.99 5.03-1.03 1.02-2.05 2.05-3.07 3.08-1.33 1.33-1.33 1.33-2.68 2.69-2.41 2.3-4.91 4.35-7.52 6.4-1.03 1.14-2.04 2.3-3 3.5-2.42 2.93-5.02 5.12-8 7.5-1.54 1.75-3.03 3.54-4.52 5.34-1.94 2.18-4.19 3.86-6.48 5.66-0.61 0.79-1.23 1.57-1.87 2.38-1.8 2.22-3.44 3.81-5.63 5.62-2.91 2.43-5.17 4.98-7.5 8-2.41 2.54-4.79 4.85-7.56 7-2.5 1.91-2.5 1.91-4.31 4.38-2.26 2.79-4.71 4.86-7.46 7.15-2.18 1.93-3.86 4.19-5.67 6.47-0.9 0.72-1.81 1.45-2.75 2.19-0.74 0.6-1.48 1.2-2.25 1.81v2h-2c-1.33 1.66-2.67 3.33-4 5-0.9 0.72-1.81 1.45-2.75 2.19-0.74 0.6-1.48 1.2-2.25 1.81v2c-0.99 0.33-1.98 0.66-3 1v2h-2c-1.35 1.65-2.68 3.32-4 5l-2 1v2c-0.99 0.33-1.98 0.66-3 1v2c-0.99 0.33-1.98 0.66-3 1v2h-2c-1.66 1.34-1.66 1.34-3 3v2c-0.99 0.33-1.98 0.66-3 1v2c-0.99 0.33-1.98 0.66-3 1v2c-0.99 0.33-1.98 0.66-3 1v2h-2v2c-0.99 0.33-1.98 0.66-3 1v2l-6 3c-2.05 9.35-1.14 19.7-1.12 29.2-0.01 1.83-0.01 3.65-0.01 5.48v14.8 15.6 26.1c0.01 10 0.01 20 0 30.1v25.9 15.4 14.5 5.3c-0.01 8.78 0.11 17.5 0.58 26.3 0.04 0.73 0.08 1.45 0.12 2.2 0.86 14.5 5.34 28.4 13.4 40.5 1.01 1.52 1.01 1.52 2.01 3.52h2v3h2c0.26 0.57 0.51 1.14 0.77 1.72 3.2 5.9 8.7 11.5 14.2 15.3h2v2c2.25 1.64 4.47 3.15 6.82 4.63 0.64 0.42 1.28 0.84 1.94 1.27 3.82 2.49 3.82 2.49 8.24 3.1v2c2.55 0.96 5.09 1.92 7.63 2.88 1.07 0.4 1.07 0.4 2.16 0.81 1.42 0.54 2.83 1.06 4.25 1.59 1.65 0.61 3.29 1.23 4.93 1.86 7.52 2.14 15.4 2.01 23.1 1.99h3.3c3.65 0 7.3 0 11-0.01 2.64 0 5.28 0 7.93 0.01 5.74 0 11.5 0 17.2-0.01h25.6c14.4 0 28.8-0.01 43.1-0.01 14.2-0.01 28.5-0.01 42.7-0.01h2.69 13.5c31.8-0.01 63.7-0.01 95.5-0.02 30.9-0.01 61.9-0.02 92.8-0.02h2.89c9.57 0 19.2-0.01 28.7-0.01 19.5 0 39 0 58.5-0.01h2.71c59.9 0 120-0.02 180-0.04-0.8-4.27-2.56-5.36-6-8-0.72-0.91-1.44-1.81-2.18-2.75-0.9-1.11-0.9-1.11-1.82-2.25h-2l-1-3h-2c-0.22-0.55-0.45-1.1-0.68-1.67-1.7-3.01-3.86-5.14-6.32-7.58-0.88-0.89-1.77-1.78-2.68-2.7-2.05-2.27-2.05-2.27-4.32-2.05l-1-3h-2v-2c-1.65-1.35-3.31-2.68-5-4l-1-2h-2l-1-3h-2v-2c-1.66-1.34-3.32-2.67-5-4-0.72-0.91-1.44-1.81-2.18-2.75-0.9-1.11-0.9-1.11-1.82-2.25h-2l-1-3h-2v-2c-1.33-1.66-1.33-1.66-3-3h-2l-1-3h-2l-1-3h-2l-1-3h-2v-2c-1.65-1.35-3.31-2.68-5-4l-1-2h-2l-1-3h-2v-2c-1.33-1.66-1.33-1.66-3-3h-2l-1-3h-2l-1-3h-2l-1-3h-2v-2c-3.44-3.82-3.44-3.82-8-6-0.66-1.33-1.33-2.66-2-4-3.2-3.54-3.2-3.54-7.18-6.06-2.36-1.22-2.65-2.61-3.82-4.94-2.03-1.27-2.03-1.27-4-2v-2c-3.44-3.82-3.44-3.82-8-6-0.66-1.33-1.33-2.66-2-4-3.2-3.54-3.2-3.54-7.18-6.06-2.36-1.22-2.65-2.61-3.82-4.94-2.03-1.27-2.03-1.27-4-2v-2c-3.44-3.82-3.44-3.82-8-6l-1-3h-2v-2c-1.33-1.66-1.33-1.66-3-3h-2l-1-3h-2l-1-3h-2l-1-3h-2v-2c-1.61-1.71-3.29-3.37-5-5-1.06-1.1-2.12-2.21-3.18-3.31-2.41-2.92-2.41-2.92-4.82-2.69-0.2-0.53-0.41-1.06-0.62-1.6-1.95-3.4-4.65-5.96-7.41-8.69-0.59-0.6-1.18-1.19-1.79-1.8l-3.75-3.75c-1.93-1.91-3.84-3.83-5.75-5.76-1.21-1.21-2.43-2.42-3.64-3.63-0.86-0.87-0.86-0.87-1.74-1.75-2.66-3.03-2.66-3.03-6.3-4.02l-1-3h-2l-1-3h-2l-1-3h-2c-0.24-0.58-0.49-1.15-0.75-1.75-1.43-2.58-3.03-4.31-5.25-6.25h-2v-2c-1.33-1.66-1.33-1.66-3-3h-2l-1-3h-2c-0.24-0.62-0.49-1.24-0.75-1.87-1.07-2.27-1.07-2.27-3.25-3.13-2-1-2-1-2.84-2.76-1.47-2.85-3.39-4.73-5.66-6.99-0.79-0.8-1.58-1.6-2.4-2.42-1.88-2.05-1.88-2.05-4.1-1.83-0.24-0.62-0.49-1.24-0.75-1.87-1.07-2.27-1.07-2.27-3.25-3.13-2.52-1.26-2.76-2.53-4-5-2.03-1.27-2.03-1.27-4-2v-2c-3.44-3.82-3.44-3.82-8-6-0.68-1.32-1.34-2.66-2-4-1.91-2.25-1.91-2.25-4-4h-2l-1-3h-2l-1-3h-2l-1-3h-2v-2c-3.44-3.82-3.44-3.82-8-6-0.66-1.33-1.33-2.66-2-4-3.2-3.54-3.2-3.54-7.18-6.06-2.36-1.22-2.65-2.61-3.82-4.94-1.32-0.68-2.65-1.35-4-2l-1-3h-2c-0.25-0.59-0.5-1.18-0.75-1.78-1.41-2.51-2.9-3.84-5.12-5.66-3.13-2.62-5.59-5.34-8.13-8.56h-2c-0.24-0.62-0.49-1.24-0.75-1.87-1.45-2.48-2.62-3.08-5.25-4.13v-2c-3.44-3.82-3.44-3.82-8-6-0.66-1.33-1.33-2.66-2-4-3.2-3.54-3.2-3.54-7.18-6.06-2.36-1.22-2.65-2.61-3.82-4.94-2.03-1.27-2.03-1.27-4-2v-2c-3.44-3.82-3.44-3.82-8-6-0.68-1.32-1.34-2.66-2-4-1.91-2.25-1.91-2.25-4-4h-2l-1-3h-2c-0.37-0.93-0.37-0.93-0.75-1.87-1.45-2.48-2.62-3.08-5.25-4.13v-2c-3.44-3.82-3.44-3.82-8-6-0.66-1.33-1.33-2.66-2-4-0.99-0.33-1.98-0.66-3-1-0.46-0.96-0.46-0.96-0.93-1.94-0.89-2.22-0.89-2.22-3.07-3.06-2.52-1.26-2.76-2.53-4-5l-2-1c-2-1-2-1-2.84-2.76-1.47-2.85-3.39-4.73-5.66-6.99-0.79-0.8-1.58-1.6-2.4-2.42-1.88-2.05-1.88-2.05-4.1-1.83-0.24-0.56-0.48-1.13-0.73-1.71-1.51-2.73-3.31-4.6-5.51-6.82-0.88-0.89-1.76-1.78-2.66-2.7-0.97-0.97-1.93-1.94-2.9-2.9-0.99-1.01-1.99-2.01-2.99-3.02-2.09-2.1-4.19-4.21-6.3-6.31-2.66-2.66-5.3-5.33-7.95-8.01-2.06-2.09-4.13-4.16-6.2-6.23-0.98-0.98-1.95-1.96-2.92-2.95-9.37-9.5-21.2-21.1-35.3-21.7-6.61 0.24-13.2 2.42-18.6 6.37zm478 114v2c-0.81 0.09-0.81 0.09-1.64 0.17-3.42 1.21-5.54 3.61-8.04 6.15-0.56 0.55-1.11 1.1-1.69 1.67-1.83 1.83-3.66 3.67-5.48 5.51-1.28 1.27-2.55 2.54-3.82 3.81-2.67 2.67-5.32 5.34-7.98 8.01-3.41 3.43-6.83 6.86-10.3 10.3-2.62 2.63-5.25 5.26-7.87 7.89-1.26 1.26-2.52 2.52-3.78 3.79-1.76 1.75-3.51 3.52-5.27 5.29l-1.59 1.59c-2.75 2.46-2.75 2.46-3.58 5.85-0.57 0.25-1.14 0.49-1.72 0.74-2.67 1.48-4.46 3.22-6.6 5.4-0.8 0.8-1.6 1.61-2.43 2.44-0.82 0.84-1.65 1.68-2.5 2.55-0.84 0.85-1.68 1.7-2.54 2.57-2.07 2.1-4.14 4.2-6.21 6.3l0.94 1.88c0.69 1.37 1.38 2.75 2.06 4.12h3c0.26 0.59 0.52 1.17 0.79 1.77 1.31 2.41 2.77 4.05 4.71 5.98 0.61 0.62 1.22 1.23 1.85 1.86 1.55 1.61 1.55 1.61 3.65 1.39l1 3h2v2h2l1 3h2l1 3h2v2c1.67 1.34 3.33 2.67 5 4 0.73 0.91 1.45 1.82 2.19 2.75 0.9 1.12 0.9 1.12 1.81 2.25h2v2c1.67 1.34 3.33 2.67 5 4 1.37 1.65 2.7 3.31 4 5 1.52 1.78 1.52 1.78 3 3h2v2c1.67 1.34 3.33 2.67 5 4 0.73 0.91 1.45 1.82 2.19 2.75 0.9 1.12 0.9 1.12 1.81 2.25h2l1 3h2v2c1.65 1.36 3.32 2.69 5 4l1 2h2l1 3h2l1 3h2v2c1.65 1.36 3.32 2.69 5 4l1 2h2l1 3h2v2c1.65 1.36 3.32 2.69 5 4l1 2h2l1 3h2l1 3h2v2c1.65 1.36 3.32 2.69 5 4l1 2h2l1 3h2v2c1.34 1.67 1.34 1.67 3 3h2l1 3h2l1 3h2l1 3h2v2c1.65 1.36 3.32 2.69 5 4l1 2h2l1 3h2v2c1.65 1.36 3.32 2.69 5 4l1 2h2l1 3h2l1 3h2v2c1.65 1.36 3.32 2.69 5 4l1 2h2l1 3h2v2c1.65 1.36 3.32 2.69 5 4l1 2h2l1 3h2l1 3h2v2c1.65 1.36 3.32 2.69 5 4l1 2h2l1 3h2v2c1.34 1.67 1.34 1.67 3 3h2l1 3h2l1 3h2l1 3h2v2c1.34 1.67 1.34 1.67 3 3h2l1 3h2l1 3h2l1 3h2v2h2l1 3h2l1 3h2l1 3h2l1 3h2v2h2l1 3h2l1 3h2v2c1.34 1.67 1.34 1.67 3 3h2l1 3h2l1 3h2l1 3h2v2c1.65 1.36 3.32 2.69 5 4l1 2h2l1 3h2v2c1.34 1.67 1.34 1.67 3 3h2l1 3c1.8 1.82 1.8 1.82 3.94 3.56 2.1 1.77 4.12 3.5 6.06 5.44 3.1-0.32 3.1-0.32 6-1v-2c1.15-0.43 1.15-0.43 2.32-0.87 2.84-1.09 2.84-1.09 5.68-3.13v-2h3v-2c0.99-0.33 1.98-0.66 3-1v-2c0.88-0.38 0.88-0.38 1.77-0.78 2.42-1.32 4.05-2.77 5.98-4.72 0.62-0.61 1.23-1.21 1.86-1.84 1.61-1.55 1.61-1.55 1.39-3.66h2v-3h2c1.83-2.37 1.83-2.37 3.63-5.31 0.63-0.99 1.26-1.97 1.91-2.99 1.7-2.63 1.7-2.63 1.46-5.7h2c0.97-2.66 1.93-5.33 2.88-8 0.27-0.74 0.54-1.49 0.82-2.25 5.12-14.4 5.46-28.2 5.44-43.4v-5.05-10.5c-0.01-4.49-0.01-8.99 0-13.5v-10.4-4.98c0-2.3 0-4.61-0.01-6.92v-3.98c0.09-2.96 0.09-2.96-1.13-5.05h-2c-0.27-0.59-0.55-1.18-0.83-1.79-3.13-5.94-8.28-10.3-13.3-14.6-1.83-1.58-1.83-1.58-4.2-4.02-1.49-1.79-1.49-1.79-3.63-1.56-0.25-0.58-0.51-1.16-0.78-1.76-1.31-2.42-2.77-4.06-4.72-5.99-0.6-0.61-1.21-1.22-1.84-1.86-1.55-1.6-1.55-1.6-3.66-1.39l-1-3h-2c-0.24-0.58-0.49-1.15-0.75-1.75-1.43-2.58-3.03-4.31-5.25-6.25h-2l-1-3h-2l-1-3h-2c-0.24-0.58-0.49-1.15-0.75-1.75-1.43-2.58-3.03-4.31-5.25-6.25h-2l-1-3h-2c-0.24-0.58-0.49-1.15-0.75-1.75-1.43-2.58-3.03-4.31-5.25-6.25h-2l-1-3h-2l-1-3h-2c-0.4-0.96-0.4-0.96-0.81-1.94-1.07-2.39-1.07-2.39-4.19-3.06l-1-3h-2l-1-3h-2l-1-3h-2c-0.4-0.96-0.4-0.96-0.81-1.94-1.07-2.39-1.07-2.39-4.19-3.06l-1-3h-2l-1-3h-2c-0.4-0.96-0.4-0.96-0.81-1.94-1.07-2.39-1.07-2.39-4.19-3.06l-1-3h-2l-1-3h-2l-1-3h-2c-0.4-0.96-0.4-0.96-0.81-1.94-1.07-2.39-1.07-2.39-4.19-3.06l-1-3h-2l-1-3h-2c-0.4-0.96-0.4-0.96-0.81-1.94-1.07-2.39-1.07-2.39-4.19-3.06l-1-3h-2l-1-3h-2l-1-3h-2c-0.4-0.96-0.4-0.96-0.81-1.94-1.07-2.39-1.07-2.39-4.19-3.06l-1-3h-2l-1-3h-2c-0.4-0.96-0.4-0.96-0.81-1.94-1.07-2.39-1.07-2.39-4.19-3.06l-1-3h-2l-1-3h-2l-1-3h-2c-0.4-0.96-0.4-0.96-0.81-1.94-1.07-2.39-1.07-2.39-4.19-3.06l-1-3h-2l-1-3h-2c-0.4-0.96-0.4-0.96-0.81-1.94-1.07-2.39-1.07-2.39-4.19-3.06l-1-3h-2l-1-3h-2c-0.24-0.58-0.49-1.15-0.75-1.75-1.43-2.58-3.03-4.31-5.25-6.25h-2l-1-3h-2l-1-3h-2c-0.26-0.64-0.53-1.28-0.81-1.94-1.07-2.39-1.07-2.39-4.19-3.06-0.49-1.48-0.49-1.48-1-3h-2v-2c-2.2-1.24-4.42-2.47-6.64-3.69-2.36-1.31-2.36-1.31-5.11-3.12-11.1-4.04-21.6-0.53-30.2 6.81zm-113 112c-0.95 0.96-1.9 1.92-2.86 2.88l-3.87 3.87c-0.72 0.73-1.44 1.45-2.18 2.19-9.98 9.98-20 20-30 29.9 1.52 3.16 3.19 5.61 5.5 8.25 0.92 1.06 0.92 1.06 1.85 2.14 1.51 1.84 1.51 1.84 3.65 1.61v2c1.65 1.36 3.32 2.69 5 4 0.5 0.99 0.5 0.99 1 2h2v2c1.67 1.34 3.33 2.67 5 4 0.93 1.18 0.93 1.18 1.88 2.38 1.8 2.22 3.44 3.81 5.62 5.62 2.93 2.43 5.13 5.03 7.5 8 1.75 1.55 3.54 3.04 5.34 4.53 2.18 1.93 3.86 4.19 5.66 6.47 1.66 1.35 3.32 2.69 5 4l1 2h2v2c1.67 1.34 3.33 2.67 5 4 0.62 0.79 1.24 1.57 1.88 2.38 1.8 2.22 3.44 3.81 5.62 5.62 2.92 2.43 5.21 4.97 7.5 8 1.52 1.78 1.52 1.78 3 3h2v2c1.67 1.34 3.33 2.67 5 4 0.62 0.79 1.24 1.57 1.88 2.38 1.8 2.22 3.44 3.81 5.62 5.62 2.92 2.43 5.21 4.97 7.5 8 1.52 1.78 1.52 1.78 3 3h2v2c1.67 1.34 3.33 2.67 5 4 0.62 0.79 1.24 1.57 1.88 2.38 1.8 2.22 3.44 3.81 5.62 5.62 2.93 2.43 5.13 5.03 7.5 8 1.15 1.02 2.32 2.02 3.5 3 2.93 2.43 5.13 5.03 7.5 8 1.15 1.02 2.32 2.02 3.5 3 2.11 1.75 3.72 3.28 5.44 5.44 1.87 2.32 3.68 4.02 5.94 5.94 3.24 2.76 5.93 5.65 8.62 8.93 2.1 2.36 4.48 4.28 6.91 6.29 2.16 1.9 3.81 4.14 5.59 6.4 1.66 1.35 3.32 2.69 5 4l1 2h2v2c1.67 1.34 3.33 2.67 5 4 0.73 0.91 1.45 1.82 2.19 2.75 0.6 0.74 1.2 1.49 1.81 2.25h2l1 3h2l1 3h2v2h2l1 3h2l1 3h2l1 3h2c0.41 0.88 0.41 0.88 0.83 1.78 1.15 2.18 2.39 3.9 3.99 5.78 0.48 0.58 0.96 1.16 1.45 1.76 4.99 4.85 9.21 5.11 15.8 5.02h2.75c2.99 0 5.98-0.02 8.98-0.04 2.07-0.01 4.15-0.01 6.23-0.02 5.46-0.01 10.9-0.04 16.4-0.07 5.58-0.03 11.2-0.05 16.7-0.06 10.9-0.03 21.9-0.08 32.8-0.15l-2-5h-2v-2c-1.66-1.34-3.32-2.67-5-4-0.72-0.91-1.44-1.81-2.18-2.75-0.6-0.74-1.2-1.48-1.82-2.25h-2l-1-3h-2l-1-3h-2l-1-3h-2v-2c-1.33-1.66-1.33-1.66-3-3h-2l-1-3h-2l-1-3h-2v-2c-1.33-1.66-1.33-1.66-3-3h-2c-0.24-0.62-0.49-1.24-0.75-1.87-1.07-2.27-1.07-2.27-3.25-3.13-2.51-1.26-2.8-2.53-4-5-0.99-0.33-1.98-0.66-3-1-0.46-0.96-0.46-0.96-0.93-1.94-0.89-2.22-0.89-2.22-3.07-3.06-2-1-2-1-2.81-2.73-1.59-3.05-3.75-5.1-6.19-7.52-0.88-0.89-1.77-1.78-2.68-2.7-2.05-2.27-2.05-2.27-4.32-2.05-0.4-0.96-0.4-0.96-0.81-1.94-1.07-2.39-1.07-2.39-4.19-3.06-0.3-0.64-0.61-1.28-0.93-1.94-0.89-2.22-0.89-2.22-3.07-3.06-2.52-1.26-2.76-2.53-4-5-2.03-1.27-2.03-1.27-4-2v-2h-2c-0.24-0.62-0.49-1.24-0.75-1.87-1.07-2.27-1.07-2.27-3.25-3.13-2.51-1.26-2.8-2.53-4-5-0.99-0.33-1.98-0.66-3-1-0.3-0.64-0.61-1.28-0.93-1.94-0.89-2.22-0.89-2.22-3.07-3.06-2.54-1.27-2.8-2.46-4-5-1.91-2.25-1.91-2.25-4-4h-2c-0.25-0.58-0.51-1.16-0.78-1.76-1.31-2.42-2.77-4.06-4.72-5.99-0.6-0.61-1.21-1.22-1.84-1.86-1.55-1.6-1.55-1.6-3.66-1.39-0.24-0.62-0.49-1.24-0.75-1.87-1.07-2.27-1.07-2.27-3.25-3.13-2-1-2-1-2.91-2.83-1.21-2.41-2.59-3.93-4.49-5.84-0.66-0.66-1.32-1.33-2.01-2.01-0.68-0.68-1.37-1.37-2.09-2.07-0.68-0.7-1.37-1.39-2.09-2.11l-2-2c-0.6-0.6-1.21-1.2-1.83-1.82-1.49-1.53-1.49-1.53-3.58-1.32-0.37-0.93-0.37-0.93-0.75-1.87-1.07-2.27-1.07-2.27-3.25-3.13-2.52-1.26-2.76-2.53-4-5-2.03-1.27-2.03-1.27-4-2v-2h-2c-0.37-0.93-0.37-0.93-0.75-1.87-1.07-2.27-1.07-2.27-3.25-3.13-2.51-1.26-2.8-2.53-4-5-0.99-0.33-1.98-0.66-3-1-0.3-0.64-0.61-1.28-0.93-1.94-0.89-2.22-0.89-2.22-3.07-3.06-2.54-1.27-2.8-2.46-4-5-1.91-2.25-1.91-2.25-4-4h-2c-0.37-0.93-0.37-0.93-0.75-1.87-1.07-2.27-1.07-2.27-3.25-3.13-2.51-1.26-2.8-2.53-4-5-1.48-0.49-1.48-0.49-3-1-0.3-0.64-0.61-1.28-0.93-1.94-0.89-2.22-0.89-2.22-3.07-3.06-2.52-1.26-2.76-2.53-4-5-2.03-1.27-2.03-1.27-4-2v-2h-2c-0.24-0.62-0.49-1.24-0.75-1.87-1.07-2.27-1.07-2.27-3.25-3.13-2.51-1.26-2.8-2.53-4-5-1.48-0.49-1.48-0.49-3-1-0.3-0.64-0.61-1.28-0.93-1.94-0.89-2.22-0.89-2.22-3.07-3.06-2.54-1.27-2.8-2.46-4-5-1.91-2.25-1.91-2.25-4-4h-2c-0.24-0.62-0.49-1.24-0.75-1.87-1.07-2.27-1.07-2.27-3.25-3.13-2.51-1.26-2.8-2.53-4-5-1.48-0.49-1.48-0.49-3-1-0.49-1.48-0.49-1.48-1-3h-2c-0.49-1.48-0.49-1.48-1-3h-2c-0.49-1.48-0.49-1.48-1-3h-2v-2c-1.33-1.66-1.33-1.66-3-3h-2v-3c-5.97-3.98-8.68-0.29-13.1 4.12z" fill="#000100"/>
<path transform="translate(1062 513)" d="m0 0c1.38 0.01 1.38 0.01 2.78 0.01 17.4 0.13 17.4 0.13 24.8 3.11 0.8 0.32 1.59 0.63 2.41 0.95 2.54 1.01 5.06 2.03 7.59 3.05 1.67 0.67 3.34 1.34 5 2v2c1.12 0.16 1.12 0.16 2.25 0.32 2.95 0.73 4.54 1.63 6.75 3.68v2c0.59 0.11 1.17 0.21 1.77 0.32 2.57 0.79 3.97 1.86 5.98 3.62 0.92 0.79 0.92 0.79 1.86 1.59 1.39 1.47 1.39 1.47 1.39 3.47 0.99 0.34 1.98 0.66 3 1v2h2c8.08 9.64 14.2 21.1 18 33 0.35 0.91 0.7 1.81 1.06 2.74 1.22 4.23 1.45 8.26 1.63 12.6 0.04 0.88 0.08 1.75 0.12 2.65 0.37 10.1 0.68 20.4-2.81 30-0.42 1.55-0.83 3.09-1.25 4.63-1.81 6.16-4.74 11.7-7.75 17.4h-2l-1 5h-2c-0.26 0.59-0.53 1.17-0.81 1.77-4.59 8.61-13.7 16.6-22.2 21.2h-2v2c-15.3 6.73-28.6 11.4-45.5 11.3-2.26 0-4.52 0.02-6.78 0.05-12 0.05-22.1-1.65-32.8-7.37-1.32-0.36-2.65-0.71-4-1v-2c-1.11-0.15-1.11-0.15-2.25-0.31-2.94-0.73-4.53-1.63-6.75-3.69v-2c-0.57-0.08-1.14-0.16-1.73-0.25-2.94-0.97-4.37-2.48-6.52-4.68-1.06-1.07-1.06-1.07-2.14-2.15-1.61-1.92-1.61-1.92-1.61-3.92h-2c-3-3.46-3-3.46-3-6h-2c-8.82-17.3-8.82-17.3-12-26-0.39-1.03-0.78-2.06-1.18-3.12-2.26-7.97-1.97-16.2-1.94-24.4-0.01-1.18-0.01-2.36-0.01-3.58 0.02-18.6 5.79-32.9 15.1-48.9h2v-3h2c0.23-0.55 0.46-1.11 0.7-1.68 1.65-2.94 3.72-5 6.12-7.38 1.27-1.28 1.27-1.28 2.58-2.6 2.42-2.17 4.81-3.69 7.6-5.34 0.33-0.65 0.66-1.32 1-2 6.66-3.87 13.6-6.84 21-9 1.14-0.37 2.27-0.74 3.44-1.12 7.87-1.93 15.9-2.04 24-2zm-28.4 19.1c-0.89 0.38-1.77 0.75-2.69 1.14-6.15 2.84-12.1 6.49-17.3 10.9v2c-0.99 0.34-1.98 0.66-3 1-8.19 8.36-13.9 19.8-17 31-0.33 1.06-0.67 2.12-1.02 3.22-1.58 6.12-1.31 12.2-1.29 18.5-0.02 1.3-0.03 2.6-0.05 3.94 0 8.22 0.93 15.5 3.36 23.4h2c0.09 1.02 0.17 2.03 0.26 3.07 0.59 4.17 2.41 7.38 4.68 10.9 0.54 0.89 0.54 0.89 1.09 1.79 0.93 1.46 1.94 2.88 2.97 4.27h2c0.33 1 0.66 1.99 1 3h2c0.33 1 0.66 1.99 1 3h2v2c2.24 2.71 4.91 4.38 8 6h3v2c17.8 9.16 38.4 12.7 58.1 7.13 1.99-0.68 3.98-1.38 5.94-2.13 2-0.67 4-1.33 6-2v-2c1.65-0.33 3.3-0.65 5-1v-2c0.77-0.12 1.53-0.24 2.32-0.37 2.89-0.51 2.89-0.51 5.68-2.63v-2c0.84-0.37 0.84-0.37 1.69-0.74 12-6.5 19.6-21.4 23.6-34 5.18-17.4 3.92-37-4.32-53.3-0.68-1.66-1.35-3.32-2-5h-2c-0.33-1.64-0.66-3.29-1-5h-2c-0.25-0.73-0.5-1.47-0.76-2.23-5.1-11.4-19.4-18.7-30.2-23.7-9.58-3.46-18.2-4.63-28.4-4.54-1.93 0.01-1.93 0.01-3.89 0.02-8.89 0.15-16.6 0.8-24.8 4.41z" fill="#000100"/>
<path transform="translate(1264,738)" d="m0 0c1.75-0.03 3.5-0.05 5.25-0.06 1.46-0.02 1.46-0.02 2.95-0.04 2.46 0.09 4.46 0.39 6.8 1.1 0.02 8.15 0.04 16.3 0.05 24.5 0.01 3.79 0.01 7.58 0.03 11.4 0.01 3.66 0.01 7.32 0.01 11 0.01 1.39 0.01 2.78 0.02 4.16 0.03 8.07-0.19 16-1.11 24-1.96 0.08-3.92 0.14-5.88 0.19-1.63 0.05-1.63 0.05-3.3 0.1-0.93-0.09-1.86-0.19-2.82-0.29-2.48-3.72-2.24-5.6-2.23-10v-2.16c0-2.35 0.02-4.71 0.03-7.06 0.01-1.63 0.01-3.27 0.01-4.9 0.01-4.29 0.03-8.59 0.05-12.9 0.02-4.38 0.03-8.76 0.04-13.2 0.02-8.6 0.06-17.2 0.1-25.8z" fill="#000100"/>
<path transform="translate(1271 658)" d="m0 0c1.08-0.03 2.16-0.05 3.28-0.08 0.92 0.11 1.84 0.22 2.78 0.33 2.61 3.91 2.27 7.22 2.23 11.8v2.6c0 1.81-0.01 3.62-0.02 5.43-0.02 2.78-0.02 5.55-0.02 8.33-0.01 1.75-0.01 3.51-0.02 5.27v2.52c-0.05 5.87-0.05 5.87-1.17 8.1-5.32 0.18-8.92-0.24-14-2-0.02-5.82-0.04-11.6-0.05-17.5-0.01-1.98-0.01-3.97-0.02-5.95-0.02-2.84-0.02-5.68-0.03-8.52 0-0.9-0.01-1.79-0.01-2.71 0-2.12 0.05-4.24 0.11-6.36 1.81-1.81 4.5-1.22 6.94-1.25z" fill="#000100"/>
</svg>
