<svg width="335" height="283" viewBox="0 0 335 283" fill="none" xmlns="http://www.w3.org/2000/svg">
<g clip-path="url(#clip0_2666_12640)">
<path d="M379 244.746H-43V244.957H379V244.746Z" fill="#EBEBEB"/>
<path d="M336.715 258.326H308.762V258.537H336.715V258.326Z" fill="#EBEBEB"/>
<path d="M236.55 260.621H229.215V260.832H236.55V260.621Z" fill="#EBEBEB"/>
<path d="M307.919 250.493H291.722V250.704H307.919V250.493Z" fill="#EBEBEB"/>
<path d="M37.7287 251.911H1.27637V252.122H37.7287V251.911Z" fill="#EBEBEB"/>
<path d="M50.5911 251.911H45.2485V252.122H50.5911V251.911Z" fill="#EBEBEB"/>
<path d="M147.026 255.473H67.9604V255.684H147.026V255.473Z" fill="#EBEBEB"/>
<path d="M157.036 207.103H-5.94004C-8.59864 207.103 -10.7593 204.943 -10.7593 202.284V-26.8028C-10.7593 -29.4614 -8.59864 -31.6221 -5.94004 -31.6221H157.036C159.695 -31.6221 161.856 -29.4614 161.856 -26.8028V202.284C161.856 204.943 159.695 207.103 157.036 207.103ZM-5.94004 -31.4111C-8.48048 -31.4111 -10.5483 -29.3433 -10.5483 -26.8028V202.284C-10.5483 204.825 -8.48048 206.892 -5.94004 206.892H157.036C159.577 206.892 161.645 204.825 161.645 202.284V-26.8028C161.645 -29.3433 159.577 -31.4111 157.036 -31.4111H-5.94004Z" fill="#EBEBEB"/>
<path d="M339.593 207.103H176.617C173.958 207.103 171.798 204.943 171.798 202.284V-26.8028C171.798 -29.4614 173.958 -31.6221 176.617 -31.6221H339.593C342.252 -31.6221 344.413 -29.4614 344.413 -26.8028V202.284C344.413 204.943 342.252 207.103 339.593 207.103ZM176.617 -31.4111C174.077 -31.4111 172.009 -29.3433 172.009 -26.8028V202.284C172.009 204.825 174.077 206.892 176.617 206.892H339.593C342.134 206.892 344.202 204.825 344.202 202.284V-26.8028C344.202 -29.3433 342.134 -31.4111 339.593 -31.4111H176.617Z" fill="#EBEBEB"/>
<path d="M299.639 232.187C299.824 229.976 299.52 227.115 296.938 226.262C292.566 224.819 289.975 221.434 290.118 217.611C290.262 213.779 285.662 210.057 282.21 213.644C278.758 217.231 279.222 210.884 274.622 209.34C270.023 207.795 266.123 211.543 267.381 214.961C268.638 218.379 264.098 220.514 258.662 217.611C253.227 214.699 247.243 219.991 248.399 224.135C249.556 228.279 248.61 228.735 245.167 227.359C242.39 226.245 237.841 228.583 237.334 232.195H299.639V232.187Z" fill="#E0E0E0"/>
<path d="M67.2431 232.187C67.4541 230.44 67.3613 227.883 65.1922 227.165C61.7993 226.043 59.7906 223.418 59.9003 220.447C60.01 217.476 56.4399 214.581 53.7644 217.366C51.089 220.152 51.4434 215.223 47.8733 214.024C44.3032 212.826 41.2732 215.729 42.2523 218.388C43.2313 221.046 39.7034 222.7 35.4834 220.447C31.2634 218.193 26.6214 222.295 27.516 225.511C28.4107 228.727 27.6764 229.081 25.0093 228.009C22.7474 227.098 18.9832 229.149 18.9072 232.179H67.2516L67.2431 232.187Z" fill="#E0E0E0"/>
<path d="M72.8726 232.187H152.301C153.415 228.456 150.529 223.991 147.381 223.358C143.515 222.582 139.625 215.779 139.447 211.45C139.27 207.12 132.307 193.793 121.479 202.022C110.65 210.251 113.942 203.238 106.109 200.925C98.277 198.612 93.3396 205.263 96.7746 210.251C96.7746 210.251 88.9086 208.276 85.6676 215.627C82.4266 222.97 85.6676 227.536 85.6676 227.536C85.6676 227.536 75.7253 227.249 72.8726 232.187Z" fill="#E0E0E0"/>
<path d="M197.801 23.7273C197.801 21.668 199.473 19.9884 201.54 19.9884C201.912 19.9884 202.275 20.0475 202.612 20.1488C202.562 19.7774 202.528 19.3892 202.528 19.0009C202.528 14.629 206.073 11.0927 210.436 11.0927C210.934 11.0927 211.424 11.1433 211.896 11.2277C213.112 9.23587 215.298 7.90234 217.796 7.90234C221.585 7.90234 224.658 10.9492 224.708 14.7219C224.75 14.7219 224.784 14.7219 224.826 14.7219C228.346 14.7219 231.199 17.5746 231.199 21.0941C231.199 24.6135 228.346 27.4663 224.826 27.4663H201.422C199.405 27.4072 197.793 25.7614 197.793 23.7273H197.801Z" fill="#F5F5F5"/>
<path d="M66.1627 45.7474C66.1627 43.688 67.8339 42.0084 69.9017 42.0084C70.273 42.0084 70.6359 42.0675 70.9735 42.1688C70.9229 41.7974 70.8891 41.4092 70.8891 41.021C70.8891 36.649 74.4339 33.1127 78.7974 33.1127C79.2954 33.1127 79.7849 33.1633 80.2575 33.2477C81.4729 31.2559 83.6589 29.9224 86.1571 29.9224C89.9467 29.9224 93.0188 32.9692 93.0695 36.7419C93.1117 36.7419 93.1454 36.7419 93.1876 36.7419C96.7071 36.7419 99.5598 39.5946 99.5598 43.1141C99.5598 46.6336 96.7071 49.4863 93.1876 49.4863H69.7835C67.7663 49.4272 66.1543 47.7814 66.1543 45.7474H66.1627Z" fill="#F5F5F5"/>
<path d="M150.934 34.919C150.934 33.6361 151.972 32.598 153.255 32.598C153.483 32.598 153.711 32.6318 153.922 32.6993C153.888 32.463 153.871 32.2267 153.871 31.9904C153.871 29.2727 156.074 27.0698 158.792 27.0698C159.104 27.0698 159.408 27.1036 159.695 27.1542C160.455 25.9135 161.813 25.0864 163.366 25.0864C165.721 25.0864 167.629 26.977 167.662 29.3233C167.688 29.3233 167.713 29.3233 167.73 29.3233C169.916 29.3233 171.688 31.0957 171.688 33.2817C171.688 35.4676 169.916 37.24 167.73 37.24H153.179C151.93 37.1978 150.926 36.1766 150.926 34.919H150.934Z" fill="#F5F5F5"/>
<path d="M22.6549 30.378C22.6549 29.0951 23.693 28.057 24.9759 28.057C25.2038 28.057 25.4317 28.0908 25.6427 28.1583C25.6089 27.922 25.592 27.6857 25.592 27.4493C25.592 24.7317 27.7949 22.5288 30.5126 22.5288C30.8248 22.5288 31.1287 22.5626 31.4156 22.6132C32.1752 21.3725 33.5341 20.5454 35.087 20.5454C37.4418 20.5454 39.3492 22.436 39.383 24.7823C39.4083 24.7823 39.4336 24.7823 39.4505 24.7823C41.6365 24.7823 43.4089 26.5547 43.4089 28.7406C43.4089 30.9266 41.6365 32.699 39.4505 32.699H24.9C23.6508 32.6568 22.6465 31.6356 22.6465 30.378H22.6549Z" fill="#F5F5F5"/>
<path d="M281.577 44.4136C281.577 43.1308 282.615 42.0926 283.898 42.0926C284.126 42.0926 284.354 42.1264 284.565 42.1939C284.531 41.9576 284.514 41.7213 284.514 41.485C284.514 38.7673 286.717 36.5645 289.434 36.5645C289.747 36.5645 290.051 36.5982 290.338 36.6489C291.097 35.4082 292.456 34.5811 294.009 34.5811C296.364 34.5811 298.271 36.4716 298.305 38.8179C298.33 38.8179 298.356 38.8179 298.372 38.8179C300.558 38.8179 302.331 40.5903 302.331 42.7763C302.331 44.9623 300.558 46.7346 298.372 46.7346H283.822C282.573 46.6924 281.568 45.6712 281.568 44.4136H281.577Z" fill="#F5F5F5"/>
<path d="M80.6628 110.634C80.5446 110.212 80.4771 109.722 80.4433 109.182C80.2661 106.169 77.3881 106.65 74.9405 106.237C73.033 105.916 78.0886 101.088 74.2399 99.5354C73.5225 99.2484 72.7461 98.9193 72.3831 98.2356C71.9021 97.341 72.3831 96.1509 73.2187 95.5601C74.0543 94.9693 75.1261 94.8427 76.1474 94.8259C76.7719 94.0578 76.2655 92.91 75.6579 92.1335C75.0502 91.357 74.3074 90.4624 74.5353 89.5002C74.8814 88.0485 76.9154 87.9979 78.384 88.2764C78.9241 87.3987 78.9157 86.3015 79.1773 85.3055C79.439 84.3096 80.2323 83.2631 81.2536 83.3897C82.2157 83.5078 82.8065 84.5966 83.7518 84.816C84.849 85.0777 85.8027 84.1071 86.6636 83.3728C87.5245 82.6469 89.0353 82.1912 89.6261 83.1449C89.9805 83.7188 89.7695 84.5206 90.1409 85.0861C90.7823 86.0651 92.3015 85.4575 93.2384 84.7654C94.1837 84.0733 95.686 83.4403 96.3443 84.4025C96.5469 84.6979 96.5891 85.0692 96.7072 85.4068C97.1545 86.6897 98.5471 87.3311 99.6275 88.1583C100.708 88.9854 101.569 90.6227 100.649 91.6271C100.193 92.1251 99.3996 92.3276 99.1801 92.9606C98.9016 93.754 99.7118 94.4629 100.345 95.0031C101.408 95.9062 101.602 98.6154 100.193 99.3581C99.6021 99.6704 98.7328 99.7633 98.5893 100.413C98.4627 100.995 99.0535 101.451 99.4418 101.899C100.522 103.131 100.066 105.359 98.5893 106.06C98.2517 106.22 97.8382 106.355 97.7116 106.709C97.6187 106.963 97.7116 107.241 97.796 107.494C97.931 107.984 97.9816 108.499 97.931 109.005C97.9141 109.174 97.8804 109.368 97.7453 109.478C97.6272 109.579 97.4584 109.596 97.298 109.604C95.264 109.697 94.2849 108.971 93.0443 110.744C92.9261 110.913 92.7995 111.09 92.6223 111.191C92.4535 111.292 92.2509 111.318 92.0652 111.335C90.6642 111.453 89.7527 110.575 88.4782 110.415C86.7058 110.187 86.3345 111.098 84.7731 111.832C82.317 112.989 81.127 112.271 80.6628 110.6V110.634Z" fill="#EBEBEB"/>
<path d="M104.067 108.102C103.949 107.68 103.881 107.19 103.848 106.65C103.67 103.637 100.792 104.118 98.3448 103.705C96.4373 103.384 101.493 98.5563 97.6442 97.0033C96.9268 96.7164 96.1504 96.3872 95.7874 95.7036C95.3064 94.8089 95.7874 93.6189 96.623 93.0281C97.4585 92.4373 98.5304 92.3107 99.5517 92.2938C100.176 91.5258 99.6698 90.3779 99.0622 89.6014C98.4545 88.825 97.7118 87.9303 97.9396 86.9682C98.2857 85.5165 100.32 85.4658 101.788 85.7444C102.328 84.8666 102.32 83.7694 102.582 82.7735C102.843 81.7776 103.637 80.731 104.658 80.8576C105.62 80.9758 106.211 82.0645 107.156 82.284C108.253 82.5456 109.207 81.575 110.068 80.8407C110.929 80.1149 112.44 79.6591 113.03 80.6213C113.385 81.1952 113.174 81.997 113.545 82.5625C114.187 83.5415 115.706 82.9338 116.643 82.2418C117.588 81.5497 119.09 80.9167 119.749 81.8788C119.951 82.1742 119.993 82.5456 120.112 82.8832C120.559 84.1661 121.951 84.8075 123.032 85.6346C124.112 86.4618 124.973 88.0991 124.053 89.1035C123.597 89.6015 122.804 89.804 122.584 90.437C122.306 91.2304 123.116 91.9393 123.749 92.4795C124.813 93.3826 125.007 96.0918 123.597 96.8345C123.006 97.1468 122.137 97.2396 121.994 97.8895C121.867 98.4719 122.458 98.9276 122.846 99.375C123.926 100.607 123.471 102.835 121.994 103.536C121.656 103.696 121.242 103.831 121.116 104.186C121.023 104.439 121.116 104.717 121.2 104.971C121.335 105.46 121.386 105.975 121.335 106.481C121.318 106.65 121.285 106.844 121.15 106.954C121.031 107.055 120.863 107.072 120.702 107.081C118.668 107.174 117.689 106.448 116.449 108.22C116.33 108.389 116.204 108.566 116.027 108.667C115.858 108.769 115.655 108.794 115.47 108.811C114.068 108.929 113.157 108.051 111.883 107.891C110.11 107.663 109.739 108.575 108.177 109.309C105.721 110.465 104.531 109.748 104.067 108.077V108.102Z" fill="#EBEBEB"/>
<path d="M106.329 93.197C106.211 92.775 106.143 92.2854 106.109 91.7453C105.932 88.7322 103.054 89.2133 100.606 88.7997C98.699 88.479 103.755 83.6513 99.906 82.0984C99.1886 81.8114 98.4121 81.4822 98.0492 80.7986C97.5681 79.904 98.0492 78.7139 98.8847 78.1231C99.7203 77.5323 100.792 77.4057 101.813 77.3888C102.438 76.6208 101.932 75.473 101.324 74.6965C100.716 73.92 99.9735 73.0254 100.201 72.0632C100.547 70.6115 102.581 70.5609 104.05 70.8394C104.59 69.9616 104.582 68.8644 104.843 67.8685C105.105 66.8726 105.898 65.826 106.92 65.9526C107.882 66.0708 108.473 67.1596 109.418 67.379C110.515 67.6406 111.469 66.67 112.33 65.9358C113.191 65.2099 114.701 64.7542 115.292 65.7079C115.647 66.2818 115.436 67.0836 115.807 67.6491C116.448 68.6281 117.968 68.0204 118.904 67.3284C119.85 66.6363 121.352 66.0033 122.01 66.9654C122.213 67.2608 122.255 67.6322 122.373 67.9698C122.821 69.2527 124.213 69.8941 125.293 70.7212C126.374 71.5484 127.235 73.1857 126.315 74.1901C125.859 74.688 125.066 74.8906 124.846 75.5236C124.568 76.317 125.378 77.0259 126.011 77.5661C127.074 78.4692 127.268 81.1784 125.859 81.9211C125.268 82.2334 124.399 82.3262 124.255 82.9761C124.129 83.5585 124.72 84.0142 125.108 84.4616C126.188 85.6938 125.732 87.922 124.255 88.6225C123.918 88.7828 123.504 88.9179 123.378 89.2724C123.285 89.5256 123.378 89.8041 123.462 90.0573C123.597 90.5468 123.648 91.0616 123.597 91.568C123.58 91.7368 123.546 91.931 123.411 92.0407C123.293 92.142 123.124 92.1588 122.964 92.1673C120.93 92.2601 119.951 91.5343 118.71 93.3067C118.592 93.4755 118.466 93.6527 118.288 93.754C118.119 93.8553 117.917 93.8806 117.731 93.8975C116.33 94.0156 115.419 93.1379 114.144 92.9775C112.372 92.7496 112 93.6612 110.439 94.3954C107.983 95.5517 106.793 94.8343 106.329 93.1632V93.197Z" fill="#EBEBEB"/>
<path d="M121.749 100.624C121.631 100.202 121.563 99.7127 121.529 99.1725C121.352 96.1594 118.474 96.6405 116.026 96.227C114.119 95.9062 119.175 91.0786 115.326 89.5256C114.608 89.2387 113.832 88.9095 113.469 88.2258C112.988 87.3312 113.469 86.1412 114.305 85.5504C115.14 84.9596 116.212 84.833 117.233 84.8161C117.858 84.0481 117.351 82.9002 116.744 82.1237C116.136 81.3472 115.393 80.4526 115.621 79.4905C115.967 78.0388 118.001 77.9881 119.47 78.2666C120.01 77.3889 120.002 76.2917 120.263 75.2958C120.525 74.2999 121.318 73.2533 122.34 73.3799C123.302 73.498 123.892 74.5868 124.838 74.8062C125.935 75.0679 126.889 74.0973 127.75 73.363C128.61 72.6372 130.121 72.1814 130.712 73.1351C131.066 73.7091 130.855 74.5108 131.227 75.0763C131.868 76.0554 133.387 75.4477 134.324 74.7556C135.27 74.0635 136.772 73.4305 137.43 74.3927C137.633 74.6881 137.675 75.0594 137.793 75.397C138.24 76.6799 139.633 77.3214 140.713 78.1485C141.794 78.9756 142.655 80.613 141.735 81.6173C141.279 82.1153 140.486 82.3178 140.266 82.9508C139.988 83.7442 140.798 84.4532 141.431 84.9933C142.494 85.8964 142.688 88.6056 141.279 89.3484C140.688 89.6606 139.819 89.7535 139.675 90.4034C139.549 90.9857 140.139 91.4415 140.528 91.8888C141.608 93.121 141.152 95.3492 139.675 96.0497C139.338 96.2101 138.924 96.3451 138.798 96.6996C138.705 96.9528 138.798 97.2313 138.882 97.4845C139.017 97.974 139.068 98.4889 139.017 98.9953C139 99.1641 138.966 99.3582 138.831 99.4679C138.713 99.5692 138.544 99.5861 138.384 99.5945C136.35 99.6874 135.371 98.97 134.13 100.734C134.012 100.903 133.885 101.08 133.708 101.181C133.539 101.283 133.345 101.308 133.151 101.325C131.75 101.443 130.839 100.565 129.564 100.405C127.792 100.177 127.42 101.088 125.859 101.823C123.403 102.979 122.213 102.27 121.749 100.59V100.624Z" fill="#EBEBEB"/>
<path d="M137.329 97.1975C137.211 96.7755 137.143 96.286 137.109 95.7458C136.932 92.7327 134.054 93.2138 131.606 92.8002C129.699 92.4795 134.755 87.6518 130.906 86.0989C130.189 85.8119 129.412 85.4828 129.049 84.7991C128.568 83.896 129.049 82.7144 129.885 82.1236C130.72 81.5328 131.792 81.4063 132.813 81.3894C133.438 80.6213 132.932 79.4735 132.324 78.697C131.716 77.9205 130.973 77.0259 131.201 76.0637C131.547 74.612 133.581 74.5614 135.05 74.8399C135.59 73.9622 135.582 72.865 135.843 71.8691C136.105 70.8731 136.898 69.8266 137.92 69.9532C138.882 70.0713 139.473 71.1601 140.418 71.3795C141.515 71.6412 142.469 70.6706 143.33 69.9363C144.191 69.202 145.701 68.7547 146.292 69.7084C146.647 70.2823 146.436 71.0841 146.807 71.6496C147.448 72.6286 148.968 72.021 149.904 71.3289C150.85 70.6368 152.352 70.0038 153.01 70.966C153.213 71.2614 153.255 71.6327 153.373 71.9703C153.821 73.2532 155.213 73.8946 156.293 74.7218C157.374 75.5489 158.235 77.1862 157.315 78.1906C156.859 78.6886 156.066 78.8911 155.846 79.5241C155.568 80.3175 156.378 81.0264 157.011 81.5666C158.074 82.4697 158.268 85.1789 156.859 85.9216C156.268 86.2339 155.399 86.3268 155.255 86.9766C155.129 87.559 155.72 88.0148 156.108 88.4621C157.188 89.6943 156.732 91.9225 155.255 92.623C154.918 92.7834 154.504 92.9184 154.378 93.2729C154.285 93.5261 154.378 93.8046 154.462 94.0578C154.597 94.5473 154.648 95.0622 154.597 95.5686C154.58 95.7374 154.546 95.9315 154.411 96.0412C154.293 96.1425 154.124 96.1594 153.964 96.1678C151.93 96.2606 150.951 95.5348 149.71 97.3072C149.592 97.476 149.466 97.6533 149.288 97.7545C149.119 97.8558 148.925 97.8811 148.731 97.898C147.33 98.0162 146.419 97.1384 145.144 96.9781C143.372 96.7502 143 97.6617 141.439 98.396C138.983 99.5522 137.793 98.8348 137.329 97.1637V97.1975Z" fill="#EBEBEB"/>
<path d="M137.531 113.867C137.439 113.529 137.388 113.149 137.363 112.727C137.219 110.355 134.957 110.735 133.033 110.406C131.531 110.153 135.514 106.355 132.476 105.131C131.91 104.903 131.303 104.65 131.016 104.11C130.636 103.401 131.016 102.473 131.674 102.008C132.332 101.544 133.176 101.443 133.978 101.434C134.476 100.835 134.071 99.9237 133.59 99.316C133.109 98.6999 132.527 97.9993 132.704 97.2482C132.974 96.1003 134.577 96.0666 135.734 96.286C136.164 95.5939 136.156 94.733 136.358 93.9481C136.561 93.1632 137.194 92.3361 137.996 92.4374C138.755 92.5302 139.219 93.3911 139.962 93.5599C140.823 93.7625 141.574 93.0028 142.258 92.4289C142.933 91.855 144.123 91.5005 144.587 92.2517C144.866 92.7075 144.697 93.332 144.992 93.7793C145.499 94.5474 146.689 94.0747 147.432 93.5261C148.174 92.9775 149.356 92.4796 149.879 93.2392C150.04 93.4755 150.073 93.7625 150.166 94.0325C150.521 95.0453 151.609 95.5517 152.462 96.2016C153.314 96.8515 153.989 98.1428 153.272 98.9362C152.918 99.3244 152.293 99.4848 152.116 99.9827C151.896 100.607 152.529 101.164 153.036 101.595C153.871 102.304 154.023 104.439 152.918 105.021C152.453 105.266 151.77 105.342 151.66 105.857C151.559 106.313 152.023 106.676 152.335 107.03C153.188 108.001 152.825 109.748 151.66 110.313C151.39 110.44 151.069 110.541 150.968 110.82C150.9 111.022 150.968 111.233 151.035 111.436C151.145 111.824 151.179 112.229 151.145 112.626C151.128 112.761 151.103 112.913 151.002 112.997C150.909 113.082 150.774 113.09 150.647 113.098C149.044 113.166 148.276 112.601 147.297 113.993C147.204 114.128 147.102 114.263 146.959 114.348C146.824 114.424 146.672 114.449 146.52 114.457C145.423 114.55 144.697 113.858 143.693 113.731C142.3 113.554 142.005 114.272 140.772 114.854C138.84 115.766 137.903 115.2 137.54 113.883L137.531 113.867Z" fill="#EBEBEB"/>
<path d="M146.267 108.102C146.149 107.68 146.081 107.19 146.047 106.65C145.87 103.637 142.992 104.118 140.544 103.705C138.637 103.384 143.693 98.5563 139.844 97.0033C139.127 96.7164 138.35 96.3872 137.987 95.7036C137.506 94.8089 137.987 93.6189 138.823 93.0281C139.658 92.4373 140.73 92.3107 141.751 92.2938C142.376 91.5258 141.87 90.3779 141.262 89.6014C140.654 88.825 139.911 87.9303 140.139 86.9682C140.485 85.5165 142.519 85.4658 143.988 85.7444C144.528 84.8666 144.52 83.7694 144.781 82.7735C145.043 81.7776 145.836 80.731 146.858 80.8576C147.82 80.9758 148.411 82.0645 149.356 82.284C150.453 82.5456 151.407 81.575 152.268 80.8407C153.129 80.1149 154.639 79.6591 155.23 80.6213C155.585 81.1952 155.374 81.997 155.745 82.5625C156.386 83.5415 157.906 82.9338 158.842 82.2418C159.788 81.5497 161.29 80.9167 161.948 81.8788C162.151 82.1742 162.193 82.5456 162.311 82.8832C162.759 84.1661 164.151 84.8075 165.231 85.6346C166.312 86.4618 167.173 88.0991 166.253 89.1035C165.797 89.6015 165.004 89.804 164.784 90.437C164.506 91.2304 165.316 91.9393 165.949 92.4795C167.012 93.3826 167.206 96.0918 165.797 96.8345C165.206 97.1468 164.337 97.2396 164.193 97.8895C164.067 98.4719 164.658 98.9276 165.046 99.375C166.126 100.607 165.67 102.835 164.193 103.536C163.856 103.696 163.442 103.831 163.316 104.186C163.223 104.439 163.316 104.717 163.4 104.971C163.535 105.46 163.586 105.975 163.535 106.481C163.518 106.65 163.484 106.844 163.349 106.954C163.231 107.055 163.062 107.072 162.902 107.081C160.868 107.174 159.889 106.448 158.648 108.22C158.53 108.389 158.404 108.566 158.226 108.667C158.057 108.769 157.855 108.794 157.669 108.811C156.268 108.929 155.357 108.051 154.082 107.891C152.31 107.663 151.938 108.575 150.377 109.309C147.921 110.465 146.731 109.748 146.267 108.077V108.102Z" fill="#EBEBEB"/>
<path d="M121.749 82.2841C121.631 81.8621 121.563 81.3725 121.529 80.8324C121.352 77.8193 118.474 78.3004 116.026 77.8868C114.119 77.5661 119.175 72.7384 115.326 71.1854C114.608 70.8985 113.832 70.5693 113.469 69.8857C112.988 68.9911 113.469 67.801 114.305 67.2102C115.14 66.6194 116.212 66.4928 117.233 66.4759C117.858 65.7079 117.351 64.5601 116.744 63.7836C116.136 63.0071 115.393 62.1124 115.621 61.1503C115.967 59.6986 118.001 59.648 119.47 59.9265C120.01 59.0487 120.002 57.9515 120.263 56.9556C120.525 55.9597 121.318 54.9131 122.34 55.0397C123.302 55.1579 123.892 56.2467 124.838 56.4661C125.935 56.7277 126.889 55.7571 127.75 55.0229C128.61 54.297 130.121 53.8413 130.712 54.8034C131.066 55.3773 130.855 56.1791 131.227 56.7446C131.868 57.7236 133.387 57.116 134.324 56.4239C135.27 55.7318 136.772 55.0988 137.43 56.061C137.633 56.3564 137.675 56.7277 137.793 57.0653C138.24 58.3482 139.633 58.9896 140.713 59.8168C141.794 60.6439 142.655 62.2812 141.735 63.2856C141.279 63.7836 140.486 63.9861 140.266 64.6191C139.988 65.4125 140.798 66.1214 141.431 66.6616C142.494 67.5647 142.688 70.2739 141.279 71.0166C140.688 71.3289 139.819 71.4218 139.675 72.0716C139.549 72.654 140.139 73.1098 140.528 73.5571C141.608 74.7893 141.152 77.0175 139.675 77.718C139.338 77.8784 138.924 78.0134 138.798 78.3679C138.705 78.6211 138.798 78.8996 138.882 79.1528C139.017 79.6423 139.068 80.1572 139.017 80.6636C139 80.8324 138.966 81.0265 138.831 81.1362C138.713 81.2375 138.544 81.2544 138.384 81.2628C136.35 81.3556 135.371 80.6298 134.13 82.4022C134.012 82.571 133.885 82.7483 133.708 82.8495C133.539 82.9508 133.345 82.9761 133.151 82.993C131.75 83.1112 130.839 82.2334 129.564 82.0731C127.792 81.8452 127.42 82.7567 125.859 83.491C123.403 84.6472 122.213 83.9299 121.749 82.2587V82.2841Z" fill="#EBEBEB"/>
<path d="M101.72 83.3138C101.602 82.8918 101.535 82.4023 101.501 81.8622C101.324 78.8491 98.4457 79.3302 95.9981 78.9166C94.0906 78.5959 99.1462 73.7682 95.2976 72.2152C94.5802 71.9283 93.8037 71.5991 93.4408 70.9155C92.9597 70.0208 93.4407 68.8308 94.2763 68.24C95.1119 67.6492 96.1837 67.5226 97.205 67.5057C97.8295 66.7377 97.3231 65.5898 96.7155 64.8134C96.1078 64.0369 95.3651 63.1422 95.593 62.1801C95.939 60.7284 97.973 60.6778 99.4416 60.9563C99.9818 60.0785 99.9733 58.9813 100.235 57.9854C100.497 56.9895 101.29 55.9429 102.311 56.0695C103.273 56.1877 103.864 57.2764 104.809 57.4959C105.907 57.7575 106.86 56.7869 107.721 56.0526C108.582 55.3268 110.093 54.871 110.684 55.8332C111.038 56.4071 110.827 57.2089 111.199 57.7744C111.84 58.7534 113.359 58.1458 114.296 57.4537C115.241 56.7616 116.744 56.1286 117.402 57.0908C117.604 57.3862 117.647 57.7575 117.765 58.0951C118.212 59.378 119.605 60.0194 120.685 60.8466C121.765 61.6737 122.626 63.311 121.706 64.3154C121.251 64.8134 120.457 65.0159 120.238 65.6489C119.959 66.4423 120.769 67.1512 121.402 67.6914C122.466 68.5945 122.66 71.3037 121.251 72.0464C120.66 72.3587 119.79 72.4516 119.647 73.1014C119.52 73.6838 120.111 74.1395 120.499 74.5869C121.58 75.8191 121.124 78.0473 119.647 78.7478C119.309 78.9082 118.896 79.0432 118.769 79.3977C118.676 79.6509 118.769 79.9294 118.854 80.1826C118.989 80.6721 119.039 81.187 118.989 81.6934C118.972 81.8622 118.938 82.0563 118.803 82.166C118.685 82.2673 118.516 82.2842 118.356 82.2926C116.322 82.3854 115.343 81.6596 114.102 83.432C113.984 83.6008 113.857 83.778 113.68 83.8793C113.511 83.9806 113.317 84.0059 113.123 84.0228C111.722 84.141 110.81 83.2632 109.536 83.1028C107.763 82.875 107.392 83.7865 105.831 84.5208C103.375 85.677 102.185 84.9681 101.72 83.2885V83.3138Z" fill="#EBEBEB"/>
<path d="M89.5671 91.5007C89.4489 91.0787 89.3814 90.5892 89.3476 90.049C89.1704 87.0359 86.2924 87.517 83.8448 87.1034C81.9373 86.7827 86.9929 81.955 83.1442 80.4021C82.4268 80.1151 81.6504 79.786 81.2874 79.1023C80.8064 78.2077 81.2874 77.0176 82.123 76.4268C82.9586 75.836 84.0304 75.7094 85.0517 75.6926C85.6762 74.9245 85.1698 73.7767 84.5622 73.0002C83.9545 72.2237 83.2118 71.3291 83.4396 70.3669C83.7857 68.9152 85.8197 68.8646 87.2883 69.1431C87.8284 68.2654 87.82 67.1682 88.0816 66.1722C88.3433 65.1763 89.1366 64.1298 90.1579 64.2564C91.12 64.3745 91.7108 65.4633 92.6561 65.6827C93.7533 65.9444 94.707 64.9738 95.5679 64.2395C96.4288 63.5136 97.9396 63.0579 98.5304 64.0116C98.8848 64.5855 98.6738 65.3873 99.0452 65.9528C99.6866 66.9318 101.206 66.3242 102.143 65.6321C103.088 64.94 104.59 64.307 105.249 65.2692C105.451 65.5646 105.493 65.9359 105.612 66.2735C106.059 67.5564 107.451 68.1978 108.532 69.025C109.612 69.8521 110.473 71.4894 109.553 72.4938C109.097 72.9918 108.304 73.1943 108.084 73.8273C107.806 74.6207 108.616 75.3296 109.249 75.8698C110.313 76.7729 110.507 79.4821 109.097 80.2248C108.506 80.5371 107.637 80.63 107.494 81.2798C107.367 81.8622 107.958 82.318 108.346 82.7653C109.426 83.9975 108.971 86.2257 107.494 86.9262C107.156 87.0866 106.742 87.2216 106.616 87.5761C106.523 87.8293 106.616 88.1078 106.7 88.361C106.835 88.8505 106.886 89.3654 106.835 89.8718C106.818 90.0406 106.785 90.2347 106.65 90.3444C106.531 90.4457 106.363 90.4626 106.202 90.471C104.168 90.5638 103.189 89.838 101.949 91.6104C101.83 91.7792 101.704 91.9564 101.527 92.0577C101.358 92.159 101.155 92.1843 100.97 92.2012C99.5685 92.3194 98.657 91.4416 97.3825 91.2812C95.6101 91.0534 95.2388 91.9649 93.6774 92.6992C91.2213 93.8554 90.0313 93.138 89.5671 91.4669V91.5007Z" fill="#EBEBEB"/>
<path d="M93.2467 101.856C93.2467 101.856 98.336 109.047 100.083 111.326C101.839 113.605 110.608 127.809 111.798 137.203C111.924 138.208 112.051 139.068 112.169 139.82C108.397 164.718 108.987 210.26 109.122 218.058H121.073C121.183 209.264 122.196 128.89 122.576 126.434C122.972 123.834 127.969 113.951 135.683 109.883C143.397 105.823 150.065 92.3783 150.065 92.3783H147.609C147.609 92.3783 143.051 100.624 136.561 105.182C135.616 105.84 134.645 106.397 133.641 106.912C133.877 99.4848 131.058 92.3783 131.058 92.3783L129.733 93.6021C131.522 100.945 131.286 105.646 130.746 108.347C128.568 109.436 126.306 110.702 124.036 112.837C117.309 104.085 113.52 84.0649 113.52 84.0649L111.798 85.0102C111.798 85.0102 112.355 90.4456 114.026 97.2904C115.284 102.473 118.997 112.221 120.727 116.652C119.014 119.032 117.309 122.121 115.646 126.197C115.461 125.91 115.241 125.64 114.997 125.421C110.616 121.454 102.37 102.726 102.37 102.726C100.379 98.3707 103.425 86.943 103.425 86.943H101.121L100.092 96.9359L94.3017 90.6228L93.2467 91.5006L99.3826 99.392L102.539 109.393L94.2933 100.27L93.2383 101.848L93.2467 101.856Z" fill="#E6E6E6"/>
<path d="M298.018 137.456C298.111 137.127 298.161 136.756 298.187 136.342C298.322 134.03 300.533 134.401 302.407 134.08C303.875 133.835 299.993 130.13 302.947 128.94C303.495 128.721 304.095 128.468 304.373 127.944C304.744 127.252 304.373 126.349 303.732 125.893C303.09 125.438 302.271 125.345 301.487 125.328C301.005 124.746 301.394 123.859 301.866 123.26C302.331 122.661 302.904 121.977 302.727 121.243C302.457 120.129 300.904 120.087 299.773 120.306C299.36 119.631 299.368 118.787 299.166 118.027C298.963 117.259 298.355 116.457 297.57 116.55C296.828 116.643 296.38 117.479 295.655 117.648C294.811 117.85 294.085 117.099 293.418 116.542C292.76 115.985 291.603 115.63 291.148 116.373C290.877 116.812 291.038 117.428 290.751 117.867C290.261 118.618 289.097 118.154 288.371 117.622C287.645 117.091 286.497 116.609 285.991 117.344C285.839 117.572 285.797 117.859 285.712 118.12C285.366 119.108 284.303 119.597 283.476 120.23C282.648 120.863 281.99 122.121 282.691 122.897C283.037 123.277 283.644 123.429 283.822 123.918C284.041 124.526 283.417 125.066 282.927 125.488C282.108 126.18 281.965 128.265 283.045 128.831C283.501 129.067 284.159 129.143 284.277 129.641C284.379 130.088 283.923 130.434 283.619 130.78C282.792 131.725 283.138 133.43 284.277 133.979C284.539 134.106 284.851 134.207 284.953 134.477C285.02 134.671 284.953 134.882 284.894 135.085C284.792 135.456 284.75 135.853 284.792 136.241C284.801 136.376 284.834 136.519 284.936 136.604C285.029 136.68 285.155 136.697 285.282 136.697C286.843 136.764 287.594 136.216 288.548 137.574C288.641 137.701 288.734 137.836 288.869 137.92C288.995 137.996 289.147 138.013 289.299 138.03C290.371 138.115 291.072 137.448 292.051 137.321C293.409 137.144 293.696 137.853 294.895 138.41C296.777 139.296 297.689 138.748 298.043 137.465L298.018 137.456Z" fill="#EBEBEB"/>
<path d="M280.058 135.515C280.151 135.186 280.201 134.814 280.227 134.401C280.362 132.088 282.573 132.46 284.447 132.139C285.915 131.894 282.033 128.189 284.987 126.999C285.535 126.779 286.135 126.526 286.413 126.003C286.784 125.311 286.413 124.408 285.772 123.952C285.13 123.496 284.312 123.403 283.527 123.387C283.046 122.804 283.434 121.918 283.906 121.319C284.371 120.72 284.945 120.036 284.767 119.302C284.497 118.188 282.944 118.145 281.813 118.365C281.4 117.69 281.408 116.846 281.206 116.086C281.003 115.318 280.395 114.516 279.61 114.609C278.868 114.702 278.42 115.537 277.695 115.706C276.851 115.909 276.125 115.158 275.458 114.6C274.8 114.043 273.643 113.689 273.188 114.432C272.918 114.871 273.078 115.487 272.791 115.926C272.301 116.677 271.137 116.213 270.411 115.681C269.685 115.149 268.537 114.668 268.031 115.402C267.879 115.63 267.837 115.917 267.752 116.179C267.406 117.166 266.343 117.656 265.516 118.289C264.689 118.922 264.03 120.179 264.731 120.956C265.077 121.336 265.684 121.488 265.862 121.977C266.081 122.585 265.457 123.125 264.967 123.547C264.148 124.239 264.005 126.324 265.085 126.889C265.541 127.125 266.199 127.201 266.317 127.699C266.419 128.147 265.963 128.493 265.659 128.839C264.832 129.784 265.178 131.489 266.317 132.038C266.579 132.164 266.891 132.265 266.993 132.535C267.06 132.73 266.993 132.941 266.934 133.143C266.832 133.515 266.79 133.911 266.832 134.299C266.841 134.434 266.874 134.578 266.976 134.662C267.069 134.738 267.195 134.755 267.322 134.755C268.883 134.823 269.634 134.274 270.588 135.633C270.681 135.76 270.774 135.895 270.909 135.979C271.035 136.055 271.187 136.072 271.339 136.089C272.411 136.173 273.112 135.506 274.091 135.38C275.45 135.203 275.736 135.911 276.935 136.469C278.817 137.355 279.729 136.806 280.083 135.523L280.058 135.515Z" fill="#EBEBEB"/>
<path d="M278.327 124.07C278.42 123.741 278.471 123.37 278.496 122.956C278.631 120.644 280.842 121.015 282.716 120.694C284.185 120.45 280.302 116.745 283.256 115.555C283.805 115.335 284.404 115.082 284.683 114.559C285.054 113.867 284.683 112.963 284.041 112.508C283.4 112.052 282.581 111.959 281.796 111.942C281.315 111.36 281.703 110.474 282.176 109.874C282.64 109.275 283.214 108.592 283.037 107.857C282.767 106.743 281.214 106.701 280.083 106.92C279.669 106.245 279.678 105.401 279.475 104.642C279.273 103.874 278.665 103.072 277.88 103.165C277.137 103.257 276.69 104.093 275.964 104.262C275.12 104.464 274.394 103.713 273.727 103.156C273.069 102.599 271.913 102.245 271.457 102.987C271.187 103.426 271.347 104.042 271.06 104.481C270.571 105.232 269.406 104.768 268.68 104.236C267.955 103.705 266.807 103.224 266.3 103.958C266.148 104.186 266.106 104.473 266.022 104.734C265.676 105.722 264.612 106.211 263.785 106.844C262.958 107.477 262.3 108.735 263 109.511C263.346 109.891 263.954 110.043 264.131 110.533C264.351 111.14 263.726 111.681 263.237 112.103C262.418 112.795 262.274 114.879 263.355 115.445C263.81 115.681 264.469 115.757 264.587 116.255C264.688 116.702 264.232 117.048 263.929 117.394C263.102 118.34 263.448 120.045 264.587 120.593C264.849 120.72 265.161 120.821 265.262 121.091C265.33 121.285 265.262 121.496 265.203 121.699C265.102 122.07 265.06 122.467 265.102 122.855C265.11 122.99 265.144 123.134 265.245 123.218C265.338 123.294 265.465 123.311 265.591 123.311C267.153 123.378 267.904 122.83 268.858 124.189C268.95 124.315 269.043 124.45 269.178 124.535C269.305 124.611 269.457 124.628 269.609 124.644C270.681 124.729 271.381 124.062 272.36 123.935C273.719 123.758 274.006 124.467 275.204 125.024C277.087 125.91 277.998 125.362 278.353 124.079L278.327 124.07Z" fill="#EBEBEB"/>
<path d="M266.503 129.767C266.596 129.438 266.647 129.067 266.672 128.653C266.807 126.341 269.018 126.712 270.892 126.391C272.36 126.146 268.478 122.441 271.432 121.251C271.981 121.032 272.58 120.779 272.858 120.255C273.23 119.563 272.858 118.66 272.217 118.204C271.576 117.749 270.757 117.656 269.972 117.639C269.491 117.057 269.879 116.17 270.352 115.571C270.816 114.972 271.39 114.288 271.213 113.554C270.943 112.44 269.39 112.398 268.259 112.617C267.845 111.942 267.853 111.098 267.651 110.338C267.448 109.57 266.841 108.769 266.056 108.861C265.313 108.954 264.866 109.79 264.14 109.959C263.296 110.161 262.57 109.41 261.903 108.853C261.245 108.296 260.089 107.941 259.633 108.684C259.363 109.123 259.523 109.739 259.236 110.178C258.747 110.929 257.582 110.465 256.856 109.933C256.13 109.402 254.982 108.92 254.476 109.655C254.324 109.883 254.282 110.17 254.198 110.431C253.852 111.419 252.788 111.908 251.961 112.541C251.134 113.174 250.476 114.432 251.176 115.208C251.522 115.588 252.13 115.74 252.307 116.23C252.526 116.837 251.902 117.377 251.412 117.799C250.594 118.491 250.45 120.576 251.531 121.142C251.986 121.378 252.645 121.454 252.763 121.952C252.864 122.399 252.408 122.745 252.104 123.091C251.277 124.036 251.623 125.741 252.763 126.29C253.024 126.417 253.337 126.518 253.438 126.788C253.505 126.982 253.438 127.193 253.379 127.387C253.278 127.759 253.235 128.155 253.278 128.543C253.286 128.678 253.32 128.822 253.421 128.906C253.514 128.982 253.641 128.999 253.767 128.999C255.329 129.067 256.08 128.518 257.033 129.877C257.126 130.004 257.219 130.139 257.354 130.223C257.481 130.299 257.633 130.316 257.785 130.333C258.856 130.417 259.557 129.75 260.536 129.624C261.895 129.447 262.182 130.155 263.38 130.713C265.262 131.599 266.174 131.05 266.528 129.767H266.503Z" fill="#EBEBEB"/>
<path d="M254.544 127.143C254.636 126.814 254.687 126.442 254.712 126.029C254.847 123.716 257.059 124.087 258.932 123.767C260.401 123.522 256.519 119.817 259.473 118.627C260.021 118.407 260.62 118.154 260.899 117.631C261.27 116.939 260.899 116.036 260.257 115.58C259.616 115.124 258.797 115.031 258.012 115.014C257.531 114.432 257.92 113.546 258.392 112.947C258.856 112.347 259.43 111.664 259.253 110.93C258.983 109.815 257.43 109.773 256.299 109.993C255.886 109.317 255.894 108.473 255.691 107.714C255.489 106.946 254.881 106.144 254.096 106.237C253.354 106.33 252.906 107.165 252.18 107.334C251.336 107.537 250.611 106.785 249.944 106.228C249.285 105.671 248.129 105.317 247.673 106.06C247.403 106.499 247.564 107.115 247.277 107.554C246.787 108.305 245.623 107.84 244.897 107.309C244.171 106.777 243.023 106.296 242.517 107.03C242.365 107.258 242.322 107.545 242.238 107.807C241.892 108.794 240.829 109.284 240.001 109.917C239.174 110.55 238.516 111.807 239.217 112.584C239.563 112.964 240.17 113.115 240.348 113.605C240.567 114.213 239.942 114.753 239.453 115.175C238.634 115.867 238.491 117.952 239.571 118.517C240.027 118.753 240.694 118.829 240.803 119.327C240.905 119.775 240.449 120.121 240.145 120.467C239.318 121.412 239.664 123.117 240.803 123.665C241.065 123.792 241.377 123.893 241.478 124.163C241.546 124.358 241.478 124.569 241.419 124.763C241.318 125.134 241.276 125.531 241.318 125.919C241.327 126.054 241.36 126.197 241.462 126.282C241.554 126.358 241.681 126.375 241.808 126.375C243.369 126.442 244.12 125.894 245.074 127.252C245.167 127.379 245.26 127.514 245.395 127.599C245.521 127.674 245.673 127.691 245.825 127.708C246.897 127.793 247.597 127.126 248.577 126.999C249.935 126.822 250.222 127.531 251.421 128.088C253.303 128.974 254.214 128.426 254.569 127.143H254.544Z" fill="#EBEBEB"/>
<path d="M254.383 139.929C254.451 139.676 254.493 139.381 254.518 139.051C254.628 137.228 256.367 137.524 257.844 137.271C259 137.076 255.945 134.165 258.266 133.219C258.696 133.042 259.169 132.848 259.388 132.434C259.684 131.894 259.388 131.177 258.882 130.822C258.375 130.468 257.734 130.392 257.118 130.375C256.738 129.911 257.05 129.219 257.413 128.746C257.785 128.274 258.232 127.742 258.088 127.159C257.877 126.282 256.654 126.248 255.767 126.417C255.438 125.885 255.447 125.227 255.286 124.619C255.126 124.02 254.645 123.387 254.029 123.463C253.446 123.53 253.092 124.189 252.518 124.324C251.851 124.484 251.277 123.893 250.763 123.454C250.239 123.015 249.328 122.737 248.973 123.319C248.762 123.665 248.889 124.146 248.661 124.492C248.273 125.083 247.361 124.72 246.787 124.298C246.222 123.876 245.31 123.496 244.914 124.079C244.787 124.256 244.762 124.484 244.694 124.687C244.424 125.463 243.589 125.851 242.93 126.349C242.272 126.847 241.757 127.843 242.314 128.451C242.584 128.755 243.065 128.873 243.2 129.253C243.369 129.734 242.88 130.156 242.491 130.485C241.85 131.033 241.732 132.671 242.584 133.118C242.939 133.304 243.462 133.363 243.555 133.76C243.631 134.114 243.276 134.384 243.04 134.654C242.39 135.397 242.66 136.739 243.555 137.169C243.757 137.271 244.011 137.347 244.087 137.558C244.137 137.709 244.087 137.878 244.036 138.03C243.951 138.326 243.926 138.638 243.951 138.942C243.96 139.043 243.985 139.161 244.061 139.229C244.137 139.288 244.238 139.305 244.331 139.305C245.555 139.355 246.154 138.925 246.897 139.997C246.973 140.098 247.041 140.208 247.15 140.267C247.252 140.326 247.37 140.343 247.488 140.351C248.332 140.419 248.88 139.895 249.657 139.794C250.729 139.659 250.957 140.208 251.894 140.655C253.379 141.356 254.096 140.925 254.375 139.912L254.383 139.929Z" fill="#EBEBEB"/>
<path d="M247.682 135.515C247.775 135.186 247.825 134.814 247.851 134.401C247.986 132.088 250.197 132.46 252.071 132.139C253.539 131.894 249.657 128.189 252.611 126.999C253.159 126.779 253.759 126.526 254.037 126.003C254.408 125.311 254.037 124.408 253.396 123.952C252.754 123.496 251.936 123.403 251.151 123.387C250.67 122.804 251.058 121.918 251.53 121.319C251.995 120.72 252.569 120.036 252.391 119.302C252.121 118.188 250.568 118.145 249.437 118.365C249.024 117.69 249.032 116.846 248.83 116.086C248.627 115.318 248.019 114.516 247.234 114.609C246.492 114.702 246.044 115.537 245.319 115.706C244.475 115.909 243.749 115.158 243.082 114.6C242.424 114.043 241.267 113.689 240.812 114.432C240.542 114.871 240.702 115.487 240.415 115.926C239.925 116.677 238.761 116.213 238.035 115.681C237.309 115.149 236.161 114.668 235.655 115.402C235.503 115.63 235.461 115.917 235.376 116.179C235.03 117.166 233.967 117.656 233.14 118.289C232.313 118.922 231.654 120.179 232.355 120.956C232.701 121.336 233.308 121.488 233.486 121.977C233.705 122.585 233.081 123.125 232.591 123.547C231.772 124.239 231.629 126.324 232.709 126.889C233.165 127.125 233.823 127.201 233.941 127.699C234.043 128.147 233.587 128.493 233.283 128.839C232.456 129.784 232.802 131.489 233.941 132.038C234.203 132.164 234.515 132.265 234.617 132.535C234.684 132.73 234.617 132.941 234.558 133.143C234.456 133.515 234.414 133.911 234.456 134.299C234.465 134.434 234.499 134.578 234.6 134.662C234.693 134.738 234.819 134.755 234.946 134.755C236.507 134.823 237.258 134.274 238.212 135.633C238.305 135.76 238.398 135.895 238.533 135.979C238.659 136.055 238.811 136.072 238.963 136.089C240.035 136.173 240.736 135.506 241.715 135.38C243.074 135.203 243.36 135.911 244.559 136.469C246.441 137.355 247.353 136.806 247.707 135.523L247.682 135.515Z" fill="#EBEBEB"/>
<path d="M266.503 115.698C266.596 115.369 266.647 114.997 266.672 114.584C266.807 112.271 269.018 112.643 270.892 112.322C272.36 112.077 268.478 108.372 271.432 107.182C271.981 106.963 272.58 106.709 272.858 106.186C273.23 105.494 272.858 104.591 272.217 104.135C271.576 103.679 270.757 103.587 269.972 103.57C269.491 102.987 269.879 102.101 270.352 101.502C270.816 100.903 271.39 100.219 271.213 99.4847C270.943 98.3706 269.39 98.3284 268.259 98.5478C267.845 97.8726 267.853 97.0286 267.651 96.269C267.448 95.501 266.841 94.6992 266.056 94.792C265.313 94.8849 264.866 95.7204 264.14 95.8892C263.296 96.0918 262.57 95.3406 261.903 94.7836C261.245 94.2266 260.089 93.8721 259.633 94.6148C259.363 95.0537 259.523 95.6698 259.236 96.1087C258.747 96.8598 257.582 96.3956 256.856 95.8639C256.13 95.3322 254.982 94.8511 254.476 95.5854C254.324 95.8133 254.282 96.1002 254.198 96.3619C253.852 97.3494 252.788 97.8389 251.961 98.4719C251.134 99.1049 250.476 100.362 251.176 101.139C251.522 101.519 252.13 101.671 252.307 102.16C252.526 102.768 251.902 103.308 251.412 103.73C250.594 104.422 250.45 106.507 251.531 107.072C251.986 107.309 252.645 107.385 252.763 107.882C252.864 108.33 252.408 108.676 252.104 109.022C251.277 109.967 251.623 111.672 252.763 112.221C253.024 112.347 253.337 112.449 253.438 112.719C253.505 112.913 253.438 113.124 253.379 113.326C253.278 113.698 253.235 114.094 253.278 114.483C253.286 114.618 253.32 114.761 253.421 114.845C253.514 114.921 253.641 114.938 253.767 114.938C255.329 115.006 256.08 114.457 257.033 115.816C257.126 115.943 257.219 116.078 257.354 116.162C257.481 116.238 257.633 116.255 257.785 116.272C258.856 116.356 259.557 115.689 260.536 115.563C261.895 115.386 262.182 116.095 263.38 116.652C265.262 117.538 266.174 116.989 266.528 115.706L266.503 115.698Z" fill="#EBEBEB"/>
<path d="M281.864 116.483C281.957 116.154 282.007 115.783 282.033 115.369C282.168 113.056 284.379 113.428 286.253 113.107C287.721 112.862 283.839 109.157 286.793 107.967C287.341 107.748 287.941 107.494 288.219 106.971C288.591 106.279 288.219 105.376 287.578 104.92C286.936 104.465 286.118 104.372 285.333 104.355C284.852 103.772 285.24 102.886 285.713 102.287C286.177 101.688 286.751 101.004 286.573 100.27C286.303 99.1558 284.75 99.1136 283.619 99.333C283.206 98.6578 283.214 97.8138 283.012 97.0542C282.809 96.2862 282.202 95.4844 281.417 95.5772C280.674 95.67 280.227 96.5056 279.501 96.6744C278.657 96.877 277.931 96.1258 277.264 95.5688C276.606 95.0117 275.449 94.6572 274.994 95.4C274.724 95.8388 274.884 96.455 274.597 96.8938C274.108 97.645 272.943 97.1808 272.217 96.6491C271.491 96.1174 270.343 95.6363 269.837 96.3706C269.685 96.5984 269.643 96.8854 269.558 97.147C269.212 98.1345 268.149 98.624 267.322 99.257C266.495 99.89 265.836 101.148 266.537 101.924C266.883 102.304 267.491 102.456 267.668 102.945C267.887 103.553 267.263 104.093 266.773 104.515C265.955 105.207 265.811 107.292 266.891 107.857C267.347 108.094 268.005 108.17 268.124 108.668C268.225 109.115 267.769 109.461 267.465 109.807C266.638 110.752 266.984 112.457 268.124 113.006C268.385 113.132 268.698 113.234 268.799 113.504C268.866 113.698 268.799 113.909 268.74 114.111C268.638 114.483 268.596 114.879 268.638 115.268C268.647 115.403 268.681 115.546 268.782 115.631C268.875 115.707 269.001 115.723 269.128 115.723C270.689 115.791 271.441 115.242 272.394 116.601C272.487 116.728 272.58 116.863 272.715 116.947C272.842 117.023 272.993 117.04 273.145 117.057C274.217 117.141 274.918 116.475 275.897 116.348C277.256 116.171 277.543 116.88 278.741 117.437C280.623 118.323 281.535 117.774 281.889 116.492L281.864 116.483Z" fill="#EBEBEB"/>
<path d="M291.19 122.771C291.283 122.442 291.334 122.07 291.359 121.657C291.494 119.344 293.705 119.715 295.579 119.395C297.047 119.15 293.165 115.445 296.119 114.255C296.668 114.035 297.267 113.782 297.545 113.259C297.917 112.567 297.545 111.664 296.904 111.208C296.263 110.752 295.444 110.659 294.659 110.642C294.178 110.06 294.566 109.174 295.039 108.575C295.503 107.975 296.077 107.292 295.9 106.557C295.63 105.443 294.077 105.401 292.946 105.621C292.532 104.945 292.54 104.101 292.338 103.342C292.135 102.574 291.528 101.772 290.743 101.865C290 101.958 289.553 102.793 288.827 102.962C287.983 103.165 287.257 102.413 286.59 101.856C285.932 101.299 284.776 100.945 284.32 101.688C284.05 102.126 284.21 102.743 283.923 103.181C283.434 103.933 282.269 103.468 281.543 102.937C280.817 102.405 279.669 101.924 279.163 102.658C279.011 102.886 278.969 103.173 278.885 103.435C278.539 104.422 277.475 104.912 276.648 105.545C275.821 106.178 275.163 107.435 275.863 108.212C276.209 108.591 276.817 108.743 276.994 109.233C277.213 109.841 276.589 110.381 276.099 110.803C275.281 111.495 275.137 113.58 276.218 114.145C276.673 114.381 277.332 114.457 277.45 114.955C277.551 115.403 277.095 115.749 276.791 116.095C275.964 117.04 276.31 118.745 277.45 119.293C277.711 119.42 278.024 119.521 278.125 119.791C278.193 119.985 278.125 120.196 278.066 120.399C277.965 120.77 277.922 121.167 277.965 121.555C277.973 121.69 278.007 121.834 278.108 121.918C278.201 121.994 278.328 122.011 278.454 122.011C280.016 122.079 280.767 121.53 281.72 122.889C281.813 123.015 281.906 123.15 282.041 123.235C282.168 123.311 282.32 123.328 282.472 123.345C283.543 123.429 284.244 122.762 285.223 122.636C286.582 122.458 286.869 123.167 288.067 123.724C289.949 124.611 290.861 124.062 291.215 122.779L291.19 122.771Z" fill="#EBEBEB"/>
<path d="M288.363 130.721C288.363 130.721 284.463 136.241 283.113 137.988C281.771 139.735 275.036 150.639 274.124 157.847C274.023 158.615 273.93 159.282 273.838 159.856C276.732 178.956 276.277 213.906 276.175 219.89H267.01C266.925 213.146 266.149 151.475 265.862 149.593C265.558 147.601 261.726 140.013 255.801 136.899C249.885 133.785 244.762 123.463 244.762 123.463H246.652C246.652 123.463 250.146 129.784 255.126 133.287C255.852 133.793 256.595 134.215 257.363 134.612C257.185 128.915 259.346 123.463 259.346 123.463L260.367 124.408C258.992 130.037 259.169 133.65 259.591 135.717C261.262 136.553 262.992 137.524 264.739 139.161C269.904 132.443 272.808 117.09 272.808 117.09L274.133 117.816C274.133 117.816 273.702 121.986 272.428 127.235C271.457 131.21 268.613 138.697 267.288 142.09C268.605 143.921 269.913 146.284 271.187 149.416C271.331 149.196 271.491 148.994 271.685 148.816C275.053 145.778 281.374 131.405 281.374 131.405C282.902 128.062 280.564 119.293 280.564 119.293H282.328L283.122 126.965L287.561 122.121L288.371 122.796L283.662 128.847L281.239 136.519L287.561 129.522L288.371 130.729L288.363 130.721Z" fill="#E6E6E6"/>
<path d="M55.6128 233.596H61.4448L61.4448 45.6711H55.6128L55.6128 233.596Z" fill="#E6E6E6"/>
<path d="M8.45864 233.672V244.594H316.156V233.672C316.156 231.773 314.831 230.246 312.932 230.246H11.6743C9.77528 230.246 8.4502 231.773 8.4502 233.672H8.45864Z" fill="#E0E0E0"/>
<path d="M298.617 230.246H279.484V244.594H298.617V230.246Z" fill="#F5F5F5"/>
<path d="M261.946 230.246H243.614V244.594H261.946V230.246Z" fill="#F5F5F5"/>
<path d="M226.076 230.246H206.942V244.594H226.076V230.246Z" fill="#F5F5F5"/>
<path d="M189.404 230.246H171.072V244.594H189.404V230.246Z" fill="#F5F5F5"/>
<path d="M153.534 230.246H135.202V244.594H153.534V230.246Z" fill="#F5F5F5"/>
<path d="M117.664 230.246H98.5303V244.594H117.664V230.246Z" fill="#F5F5F5"/>
<path d="M80.9923 230.246H62.6606V244.594H80.9923V230.246Z" fill="#F5F5F5"/>
<path d="M45.1305 230.246H25.9971V244.594H45.1305V230.246Z" fill="#F5F5F5"/>
<path d="M58.5333 74.8992C69.0492 74.8992 77.574 66.3744 77.574 55.8585C77.574 45.3427 69.0492 36.8179 58.5333 36.8179C48.0175 36.8179 39.4927 45.3427 39.4927 55.8585C39.4927 66.3744 48.0175 74.8992 58.5333 74.8992Z" fill="#E0E0E0"/>
<path d="M58.5334 71.4388C67.1381 71.4388 74.1136 64.4633 74.1136 55.8586C74.1136 47.2538 67.1381 40.2783 58.5334 40.2783C49.9286 40.2783 42.9531 47.2538 42.9531 55.8586C42.9531 64.4633 49.9286 71.4388 58.5334 71.4388Z" fill="#EBEBEB"/>
<path d="M50.4141 63.3699L51.9755 59.9011C53.655 61.1249 56.1533 61.9773 58.5418 61.9773C61.2679 61.9773 62.382 61.0658 62.382 59.842C62.382 56.12 50.8107 58.6773 50.8107 51.2838C50.8107 47.8994 53.5369 45.0889 59.1917 45.0889C61.6899 45.0889 64.2472 45.6881 66.0956 46.8528L64.6777 50.347C62.8293 49.292 60.9303 48.7856 59.1663 48.7856C56.4402 48.7856 55.3852 49.8068 55.3852 51.056C55.3852 54.7189 66.9565 52.1954 66.9565 59.496C66.9565 62.8213 64.1966 65.6656 58.5165 65.6656C55.3599 65.6656 52.178 64.7288 50.4141 63.3615V63.3699Z" fill="#E0E0E0"/>
<path d="M168 282.861C258.378 282.861 331.643 278.583 331.643 273.307C331.643 268.03 258.378 263.752 168 263.752C77.6225 263.752 4.35693 268.03 4.35693 273.307C4.35693 278.583 77.6225 282.861 168 282.861Z" fill="#F5F5F5"/>
<path d="M181.867 10.5103H310.83C315.675 10.5103 319.608 14.4433 319.608 19.2878V265.263C319.608 270.108 315.675 274.041 310.83 274.041H181.867C177.022 274.041 173.089 270.108 173.089 265.263V19.2878C173.089 14.4433 177.022 10.5103 181.867 10.5103Z" fill="#263238"/>
<path d="M314.662 19.3383V264.748C314.662 266.765 313.041 268.335 311.024 268.335H181.285C179.428 268.335 178.035 266.9 178.035 265.044V19.0429C178.035 17.4393 179.217 16.0298 180.82 16.0298H213.255C214.175 16.0298 215.002 16.629 215.34 17.4899L216.682 20.7984C217.019 21.6508 217.855 22.2416 218.767 22.2416H273.989C274.909 22.2416 275.737 21.6761 276.074 20.8237L277.416 17.4983C277.754 16.6375 278.589 16.0298 279.501 16.0298H311.472C313.244 16.0298 314.653 17.5659 314.653 19.3383H314.662Z" fill="#003F73"/>
<path opacity="0.3" d="M314.662 31.3657H178.027V254.536H314.662V31.3657Z" fill="white"/>
<path opacity="0.6" d="M193.092 25.9214H194.78V23.6679H193.092V25.9214Z" fill="white"/>
<path opacity="0.6" d="M190.333 25.9214H192.021V22.9167H190.333V25.9214Z" fill="white"/>
<path opacity="0.6" d="M187.581 25.9214H189.269V22.174H187.581V25.9214Z" fill="white"/>
<path opacity="0.6" d="M184.838 25.9131H186.526V21.4146H184.838V25.9131Z" fill="white"/>
<path opacity="0.6" d="M299.2 22.8496H298.195V25.1031H299.2V22.8496Z" fill="white"/>
<path opacity="0.6" d="M299.892 25.9214H307.859V22.0305H299.892V25.9214Z" fill="white"/>
<path opacity="0.4" d="M309.058 52.0435H183.631C181.594 52.0435 179.942 53.6948 179.942 55.7317V121.488C179.942 123.525 181.594 125.176 183.631 125.176H309.058C311.094 125.176 312.746 123.525 312.746 121.488V55.7317C312.746 53.6948 311.094 52.0435 309.058 52.0435Z" fill="white"/>
<path d="M279.163 53.9678H213.525C211.829 53.9678 210.453 55.3432 210.453 57.0399V120.188C210.453 121.885 211.829 123.26 213.525 123.26H279.163C280.86 123.26 282.235 121.885 282.235 120.188V57.0399C282.235 55.3432 280.86 53.9678 279.163 53.9678Z" fill="white"/>
<path d="M199.641 90.4793C199.641 93.0366 197.565 95.1128 195.008 95.1128C192.45 95.1128 190.374 93.0366 190.374 90.4793C190.374 87.9219 192.45 85.8457 195.008 85.8457C197.565 85.8457 199.641 87.9219 199.641 90.4793Z" fill="#263238"/>
<path opacity="0.2" d="M197.776 90.4794C197.776 92.0155 196.535 93.2562 194.999 93.2562C193.463 93.2562 192.223 92.0155 192.223 90.4794C192.223 88.9433 193.463 87.7026 194.999 87.7026C196.535 87.7026 197.776 88.9433 197.776 90.4794Z" fill="black"/>
<path d="M183.858 83.609L185.065 81.8282C185.065 81.8282 189.648 82.3852 191.649 80.4946H197.489L197.776 80.7141L191.151 85.8456L185.065 84.9932L183.858 83.6006V83.609Z" fill="#263238"/>
<path d="M195.008 84.5546H197.219L200.612 89.8971H201.388L198.941 84.5546V82.605H196.881L195.008 84.5546Z" fill="#263238"/>
<path d="M179.942 78.4863L180.061 78.8914L179.942 79.4316V78.4863Z" fill="#263238"/>
<path d="M181.065 75.5068L180.559 76.4267L181.352 76.8065L181.563 77.3805L181.31 77.6758L182.187 78.3173C182.187 78.3173 182.356 78.7646 181.9 78.8912L180.812 78.3173H179.942V76.3423H180.314L180.77 75.338C180.77 75.338 180.398 74.4265 181.985 73.7935L182.356 74.0888V74.8822L181.858 75.338L181.065 75.5068Z" fill="#263238"/>
<path d="M180.525 80.0982L179.942 80.9253V79.5327L180.525 80.0982Z" fill="#407BFF"/>
<path d="M200.612 81.212L199.11 83.4317L198.941 83.2967L198.502 82.9337L195.658 84.4361L195.404 84.5542L189.648 87.2212L190.037 87.7023H193.041L193.379 88.2341L192.408 89.5085L190.594 91.897L189.876 92.8423H179.942V84.7568C180.82 85.3644 181.799 85.9384 182.272 85.8793C182.331 85.8793 182.373 85.8709 182.415 85.8455C182.474 85.8118 182.533 85.778 182.576 85.7358C182.593 85.7274 182.601 85.7105 182.618 85.7021C182.66 85.6599 182.694 85.6176 182.719 85.5754C182.736 85.5501 182.753 85.5248 182.761 85.4995C182.787 85.4489 182.804 85.3982 182.812 85.3476C182.888 84.9762 182.635 84.6049 182.635 84.6049L183.859 83.6089C190.695 83.7693 192.594 82.0475 192.594 82.0475L197.759 80.7056H197.776L200.604 81.212H200.612Z" fill="#407BFF"/>
<path d="M193.379 88.2343L192.408 89.5087L190.594 91.8972L189.876 92.8425H179.942V92.4121L181.689 92.1167L181.36 90.2261L185.732 87.0273L187.479 87.7025L189.648 87.2215L190.037 87.7025H193.041L193.379 88.2343Z" fill="#263238"/>
<path d="M182.272 85.8794C181.833 86.1157 181.411 86.1916 181.411 86.1916L179.942 85.4574V84.7568C180.82 85.3645 181.799 85.9384 182.272 85.8794Z" fill="#263238"/>
<path opacity="0.2" d="M180.525 80.0982L179.942 80.9253V79.5327L180.525 80.0982Z" fill="black"/>
<path opacity="0.2" d="M184.694 84.9932L182.027 87.7025L179.942 86.5293V84.7569C180.82 85.3646 181.799 85.9385 182.272 85.8794C182.331 85.8794 182.373 85.871 182.415 85.8457C182.474 85.8119 182.533 85.7781 182.576 85.7359C182.593 85.7275 182.601 85.7106 182.618 85.7022C182.66 85.66 182.694 85.6178 182.719 85.5756C182.736 85.5503 182.753 85.5249 182.761 85.4996C182.787 85.449 182.804 85.3983 182.812 85.3477C182.888 84.9763 182.635 84.605 182.635 84.605L184.694 84.9932Z" fill="black"/>
<path opacity="0.2" d="M200.612 81.2124L199.11 83.4321L198.941 83.2971L198.502 82.9342L195.658 84.4365L195.404 84.5546L189.648 87.2217L190.037 87.7028H193.041L193.379 88.2345L192.408 89.5089L190.594 91.8974L189.876 92.8427H179.942V87.1288L182.356 88.4202L185.648 86.2426L188.956 86.6646L190.703 85.7869L192.239 85.002L196.789 82.7063L196.983 82.605L198.198 81.9889L200.612 81.2124Z" fill="black"/>
<path d="M220.758 89.8122H270.85L269.845 80.8405L255.413 77.7515L242.002 80.0893L225.848 81.6761L221.839 86.259L220.758 89.8122Z" fill="#263238"/>
<path opacity="0.2" d="M220.758 89.8122H270.85L269.845 80.8405L255.413 77.7515L242.002 80.0893L225.848 81.6761L221.839 86.259L220.758 89.8122Z" fill="black"/>
<path d="M234.693 89.8125C234.693 92.7412 232.321 95.1128 229.393 95.1128C226.464 95.1128 224.092 92.7412 224.092 89.8125C224.092 86.8838 226.464 84.5122 229.393 84.5122C232.321 84.5122 234.693 86.8838 234.693 89.8125Z" fill="#263238"/>
<path opacity="0.2" d="M229.392 93.3572C231.35 93.3572 232.937 91.7701 232.937 89.8124C232.937 87.8546 231.35 86.2676 229.392 86.2676C227.435 86.2676 225.848 87.8546 225.848 89.8124C225.848 91.7701 227.435 93.3572 229.392 93.3572Z" fill="black"/>
<path d="M269.297 89.8125C269.297 92.7412 266.925 95.1128 263.997 95.1128C261.068 95.1128 258.696 92.7412 258.696 89.8125C258.696 86.8838 261.068 84.5122 263.997 84.5122C266.925 84.5122 269.297 86.8838 269.297 89.8125Z" fill="#263238"/>
<path opacity="0.2" d="M263.996 93.3572C265.954 93.3572 267.541 91.7701 267.541 89.8124C267.541 87.8546 265.954 86.2676 263.996 86.2676C262.039 86.2676 260.452 87.8546 260.452 89.8124C260.452 91.7701 262.039 93.3572 263.996 93.3572Z" fill="black"/>
<path d="M274.268 85.0945L273.686 89.2385L270.428 90.2682C270.428 90.2682 270.343 83.263 263.254 83.263C256.164 83.263 257.076 91.6101 257.076 91.6101H255.835L253.497 90.6058H238.187L236.853 91.6101H235.95C235.95 91.6101 236.701 83.263 229.392 83.263C222.083 83.263 223.012 91.6101 223.012 91.6101L218.834 89.8124L218.42 85.6009L220.167 84.5121L220.589 81.9548C220.775 81.8113 220.969 81.6763 221.163 81.5497C226.05 78.2749 232.735 77.8361 232.735 77.8361C238.482 71.9871 240.812 71.16 240.812 71.16C254.003 70.2401 266.587 71.658 266.587 71.658L270.428 76.5785L271.331 77.3128L272.268 78.0808C272.85 80.7563 272.681 83.263 272.681 83.263L274.268 85.0945Z" fill="#407BFF"/>
<path opacity="0.6" d="M224.793 81.8367L221.864 84.5122H220.167L220.589 81.9548C220.775 81.8114 220.969 81.6763 221.163 81.5497L223.29 81.229L224.793 81.8367Z" fill="white"/>
<path opacity="0.6" d="M272.681 83.2632L271.618 82.8665C271.618 80.6468 270.284 78.4186 270.284 78.4186L271.331 77.313L272.268 78.081C272.85 80.7565 272.681 83.2632 272.681 83.2632Z" fill="white"/>
<path d="M270.428 76.5785C263.482 78.2412 232.735 77.8361 232.735 77.8361C232.912 77.6588 233.081 77.4816 233.258 77.3128C236.423 74.1393 238.482 72.5695 239.639 71.8183C240.441 71.2866 240.812 71.16 240.812 71.16C254.004 70.2401 266.588 71.658 266.588 71.658L270.428 76.5785Z" fill="#263238"/>
<path opacity="0.6" d="M241.073 71.8184L236.06 77.3128H233.258C236.423 74.1394 238.482 72.5695 239.638 71.8184H241.073Z" fill="white"/>
<path opacity="0.6" d="M237.478 77.3128L241.901 71.8184H248.501L247.994 77.3128H237.478Z" fill="white"/>
<path opacity="0.6" d="M249.581 77.3128L250.163 71.8184H259.262L260.848 76.8064C260.848 76.8064 255.337 77.3212 249.581 77.3212V77.3128Z" fill="white"/>
<path opacity="0.6" d="M260.333 71.8184L262.021 76.6714C262.021 76.6714 267.364 76.3338 268.115 76.0046L265.879 72.9831C265.499 72.4682 264.883 72.2572 264.25 72.1644C261.996 71.8184 260.342 71.8184 260.342 71.8184H260.333Z" fill="white"/>
<path opacity="0.2" d="M274.268 85.0945L273.686 89.2385L270.428 90.2682C270.428 90.2682 270.343 83.263 263.254 83.263C256.164 83.263 257.076 91.6102 257.076 91.6102H255.835L253.497 90.6058H238.187L236.853 91.6102H235.95C235.95 91.6102 236.701 83.263 229.392 83.263C222.083 83.263 223.012 91.6102 223.012 91.6102L218.834 89.8124L218.42 85.6009H221.864C221.864 85.6009 224.371 81.5075 229.882 81.5075C235.393 81.5075 237.166 85.6009 237.166 85.6009H254.839C254.839 85.6009 257.844 81.4484 262.266 81.229C266.689 81.0095 269.297 82.8663 269.297 82.8663H271.618L272.681 83.263L274.268 85.0945Z" fill="black"/>
<path d="M312.746 80.3936V91.72H295.461C295.461 91.72 296.609 87.8461 297.503 85.2128C297.942 83.9046 298.322 82.8918 298.466 82.8158C300.753 81.5667 306.121 80.8156 312.746 80.3936Z" fill="#263238"/>
<path opacity="0.2" d="M312.746 80.3936V91.72H295.461C295.461 91.72 296.609 87.8461 297.503 85.2128C297.942 83.9046 298.322 82.8918 298.466 82.8158C300.753 81.5667 306.121 80.8156 312.746 80.3936Z" fill="black"/>
<path d="M305.066 95.1045C307.853 95.1045 310.113 92.8448 310.113 90.0574C310.113 87.2699 307.853 85.0103 305.066 85.0103C302.278 85.0103 300.019 87.2699 300.019 90.0574C300.019 92.8448 302.278 95.1045 305.066 95.1045Z" fill="#263238"/>
<path opacity="0.2" d="M305.066 94.5223C307.532 94.5223 309.531 92.5233 309.531 90.0575C309.531 87.5917 307.532 85.5928 305.066 85.5928C302.6 85.5928 300.601 87.5917 300.601 90.0575C300.601 92.5233 302.6 94.5223 305.066 94.5223Z" fill="white"/>
<path d="M306.256 75.5744C308.729 74.0636 310.864 72.8314 312.746 71.8354V93.214H311.1L310.822 91.7201L310.18 88.2681C309.801 86.2003 308.003 84.7064 305.901 84.7064H303.884C301.934 84.7064 300.23 85.9978 299.698 87.8714L298.609 91.7201L298.187 93.214L291.342 92.3278L292.212 86.5126L292.347 85.5927L293.68 84.7064L296.297 78.6972L298.727 77.9376L306.256 75.5744Z" fill="#407BFF"/>
<path opacity="0.7" d="M300.018 78.3595L296.803 83.8117L293.688 84.7064L296.305 78.6971L298.736 77.9375C299.495 78.1569 300.018 78.3595 300.018 78.3595Z" fill="white"/>
<path opacity="0.4" d="M312.746 73.3291V76.5869C310.965 76.6123 309.227 76.5194 307.733 76.2493C307.733 76.2493 310.147 74.8061 312.746 73.3291Z" fill="black"/>
<path opacity="0.2" d="M312.746 86.6478V93.2141H311.1L310.822 91.7202L310.18 88.2682C309.801 86.2004 308.003 84.7066 305.901 84.7066H303.884C301.934 84.7066 300.23 85.9979 299.698 87.8716L298.609 91.7202L298.187 93.2141L291.342 92.3279L292.212 86.5127L297.352 85.0104L297.503 85.213L298.466 86.4874C298.466 86.4874 300.145 83.2549 305.876 83.2549C310.45 83.2549 312.223 85.6772 312.746 86.6478Z" fill="black"/>
<path d="M258.603 116.542H234.094C231.891 116.542 230.11 114.761 230.11 112.558C230.11 110.356 231.891 108.575 234.094 108.575H258.603C260.806 108.575 262.587 110.356 262.587 112.558C262.587 114.761 260.806 116.542 258.603 116.542Z" fill="#003F73"/>
<path d="M312.746 34.6401H179.942V50.0009H312.746V34.6401Z" fill="#003F73"/>
<path opacity="0.6" d="M246.323 16.3507C246.323 17.3889 245.487 18.2244 244.449 18.2244C243.411 18.2244 242.576 17.3889 242.576 16.3507C242.576 15.3126 243.411 14.4771 244.449 14.4771C245.487 14.4771 246.323 15.3126 246.323 16.3507Z" fill="white"/>
<path opacity="0.6" d="M250.121 16.3508C250.121 17.0176 249.581 17.5493 248.923 17.5493C248.264 17.5493 247.724 17.0091 247.724 16.3508C247.724 15.6925 248.264 15.1523 248.923 15.1523C249.581 15.1523 250.121 15.6925 250.121 16.3508Z" fill="white"/>
<path opacity="0.2" d="M205.043 87.1203L209.153 92.6063V81.6343L205.043 87.1203Z" fill="black"/>
<path opacity="0.2" d="M287.645 87.1203L283.535 81.6343V92.6063L287.645 87.1203Z" fill="black"/>
<path d="M207.904 43.9663L208.259 43.173C208.698 43.5275 209.398 43.7807 210.082 43.7807C210.943 43.7807 211.306 43.4768 211.306 43.0633C211.306 41.8732 208.031 42.6497 208.031 40.6072C208.031 39.7126 208.74 38.9614 210.251 38.9614C210.909 38.9614 211.609 39.1387 212.091 39.4509L211.77 40.2443C211.272 39.9489 210.732 39.8139 210.251 39.8139C209.398 39.8139 209.052 40.143 209.052 40.565C209.052 41.7382 212.327 40.9786 212.327 43.0042C212.327 43.8904 211.609 44.6415 210.099 44.6415C209.238 44.6415 208.377 44.3715 207.921 43.9832L207.904 43.9663Z" fill="white"/>
<path d="M217.467 43.6965V44.5574H213.331V39.0376H217.357V39.8985H214.352V41.3333H217.019V42.1773H214.352V43.6965H217.467Z" fill="white"/>
<path d="M218.606 39.0376H219.628V43.688H222.514V44.5574H218.606V39.0376Z" fill="white"/>
<path d="M227.468 43.6965V44.5574H223.333V39.0376H227.358V39.8985H224.354V41.3333H227.021V42.1773H224.354V43.6965H227.468Z" fill="white"/>
<path d="M228.194 41.7973C228.194 40.1515 229.451 38.9614 231.148 38.9614C232.042 38.9614 232.819 39.2821 233.334 39.8814L232.675 40.5059C232.27 40.0755 231.781 39.8561 231.198 39.8561C230.059 39.8561 229.232 40.6579 229.232 41.7973C229.232 42.9367 230.059 43.7385 231.198 43.7385C231.772 43.7385 232.27 43.5275 232.675 43.0886L233.334 43.7216C232.819 44.3208 232.051 44.6415 231.139 44.6415C229.451 44.6415 228.194 43.4515 228.194 41.8057V41.7973Z" fill="white"/>
<path d="M235.368 39.8981H233.537V39.0288H238.221V39.8981H236.389V44.5486H235.368V39.8981Z" fill="white"/>
<path d="M243.555 42.6077V44.5574H242.534V42.6246L240.365 39.0376H241.462L243.074 41.7215L244.703 39.0376H245.716L243.555 42.6077Z" fill="white"/>
<path d="M245.749 41.7973C245.749 40.1683 247.007 38.9614 248.72 38.9614C250.433 38.9614 251.691 40.1599 251.691 41.7973C251.691 43.4346 250.433 44.6331 248.72 44.6331C247.007 44.6331 245.749 43.4262 245.749 41.7973ZM250.661 41.7973C250.661 40.6663 249.834 39.8561 248.72 39.8561C247.606 39.8561 246.779 40.6663 246.779 41.7973C246.779 42.9282 247.606 43.7385 248.72 43.7385C249.834 43.7385 250.661 42.9282 250.661 41.7973Z" fill="white"/>
<path d="M252.737 42.152V39.0376H253.759V42.1098C253.759 43.2407 254.274 43.7302 255.16 43.7302C256.046 43.7302 256.552 43.2407 256.552 42.1098V39.0376H257.565V42.152C257.565 43.7556 256.662 44.6333 255.151 44.6333C253.641 44.6333 252.729 43.7556 252.729 42.152H252.737Z" fill="white"/>
<path d="M262.612 44.5486L261.481 42.9365C261.414 42.9365 261.338 42.9365 261.27 42.9365H260.021V44.5486H259V39.0288H261.27C262.722 39.0288 263.617 39.7715 263.617 40.9953C263.617 41.8309 263.195 42.447 262.444 42.734L263.71 44.5486H262.604H262.612ZM261.228 39.8981H260.03V42.101H261.228C262.123 42.101 262.595 41.6874 262.595 40.9953C262.595 40.3033 262.131 39.8981 261.228 39.8981Z" fill="white"/>
<path d="M270.546 44.5486L269.415 42.9365C269.347 42.9365 269.271 42.9365 269.204 42.9365H267.955V44.5486H266.934V39.0288H269.204C270.656 39.0288 271.55 39.7715 271.55 40.9953C271.55 41.8309 271.128 42.447 270.377 42.734L271.643 44.5486H270.537H270.546ZM269.162 39.8981H267.963V42.101H269.162C270.056 42.101 270.529 41.6874 270.529 40.9953C270.529 40.3033 270.065 39.8981 269.162 39.8981Z" fill="white"/>
<path d="M272.698 39.0376H273.72V44.5574H272.698V39.0376Z" fill="white"/>
<path d="M275.213 39.0376H277.627C279.417 39.0376 280.64 40.1432 280.64 41.7975C280.64 43.4517 279.417 44.5574 277.627 44.5574H275.213V39.0376ZM277.577 43.688C278.809 43.688 279.602 42.9369 279.602 41.7975C279.602 40.6581 278.809 39.9069 277.577 39.9069H276.235V43.688H277.577Z" fill="white"/>
<path d="M285.865 43.6965V44.5574H281.729V39.0376H285.755V39.8985H282.75V41.3333H285.417V42.1773H282.75V43.6965H285.865Z" fill="white"/>
<path opacity="0.4" d="M308.492 127.885H184.196C181.847 127.885 179.942 129.79 179.942 132.139V216.294C179.942 218.644 181.847 220.548 184.196 220.548H308.492C310.841 220.548 312.746 218.644 312.746 216.294V132.139C312.746 129.79 310.841 127.885 308.492 127.885Z" fill="white"/>
<path opacity="0.4" d="M310.897 222.852H181.791C180.77 222.852 179.942 223.68 179.942 224.7V249.413C179.942 250.434 180.77 251.261 181.791 251.261H310.897C311.918 251.261 312.746 250.434 312.746 249.413V224.7C312.746 223.68 311.918 222.852 310.897 222.852Z" fill="white"/>
<path d="M189.573 228.642V229.697H191.244V230.237H189.573V231.562H188.931V228.11H191.455V228.65H189.573V228.642Z" fill="#263238"/>
<path d="M194.333 231.554L193.624 230.541C193.582 230.541 193.531 230.541 193.489 230.541H192.712V231.545H192.071V228.093H193.489C194.4 228.093 194.957 228.557 194.957 229.325C194.957 229.849 194.687 230.237 194.223 230.414L195.016 231.545H194.324L194.333 231.554ZM193.463 228.642H192.712V230.018H193.463C194.029 230.018 194.316 229.764 194.316 229.325C194.316 228.887 194.029 228.642 193.463 228.642Z" fill="#263238"/>
<path d="M195.43 229.824C195.43 228.802 196.215 228.051 197.287 228.051C198.359 228.051 199.144 228.802 199.144 229.824C199.144 230.845 198.359 231.596 197.287 231.596C196.215 231.596 195.43 230.845 195.43 229.824ZM198.502 229.824C198.502 229.123 197.988 228.608 197.287 228.608C196.586 228.608 196.072 229.115 196.072 229.824C196.072 230.533 196.586 231.039 197.287 231.039C197.988 231.039 198.502 230.533 198.502 229.824Z" fill="#263238"/>
<path d="M202.992 231.554V229.267L201.853 231.157H201.566L200.435 229.292V231.554H199.827V228.102H200.359L201.726 230.389L203.077 228.102H203.6V231.554H203.001H202.992Z" fill="#263238"/>
<path d="M189.632 241.859H188.484V241.319H191.413V241.859H190.265V244.771H189.623V241.859H189.632Z" fill="#263238"/>
<path d="M191.607 243.04C191.607 242.019 192.4 241.268 193.464 241.268C194.527 241.268 195.321 242.019 195.321 243.04C195.321 244.062 194.527 244.813 193.464 244.813C192.4 244.813 191.607 244.062 191.607 243.04ZM194.679 243.04C194.679 242.34 194.164 241.825 193.464 241.825C192.763 241.825 192.248 242.332 192.248 243.04C192.248 243.749 192.763 244.256 193.464 244.256C194.164 244.256 194.679 243.749 194.679 243.04Z" fill="#263238"/>
<path d="M298.558 225.511H211.787C209.255 225.511 207.195 227.57 207.195 230.102C207.195 232.634 209.255 234.693 211.787 234.693H298.558C301.099 234.693 303.15 232.634 303.15 230.102C303.15 227.57 301.09 225.511 298.558 225.511Z" fill="white"/>
<path d="M298.558 238.728H211.787C209.255 238.728 207.195 240.787 207.195 243.319C207.195 245.851 209.255 247.911 211.787 247.911H298.558C301.099 247.911 303.15 245.851 303.15 243.319C303.15 240.787 301.09 238.728 298.558 238.728Z" fill="white"/>
<path d="M312.746 158.598C295.807 163.899 278.319 169.393 261.54 174.693L276.842 203.229L312.746 204.444V212.893L271.702 211.5L253.345 177.285C245.53 179.757 237.925 182.171 230.65 184.475L247.15 220.548H237.875L222.548 187.058C205.305 192.553 190.442 197.346 179.942 200.807V191.928C183.031 190.915 186.483 189.784 190.265 188.56C198.283 185.961 207.896 182.872 219.011 179.327L204.714 148.057L179.942 155.931V147.078L201.177 140.326L195.489 127.885H204.764L227.114 176.744C235.908 173.951 245.521 170.904 255.928 167.621C261.979 165.713 268.031 163.797 273.998 161.924L258.316 127.885H267.617L282.117 159.366C293.021 155.94 303.445 152.674 312.746 149.753V158.598Z" fill="#407BFF"/>
<path opacity="0.4" d="M312.746 132.139V216.286C312.746 218.641 310.838 220.548 308.492 220.548H184.205C181.85 220.548 179.942 218.641 179.942 216.286V132.139C179.942 129.793 181.85 127.885 184.205 127.885H308.492C310.838 127.885 312.746 129.793 312.746 132.139Z" fill="white"/>
<path d="M244.213 170.718C240.989 167.494 235.756 167.494 232.532 170.718C229.308 173.942 229.308 179.175 232.532 182.399L238.373 188.24L244.213 182.399C247.437 179.175 247.437 173.942 244.213 170.718ZM241.293 179.479C239.681 181.091 237.065 181.091 235.453 179.479C233.841 177.867 233.841 175.251 235.453 173.639C237.065 172.027 239.681 172.027 241.293 173.639C242.905 175.251 242.905 177.867 241.293 179.479Z" fill="#003F73"/>
<path d="M152.394 209.694H146.242V274.049H152.394V209.694Z" fill="#263238"/>
<path opacity="0.2" d="M152.394 209.694H146.242V274.049H152.394V209.694Z" fill="black"/>
<path d="M196.443 209.694H190.29V274.049H196.443V209.694Z" fill="#263238"/>
<path opacity="0.2" d="M196.443 209.694H190.29V274.049H196.443V209.694Z" fill="black"/>
<path d="M93.6606 209.694H87.5078V274.049H93.6606V209.694Z" fill="#263238"/>
<path d="M49.6122 209.694H43.4595V274.049H49.6122V209.694Z" fill="#263238"/>
<path d="M209.052 207.314V212.074C209.052 212.843 208.436 213.467 207.668 213.467H37.6358C36.8677 213.467 36.2432 212.843 36.2432 212.074V207.314C36.2432 206.555 36.8677 205.93 37.6358 205.93H207.668C208.436 205.93 209.052 206.555 209.052 207.314Z" fill="#263238"/>
<path opacity="0.1" d="M209.052 207.314V212.074C209.052 212.843 208.436 213.467 207.668 213.467H37.6358C36.8677 213.467 36.2432 212.843 36.2432 212.074V207.314C36.2432 206.555 36.8677 205.93 37.6358 205.93H207.668C208.436 205.93 209.052 206.555 209.052 207.314Z" fill="white"/>
<path opacity="0.2" d="M84.2414 207.314V212.074C84.2414 212.843 83.6253 213.467 82.8573 213.467H37.6358C36.8677 213.467 36.2432 212.843 36.2432 212.074V207.314C36.2432 206.555 36.8677 205.93 37.6358 205.93H82.8573C83.6253 205.93 84.2414 206.555 84.2414 207.314Z" fill="white"/>
<path d="M131.505 132.983C131.505 132.983 134.662 133.616 134.654 134.198C134.645 134.781 133.421 139.338 132.864 139.887C132.299 140.444 130.948 141.119 130.948 141.119L131.759 148.487L127.446 149.601L127.387 141.752C127.387 141.752 125.876 139.448 126.965 137.178C128.053 134.916 131.514 132.983 131.514 132.983H131.505Z" fill="#EBB376"/>
<path opacity="0.2" d="M131.505 132.983C131.505 132.983 134.662 133.616 134.654 134.198C134.645 134.781 133.421 139.338 132.864 139.887C132.299 140.444 130.948 141.119 130.948 141.119L131.759 148.487L127.446 149.601L127.387 141.752C127.387 141.752 125.876 139.448 126.965 137.178C128.053 134.916 131.514 132.983 131.514 132.983H131.505Z" fill="black"/>
<path d="M120.044 133.853C122.897 135.895 123.986 147.179 125.108 148.817C126.231 150.454 126.686 145.702 126.686 145.702L132.434 145.424C132.434 145.424 133.219 152.142 129.911 156.911C126.602 161.688 120.483 158.143 117.023 150.479C113.562 142.816 120.053 133.853 120.053 133.853H120.044Z" fill="#407BFF"/>
<path opacity="0.2" d="M129.893 156.919C129.142 157.991 128.256 158.649 127.285 158.928C123.96 159.881 119.681 156.421 117.005 150.488C116.145 148.572 115.891 146.563 116.018 144.639C116.398 138.9 120.044 133.861 120.044 133.861C122.897 135.903 123.985 147.188 125.108 148.833C126.239 150.471 126.678 145.711 126.678 145.711L132.425 145.432C132.425 145.432 133.21 152.15 129.893 156.927V156.919Z" fill="white"/>
<path d="M157.551 266.909L163.248 265.348L162.227 251.464L156.547 253.034L157.551 266.909Z" fill="#EBB376"/>
<path d="M163.594 264.597L156.994 265.052C156.766 265.052 156.581 265.247 156.589 265.483L156.631 270.733C156.674 271.298 157.163 271.737 157.729 271.703C160.033 271.509 161.121 271.298 164.025 271.07C165.806 270.944 169.342 270.859 171.756 270.294C174.17 269.737 173.545 267.365 172.482 267.39C169.941 267.432 166.388 266.04 164.641 264.85C164.337 264.647 163.974 264.554 163.603 264.58L163.594 264.597Z" fill="#263238"/>
<path d="M165.747 265.449C165.215 265.474 164.683 265.441 164.16 265.348C164.109 265.348 164.059 265.305 164.05 265.255C164.042 265.204 164.05 265.145 164.092 265.111C164.27 264.968 165.865 263.719 166.599 263.947C166.768 264.006 166.903 264.141 166.945 264.318C167.063 264.58 167.013 264.883 166.827 265.094C166.523 265.348 166.135 265.474 165.738 265.457L165.747 265.449ZM166.523 264.225C166.127 264.099 165.181 264.664 164.531 265.145C165.595 265.28 166.371 265.196 166.624 264.9C166.734 264.757 166.76 264.571 166.692 264.402C166.675 264.318 166.608 264.25 166.523 264.225Z" fill="#407BFF"/>
<path d="M164.194 265.348C164.194 265.348 164.16 265.365 164.135 265.356C164.092 265.339 164.067 265.297 164.05 265.255C164.05 265.204 163.789 263.499 164.337 262.883C164.489 262.723 164.692 262.639 164.911 262.655C165.156 262.647 165.367 262.807 165.434 263.035C165.612 263.668 164.818 264.96 164.261 265.348C164.236 265.356 164.211 265.356 164.185 265.348H164.194ZM164.843 262.951C164.734 262.951 164.633 263.01 164.557 263.094C164.227 263.457 164.253 264.436 164.303 264.985C164.776 264.521 165.274 263.55 165.181 263.128C165.164 263.052 165.105 262.959 164.911 262.951H164.843Z" fill="#407BFF"/>
<path opacity="0.2" d="M156.547 253.034L162.227 251.472L162.809 259.406L157.095 260.68L156.547 253.034Z" fill="black"/>
<path d="M150.116 266.706L144.739 269.162L143.372 263.389L141.532 255.616L146.892 253.16L148.732 260.925L150.116 266.706Z" fill="#EBB376"/>
<path opacity="0.2" d="M148.732 260.925L143.372 263.389L141.532 255.616L146.892 253.16L148.732 260.925Z" fill="black"/>
<path d="M150.335 265.913L143.887 267.416C143.659 267.458 143.507 267.677 143.55 267.905L144.427 273.087C144.554 273.644 145.111 273.99 145.668 273.872C147.913 273.307 148.951 272.927 151.779 272.243C153.517 271.83 156.994 271.188 159.29 270.252C161.586 269.315 160.59 267.078 159.543 267.272C157.045 267.72 153.315 266.909 151.399 266.015C151.061 265.863 150.69 265.829 150.335 265.913Z" fill="#263238"/>
<path d="M152.597 266.411C152.074 266.521 151.55 266.571 151.019 266.563C150.968 266.563 150.917 266.538 150.892 266.487C150.875 266.436 150.884 266.377 150.909 266.335C151.061 266.166 152.428 264.672 153.205 264.782C153.382 264.807 153.534 264.926 153.601 265.094C153.753 265.331 153.762 265.635 153.61 265.879C153.348 266.175 152.994 266.369 152.597 266.411ZM153.171 265.078C152.757 265.018 151.922 265.719 151.348 266.301C152.42 266.268 153.171 266.057 153.382 265.727C153.466 265.567 153.458 265.381 153.365 265.229C153.331 265.145 153.255 265.086 153.171 265.078Z" fill="#407BFF"/>
<path d="M151.044 266.554C151.044 266.554 151.01 266.58 150.993 266.58C150.951 266.563 150.917 266.537 150.892 266.495C150.884 266.445 150.36 264.807 150.799 264.107C150.917 263.929 151.111 263.811 151.331 263.786C151.567 263.735 151.812 263.862 151.913 264.081C152.183 264.672 151.609 266.082 151.12 266.546C151.095 266.563 151.069 266.563 151.044 266.563V266.554ZM151.297 264.081C151.187 264.107 151.095 264.174 151.044 264.267C150.774 264.681 150.951 265.634 151.095 266.175C151.491 265.643 151.829 264.605 151.668 264.208C151.635 264.132 151.567 264.048 151.373 264.073H151.306L151.297 264.081Z" fill="#407BFF"/>
<path d="M110.27 187.835L108.54 168.642L76.4936 169.393C76.4936 169.393 72.6956 196.131 75.4555 201.043C80.376 209.812 112.684 204.833 120.238 205.584C123.319 207.23 139.836 261.938 139.836 261.938L149.078 258.207C149.078 258.207 139.135 212.032 136.873 203.33C133.725 191.236 120.888 191.447 110.279 187.826L110.27 187.835Z" fill="#407BFF"/>
<path opacity="0.6" d="M110.27 187.835L108.54 168.642L76.4936 169.393C76.4936 169.393 72.6956 196.131 75.4555 201.043C80.376 209.812 112.684 204.833 120.238 205.584C123.319 207.23 139.836 261.938 139.836 261.938L149.078 258.207C149.078 258.207 139.135 212.032 136.873 203.33C133.725 191.236 120.888 191.447 110.279 187.826L110.27 187.835Z" fill="white"/>
<path d="M163.375 257.271L155.222 258.022C155.222 258.022 145.22 207.103 144.452 206.892C143.06 206.496 139.008 206.04 136.831 205.474C121.698 201.541 84.4438 194.3 84.4438 194.3L98.1842 181.066C98.1842 181.066 160.48 188.544 161.864 203.162C162.531 210.192 163.383 257.271 163.383 257.271H163.375Z" fill="#407BFF"/>
<path opacity="0.6" d="M163.375 257.271L155.222 258.022C155.222 258.022 145.22 207.103 144.452 206.892C143.06 206.496 139.008 206.04 136.831 205.474C121.698 201.541 84.4438 194.3 84.4438 194.3L98.1842 181.066C98.1842 181.066 160.48 188.544 161.864 203.162C162.531 210.192 163.383 257.271 163.383 257.271H163.375Z" fill="white"/>
<path opacity="0.2" d="M142.241 206.934C140.849 206.538 139 206.048 136.823 205.483C137.422 205.803 135.675 197.87 133.928 195.819C130.459 191.734 116.541 189.522 111.553 188.721C107.375 188.054 93.3735 186.813 93.3735 186.813C93.3735 186.813 118.094 184.678 136.738 189.793C145.946 192.325 144.309 201.313 142.25 206.934H142.241Z" fill="black"/>
<path d="M109.266 172.567C111.14 161.823 114.296 147.424 120.128 133.962C117.056 132.662 113.9 131.591 110.675 130.755C105.966 129.481 101.189 128.476 96.3697 127.75C93.0359 127.396 89.6768 127.303 86.3261 127.472C86.3261 127.472 79.1014 140.967 75.4385 172.567H109.266Z" fill="#407BFF"/>
<path d="M125.336 135.506C125.26 135.802 125.446 136.08 125.749 136.123L131.193 136.882C131.497 136.924 131.809 136.722 131.885 136.418L134.603 125.843C134.679 125.547 134.502 125.193 134.198 125.151L128.754 124.391C128.45 124.349 128.129 124.627 128.054 124.923L125.336 135.498V135.506Z" fill="#263238"/>
<path opacity="0.5" d="M128.669 124.948L125.918 135.625C125.842 135.929 125.969 136.156 126.272 136.199L130.889 136.848C131.201 136.891 131.792 136.798 131.868 136.502L134.62 125.792C134.696 125.488 134.206 125.176 133.894 125.125L129.277 124.475C128.973 124.433 128.737 124.653 128.661 124.948H128.669Z" fill="white"/>
<path d="M98.8342 136.857C98.8342 136.857 90.4279 130.147 89.3645 126.18C88.301 122.214 93.2384 119.538 100.159 121.066C107.08 122.593 113.486 126.948 111.444 132.08C109.401 137.211 105.822 138.376 105.822 138.376C105.822 138.376 104.337 135.431 98.8342 136.857Z" fill="#407BFF"/>
<path d="M116.33 141.305L121.192 138.114C121.192 138.114 123.251 131.886 123.724 131.278C124.196 130.67 129.319 132.063 129.885 132.139C130.45 132.215 128.948 138.553 128.264 139.102C127.581 139.651 125.344 139.727 125.344 139.727L119.816 144.596L116.322 141.305H116.33Z" fill="#EBB376"/>
<path opacity="0.2" d="M98.8342 136.857C98.8342 136.857 90.4279 130.147 89.3645 126.18C88.301 122.214 93.2384 119.538 100.159 121.066C107.08 122.593 113.486 126.948 111.444 132.08C109.401 137.211 105.822 138.376 105.822 138.376C105.822 138.376 104.337 135.431 98.8342 136.857Z" fill="white"/>
<path d="M104.337 115.689C103.054 120.306 100.024 128.425 95.6777 129.759C95.6777 129.759 98.8765 135 103.67 135.439C106.717 135.718 108.405 132.274 108.405 132.274C105.299 131.692 106.481 129.413 108.937 126.56L104.337 115.698V115.689Z" fill="#EBB376"/>
<path opacity="0.2" d="M106.211 120.121L108.928 126.552C108.346 127.21 107.823 127.919 107.367 128.67C104.312 128.898 102.117 124.054 102.869 122.087C103.139 121.277 105.671 120.779 106.219 120.121H106.211Z" fill="black"/>
<path d="M114.895 108.321C111.984 109.528 112.541 112.71 117.368 118.5C120.348 115.943 121.96 110.111 120.398 108.237C118.837 106.363 117.436 107.283 114.895 108.321Z" fill="#263238"/>
<path d="M102.919 110.803C101.906 117.108 100.995 120.737 103.417 124.636C107.063 130.494 115.377 129.371 118.255 123.497C120.829 118.222 122.061 108.794 116.533 104.963C112.6 102.203 107.165 103.156 104.405 107.089C103.628 108.195 103.122 109.469 102.919 110.803Z" fill="#EBB376"/>
<path d="M111.823 114.593C111.714 115.099 111.891 115.572 112.22 115.639C112.549 115.715 112.904 115.369 113.022 114.863C113.132 114.356 112.963 113.892 112.634 113.808C112.305 113.723 111.975 114.103 111.823 114.593Z" fill="#263238"/>
<path d="M117.571 115.892C117.461 116.398 117.639 116.871 117.968 116.939C118.297 117.014 118.66 116.668 118.778 116.154C118.896 115.639 118.71 115.175 118.381 115.107C118.052 115.04 117.689 115.386 117.571 115.892Z" fill="#263238"/>
<path d="M115.638 115.715C115.892 117.394 116.381 119.04 117.082 120.585C115.976 121.218 114.558 120.492 114.558 120.492L115.63 115.715H115.638Z" fill="#D58745"/>
<path d="M110.659 112.432C110.591 112.432 110.524 112.398 110.481 112.347C110.372 112.221 110.389 112.027 110.515 111.917C111.249 111.259 112.254 111.005 113.208 111.233C113.368 111.276 113.461 111.436 113.419 111.588V111.605C113.368 111.765 113.199 111.849 113.039 111.807C112.279 111.638 111.494 111.849 110.92 112.373C110.844 112.423 110.76 112.449 110.667 112.423L110.659 112.432Z" fill="#263238"/>
<path d="M120.626 114.542C120.508 114.516 120.424 114.424 120.39 114.314C120.238 113.554 119.723 112.913 119.023 112.592C118.862 112.533 118.786 112.356 118.837 112.204C118.896 112.052 119.065 111.968 119.225 112.018C120.128 112.415 120.778 113.217 120.981 114.179C121.023 114.339 120.922 114.5 120.761 114.542C120.719 114.55 120.677 114.55 120.626 114.542Z" fill="#263238"/>
<path d="M106.633 105.857C109.317 107.503 108.253 110.558 102.565 115.504C100.033 112.499 99.3745 106.482 101.214 104.895C103.063 103.308 104.287 104.431 106.633 105.865V105.857Z" fill="#263238"/>
<path d="M98.8427 115.115C98.9355 116.719 99.6613 118.221 100.86 119.293C102.463 120.694 104.177 119.479 104.497 117.495C104.784 115.706 104.295 112.811 102.328 112.178C100.353 111.545 98.7329 113.149 98.8427 115.115Z" fill="#EBB376"/>
<path d="M101.687 104.54C101.687 104.54 101.121 102.076 105.561 99.7295C110 97.3832 117.183 99.3666 121.85 102.743C126.517 106.119 120.837 110.364 118.567 110.457L119.2 109.672C119.2 109.672 115.25 109.933 112.077 108.456L113.52 107.984C113.52 107.984 104.489 106.33 101.678 104.54H101.687Z" fill="#263238"/>
<path d="M113.512 121.859C113.005 122.526 112.364 123.842 112.364 123.842C112.237 123.809 112.102 123.767 111.976 123.724C110.228 123.176 109.595 122.349 109.427 121.597C109.334 121.184 109.384 120.787 109.469 120.483C109.562 120.129 109.705 119.893 109.705 119.893C110.456 120.737 112.051 121.37 112.912 121.673C113.275 121.8 113.503 121.868 113.503 121.868L113.512 121.859Z" fill="#263238"/>
<path d="M112.921 121.665L112.567 122.239C110.921 121.724 109.832 121.133 109.478 120.475C109.57 120.121 109.714 119.884 109.714 119.884C110.465 120.728 112.06 121.361 112.921 121.665Z" fill="white"/>
<path d="M111.976 123.725C110.229 123.176 109.596 122.349 109.427 121.598C110.018 121.809 110.701 122.121 111.25 122.585C111.672 122.94 111.874 123.345 111.976 123.725Z" fill="#A24E3F"/>
<path d="M108.929 155.332C108.929 155.332 108.92 155.332 108.912 155.332C108.794 155.332 108.709 155.223 108.718 155.105C109.418 144.766 105.958 138.014 105.924 137.955C105.873 137.853 105.907 137.727 106.017 137.668C106.118 137.617 106.245 137.651 106.304 137.76C106.337 137.828 109.857 144.673 109.148 155.138C109.148 155.248 109.047 155.332 108.937 155.332H108.929Z" fill="white"/>
<path d="M96.1415 151.653C96.1415 151.653 96.0655 151.644 96.0318 151.627C95.9305 151.568 95.8967 151.442 95.9558 151.34C99.7454 144.901 98.6313 136.174 98.6229 136.081C98.606 135.963 98.6904 135.861 98.8001 135.844C98.9098 135.828 99.0195 135.912 99.0364 136.022C99.0449 136.115 100.176 144.977 96.3188 151.551C96.2766 151.619 96.209 151.653 96.1331 151.653H96.1415Z" fill="white"/>
<path d="M108.768 154.978C108.768 154.978 109.443 155.012 109.325 156.109L108.337 156.008C108.337 156.008 108.228 155.088 108.768 154.978Z" fill="white"/>
<path d="M96.2092 151.053C96.2092 151.053 96.7747 151.433 96.108 152.311L95.3062 151.72C95.3062 151.72 95.6775 150.876 96.2092 151.053Z" fill="white"/>
<path d="M87.1279 127.48C90.3773 128.231 98.1674 141.702 102.328 144.183C106.489 146.664 118.001 138.68 118.001 138.68L121.943 143.584C121.943 143.584 112.617 151.804 104.455 151.998C96.2938 152.192 84.7225 140.655 83.0007 136.418C81.279 132.19 83.178 126.56 87.1279 127.472V127.48Z" fill="#407BFF"/>
<path opacity="0.2" d="M87.1279 127.48C90.3773 128.231 98.1674 141.702 102.328 144.183C106.489 146.664 118.001 138.68 118.001 138.68L121.943 143.584C121.943 143.584 112.617 151.804 104.455 151.998C96.2938 152.192 84.7225 140.655 83.0007 136.418C81.279 132.19 83.178 126.56 87.1279 127.472V127.48Z" fill="white"/>
<path d="M79.1353 162.371C79.1353 162.371 85.6763 167.266 88.0226 178.289C90.3689 189.303 99.1718 213.669 79.1353 204.048L79.6501 201.769C79.6501 201.769 86.0392 207.221 88.3771 203.55C90.7065 199.878 89.4996 180.18 80.089 169.714L79.1353 162.371Z" fill="#263238"/>
<path d="M65.6396 157.813C65.6396 157.813 68.0197 153.028 71.5223 152.918C75.0249 152.808 76.2487 153.804 76.0293 157.256L74.451 157.366C74.451 157.366 76.0462 154.48 72.2397 154.361C68.4333 154.243 67.3445 157.813 67.3445 157.813H65.6396Z" fill="#263238"/>
<path d="M46.5401 205.922C46.5401 205.922 43.4596 186.856 51.4776 181.074C51.4776 181.074 50.2031 177.074 56.6597 163.924C59.3352 158.472 61.6056 156.97 63.8675 156.877L79.4983 156.227C81.1441 156.159 82.5705 157.349 82.7899 158.987C83.8871 167.14 86.5373 190.772 82.8659 205.922H46.5486H46.5401Z" fill="#263238"/>
<path opacity="0.1" d="M46.5401 205.922C46.5401 205.922 43.4596 186.856 51.4776 181.074C51.4776 181.074 50.2031 177.074 56.6597 163.924C59.3352 158.472 61.6056 156.97 63.8675 156.877L79.4983 156.227C81.1441 156.159 82.5705 157.349 82.7899 158.987C83.8871 167.14 86.5373 190.772 82.8659 205.922H46.5486H46.5401Z" fill="white"/>
<path d="M71.6492 177.074C73.1937 177.133 74.4006 175.706 74.0462 174.204C73.3203 171.098 71.2947 166.557 65.6399 165.713C59.58 164.81 55.7398 170.288 53.959 173.731C53.326 174.964 54.1868 176.432 55.5794 176.483L71.6492 177.074Z" fill="#263238"/>
<path d="M49.0892 185.86C49.4859 184.492 69.6828 185.303 71.0163 185.86C72.3499 186.417 70.7378 200.435 69.5393 201.777C68.3409 203.111 48.6419 202.225 47.1396 201.777C45.6373 201.33 45.8567 197.102 49.0892 185.86Z" fill="#263238"/>
<path opacity="0.2" d="M71.6492 177.074C73.1937 177.133 74.4006 175.706 74.0462 174.204C73.3203 171.098 71.2947 166.557 65.6399 165.713C59.58 164.81 55.7398 170.288 53.959 173.731C53.326 174.964 54.1868 176.432 55.5794 176.483L71.6492 177.074Z" fill="white"/>
<path opacity="0.2" d="M49.0892 185.86C49.4859 184.492 69.6828 185.303 71.0163 185.86C72.3499 186.417 70.7378 200.435 69.5393 201.777C68.3409 203.111 48.6419 202.225 47.1396 201.777C45.6373 201.33 45.8567 197.102 49.0892 185.86Z" fill="white"/>
<path d="M81.4734 190.949C81.4734 190.949 81.4396 190.949 81.4143 190.949C81.1864 190.915 81.0176 190.704 81.0514 190.476C82.1317 182.349 80.4184 162.565 80.0554 161.139C79.7094 159.738 78.8232 158.987 77.439 158.894C75.7004 158.784 61.7997 158.894 61.6647 158.894C61.4368 158.894 61.2427 158.708 61.2427 158.472C61.2427 158.235 61.4284 158.05 61.6647 158.05C62.2386 158.05 75.7342 157.94 77.5066 158.05C79.2536 158.159 80.4521 159.181 80.891 160.928C81.2286 162.27 83.0432 182.028 81.9038 190.578C81.8785 190.789 81.6928 190.94 81.4818 190.94L81.4734 190.949Z" fill="#263238"/>
<path d="M68.7203 188.948C68.7203 188.948 68.6612 188.948 68.6359 188.948C63.7744 187.969 49.7725 188.501 49.6374 188.509C49.418 188.509 49.207 188.341 49.1985 188.104C49.1901 187.868 49.3673 187.674 49.6037 187.665C50.186 187.64 63.8504 187.117 68.8047 188.121C69.0325 188.163 69.1845 188.391 69.1338 188.619C69.0916 188.822 68.9144 188.957 68.7203 188.957V188.948Z" fill="#263238"/>
<path d="M72.6875 174.035C72.5102 174.035 72.3414 173.925 72.2823 173.74C71.3539 170.887 69.0414 166.178 63.9605 166.574C58.753 166.996 56.5164 172.659 56.4996 172.71C56.4152 172.93 56.1704 173.039 55.951 172.955C55.7315 172.87 55.6218 172.626 55.7062 172.406C55.8075 172.153 58.1538 166.186 63.893 165.73C69.5562 165.258 72.0882 170.389 73.0841 173.478C73.1601 173.698 73.0335 173.934 72.8141 174.01C72.7719 174.027 72.7297 174.027 72.6875 174.027V174.035Z" fill="#263238"/>
<path d="M43.9741 229.284H22.1567V244.535H43.9741V229.284Z" fill="#263238"/>
<path d="M15.1431 225.823V274.041H45.2485V225.823H15.1431ZM41.9654 240.07H32.3944V234.297C32.3944 232.955 33.4832 231.866 34.8251 231.866H39.5347C40.8766 231.866 41.9654 232.955 41.9654 234.297V240.07Z" fill="#407BFF"/>
<path opacity="0.6" d="M15.1431 225.823V274.041H45.2485V225.823H15.1431ZM41.9654 240.07H32.3944V234.297C32.3944 232.955 33.4832 231.866 34.8251 231.866H39.5347C40.8766 231.866 41.9654 232.955 41.9654 234.297V240.07Z" fill="white"/>
<path opacity="0.4" d="M28.0563 225.832H15.1431V274.049H28.0563V225.832Z" fill="white"/>
<path d="M45.9576 223.283H14.3667V227.942H45.9576V223.283Z" fill="#407BFF"/>
<path opacity="0.2" d="M28.9426 223.283H14.3667V227.942H28.9426V223.283Z" fill="white"/>
</g>
<defs>
<clipPath id="clip0_2666_12640">
<rect width="335" height="283" fill="white"/>
</clipPath>
</defs>
</svg>
