<svg width="28" height="28" viewBox="0 0 28 28" fill="none" xmlns="http://www.w3.org/2000/svg">
<path d="M9.17419 9.80429C10.1022 11.7371 11.3672 13.5486 12.9693 15.1507C14.5714 16.7528 16.383 18.0179 18.3158 18.9459C18.482 19.0257 18.5652 19.0656 18.6704 19.0963C19.0442 19.2053 19.5032 19.127 19.8198 18.9003C19.9088 18.8365 19.985 18.7603 20.1375 18.6079C20.6036 18.1417 20.8367 17.9087 21.071 17.7563C21.9549 17.1816 23.0943 17.1816 23.9782 17.7563C24.2126 17.9087 24.4456 18.1417 24.9118 18.6079L25.1716 18.8677C25.8802 19.5763 26.2345 19.9306 26.4269 20.3111C26.8097 21.0679 26.8097 21.9615 26.4269 22.7183C26.2345 23.0988 25.8802 23.4531 25.1716 24.1617L24.9614 24.3719C24.2553 25.078 23.9022 25.4311 23.4221 25.7008C22.8895 26 22.0621 26.2152 21.4512 26.2133C20.9006 26.2117 20.5243 26.1049 19.7717 25.8913C15.7272 24.7433 11.9107 22.5774 8.7267 19.3934C5.54273 16.2094 3.37676 12.3929 2.2288 8.3484C2.01519 7.5958 1.90839 7.2195 1.90675 6.66891C1.90493 6.05795 2.12008 5.23062 2.41931 4.69795C2.68897 4.21791 3.04205 3.86482 3.74822 3.15866L3.9584 2.94848C4.66699 2.23989 5.02128 1.8856 5.40179 1.69314C6.15854 1.31038 7.05223 1.31038 7.80897 1.69314C8.18948 1.8856 8.54378 2.23989 9.25237 2.94848L9.51219 3.20831C9.97833 3.67445 10.2114 3.90752 10.3638 4.14189C10.9384 5.02574 10.9384 6.16518 10.3638 7.04904C10.2114 7.28341 9.97833 7.51648 9.51219 7.98262C9.35978 8.13504 9.28357 8.21125 9.21978 8.30033C8.9931 8.6169 8.91483 9.07591 9.02379 9.44972C9.05446 9.55491 9.09437 9.63803 9.17419 9.80429Z" stroke="#20C375" stroke-width="2" stroke-linecap="round" stroke-linejoin="round"/>
</svg>
