<?xml version="1.0" encoding="UTF-8"?>
<svg id="Layer_1" data-name="Layer 1" xmlns="http://www.w3.org/2000/svg" viewBox="0 0 512 512">
  <path d="m323.45,94.97c0,6.26.06,11.78-.02,17.29-.09,6.59-3.7,10.57-9.46,10.6-5.78.03-9.46-3.94-9.56-10.49-.08-5.53-.02-11.06-.02-17.07-13.93-.08-26.83,2.74-39.43,6.82-7.9,2.55-15.56,5.89-23.19,9.22-7.4,3.22-12.52,2.22-15.22-3.54-2.56-5.46-.29-10.19,6.58-13.69,64.87-33.05,147.05-22.12,201.76,27.24,35.13,31.7,54.89,71.43,59.22,118.52,5.14,55.94-12.42,104.36-51.39,144.36-27.65,28.39-61.97,45.13-101.29,51.28-37.85,5.92-73.89.18-108.24-16.62-6.85-3.35-9.2-8.16-6.66-13.63,2.68-5.76,7.88-6.98,15.2-3.56,22.37,10.48,44.95,16.33,62.66,15.95,0-5.4-.04-10.86,0-16.32.06-7.11,3.52-11.14,9.49-11.16,5.96-.01,9.47,4.04,9.54,11.12.05,5.32,0,10.65,0,16.78,37.49-2.61,69.7-15.99,98.37-40.5-4.4-4.25-8.6-8.12-12.57-12.2-4.57-4.69-4.81-10.26-.89-14.27,3.94-4.03,9.67-3.95,14.28.53,4.13,4.01,7.96,8.32,12.28,12.87,24.76-28.48,38.08-60.75,40.67-98.46-6.12,0-11.62.05-17.12-.01-6.99-.08-11.01-3.75-10.86-9.79.15-5.74,4.09-9.15,10.81-9.23,5.34-.06,10.68-.01,17-.01-2.44-37.53-15.86-69.8-40.46-98.5-4.36,4.59-8.2,8.9-12.33,12.91-4.6,4.47-10.36,4.54-14.28.52-3.92-4.02-3.6-9.53.89-14.29,1.91-2.02,3.88-3.99,5.89-5.91,2.01-1.92,4.11-3.75,6.79-6.18-28.48-24.84-60.84-37.95-98.46-40.58Z"/>
  <path d="m313.73,294.42c-4.99-1.14-10.11-1.9-14.93-3.56-3.11-1.07-5.14-1.02-7.22,1.58-1.48,1.85-3.25,3.51-5.09,5.01-4.02,3.26-9.54,3.01-13-.4-3.46-3.41-4.39-9.83-.47-12.82,6.9-5.27,6.32-10.53,4.14-18.1-4-13.87-1.01-27.02,10.13-36.97,11.66-10.42,25.59-12.45,40.09-7.49,4.98,1.71,7.44.53,10.65-2.74,14.06-14.32,28.33-28.43,42.51-42.64,3.65-3.66,7.83-4.69,12.42-2.19,4.22,2.3,5.58,6.31,4.3,10.69-.68,2.31-2.5,4.48-4.26,6.26-13.98,14.13-28.01,28.2-42.17,42.14-2.55,2.51-3.31,4.25-1.73,7.99,11.06,26.22-6.73,52.56-35.36,53.24Zm-.12-19.93c11.57.11,19.38-7.12,19.39-17.95.01-10.6-7.59-17.88-18.77-17.99-11.62-.11-19.37,7.07-19.39,17.94-.02,10.57,7.62,17.89,18.77,18Z"/>
  <path d="m123.03,247c31.38,0,62.76.03,94.14-.04,4.64-.01,8.78,1.35,9.85,5.89.72,3.04.11,7.28-1.63,9.76-1.45,2.06-5.42,3.29-8.28,3.29-62.76.18-125.52.15-188.28.12-6.69,0-10.65-3.51-10.79-9.24-.15-6.04,3.86-9.76,10.85-9.77,31.38-.04,62.76-.02,94.14-.02Z"/>
  <path d="m158.23,189.73c23.64,0,47.28-.01,70.92,0,7.49,0,11.85,3.55,11.86,9.49,0,5.95-4.37,9.54-11.83,9.54-47.48.02-94.95.02-142.43,0-7.5,0-11.6-3.58-11.44-9.8.15-5.93,4.15-9.22,11.4-9.23,23.84-.03,47.68-.01,71.51-.01Z"/>
  <path d="m158.08,323.31c-23.64,0-47.28.01-70.92,0-7.71,0-11.77-3.27-11.85-9.39-.08-6.17,4.02-9.64,11.59-9.64,47.48-.02,94.95-.02,142.43,0,7.38,0,11.8,3.72,11.68,9.67-.12,5.93-4.46,9.35-12.01,9.36-23.64.02-47.28,0-70.92,0Z"/>
  <path d="m193.43,151.51c-16.47,0-32.95.02-49.42-.01-7.49-.02-11.58-3.58-11.42-9.8.15-5.92,4.15-9.22,11.39-9.23,33.15-.02,66.29-.03,99.44,0,7.06,0,11.12,3.55,11.13,9.49.01,5.93-4.07,9.51-11.1,9.53-16.67.04-33.34.01-50.02.01Z"/>
  <path d="m193.46,380.58c-16.47,0-32.95.02-49.42-.01-7.5-.02-11.59-3.56-11.45-9.77.14-5.93,4.14-9.25,11.36-9.25,33.15-.02,66.29-.03,99.44,0,7.08,0,11.13,3.52,11.16,9.46.03,5.93-4.06,9.54-11.07,9.56-16.67.04-33.34.01-50.02.01Z"/>
</svg>