<?xml version="1.0" encoding="UTF-8"?>
<svg id="Layer_1" data-name="Layer 1" xmlns="http://www.w3.org/2000/svg" viewBox="0 0 512 512">
  <path d="m493.8,266.52c-3.22,7.25-7.8,12.88-16.26,14.24-9.56,1.55-20.23-6.12-21.12-15.74-.52-5.59-.59-11.27-.29-16.88.53-9.74,7.06-16.71,16.3-18.01,8.79-1.24,17.19,4.25,20.41,13.32.25.7.63,1.34.95,2.01v21.05Z"/>
  <path d="m368.23,93.9c-13-8.93-26.87-15.83-41.47-21.18-22.24-8.15-45.31-12.15-68.95-11.77-42.47.69-81.19,13.19-115.33,38.72-39.13,29.26-64.1,67.92-74.87,115.54-5.12,22.63-5.61,45.55-2.42,68.58,6.16,44.39,24.97,82.49,56.94,113.84,28.49,27.94,62.63,45.35,101.83,52.95,9.8,1.9,16.09,9.25,16.27,18.2.18,8.81-5.71,17.44-14.42,18.58-5.97.78-12.42-.35-18.41-1.71-40.2-9.15-75.47-27.82-105.92-55.61-34.61-31.58-57.9-70.09-68.98-115.54-17.18-70.52-4.6-135.9,37.58-194.8,32.85-45.87,77.42-75.97,132.3-89.5,65.02-16.02,126.25-6.01,183.14,29.6,1.41.88,2.84,1.73,4.45,2.71,4.35-6.26,8.6-12.39,12.86-18.5.87-1.25,1.72-2.53,2.72-3.67,3.84-4.34,7.76-3.82,9.58,1.69,2.52,7.64,4.5,15.46,6.67,23.22,3.64,13.03,7.31,26.05,10.82,39.12,2.18,8.09-1.96,13.95-10.23,14.71-20.02,1.84-40.04,3.76-60.09,5.3-3.2.25-7.73-.2-9.52-2.22-2.86-3.23.67-6.69,2.68-9.66,4.18-6.17,8.44-12.29,12.78-18.6Z"/>
  <path d="m263.16,185.31c0,21.04.13,42.09-.11,63.13-.04,3.98,1.32,5.76,4.74,7.51,38.6,19.79,77.1,39.77,115.61,59.72,8.74,4.53,12.08,11,9.83,18.77-2.5,8.63-11.34,13.21-19.84,10.18-2.14-.76-4.16-1.86-6.18-2.91-43.54-22.49-87.05-45.03-130.63-67.45-2.76-1.42-3.97-2.91-3.97-6.18.12-48.49.06-96.98.1-145.48,0-9.87,4.63-15.97,12.78-17.28,9.46-1.51,17.6,5.29,17.64,15.02.09,21.65.03,43.31.03,64.96Z"/>
  <path d="m482.8,189.73c-.01,7.93-4.81,14.8-12.25,17.57-7.46,2.77-16.98,1.08-20.8-5.83-4.16-7.53-7.13-16.09-8.71-24.56-1.4-7.54,4.81-14.83,12.14-17.37,7.46-2.58,15.8-.33,20.71,5.59,3.43,4.14,8.91,19.29,8.9,24.6Z"/>
  <path d="m483.86,323.06c-1.25,6.8-3.38,15.1-8.2,22.21-5.03,7.42-14.83,9.43-22.84,5.58-8.25-3.97-12.56-12.4-10.26-21.14,1.46-5.57,3.36-11.08,5.65-16.35,3.54-8.13,12.4-12.15,21.24-10.19,8.44,1.87,14.36,9.36,14.41,19.88Z"/>
  <path d="m423.78,416.58c-7.69-1.03-13.29-4.27-16.75-10.66-3.35-6.2-3.43-12.75.48-18.66,3.26-4.93,7.03-9.6,11.08-13.92,6.15-6.56,16.42-7.29,23.84-2.21,7.46,5.11,10.88,15.07,6.38,22.91-3.8,6.62-9.03,12.58-14.45,18.02-2.51,2.52-6.99,3.08-10.57,4.53Z"/>
  <path d="m309.12,447.57c11.28.04,19.09,6.29,20.73,14.76,1.82,9.41-3.01,18.64-11.96,21.59-5.6,1.85-11.47,3.15-17.32,3.87-9.94,1.22-18.73-5.6-20.64-15.34-1.82-9.26,4.04-18.77,13.61-21.42,5.84-1.62,11.84-2.64,15.58-3.46Z"/>
  <path d="m369.84,462.41c-10.39.14-17.53-4.71-20.25-12.01-2.82-7.56-.84-16.07,5.67-20.99,4.95-3.74,10.32-7.06,15.87-9.84,7.04-3.53,15.89-1.28,21.25,4.65,5.53,6.12,7.01,15.27,2.3,21.95-6.57,9.31-16.41,13.93-24.82,16.24Z"/>
</svg>