<svg width="25" height="24" viewBox="0 0 25 24" fill="none" xmlns="http://www.w3.org/2000/svg">
<g opacity="0.5">
<path fill-rule="evenodd" clip-rule="evenodd" d="M19 14C17.067 14 15.5 15.4584 15.5 17.2573C15.5 19.0422 16.6171 21.125 18.36 21.8698C18.7663 22.0434 19.2337 22.0434 19.64 21.8698C21.3829 21.125 22.5 19.0422 22.5 17.2573C22.5 15.4584 20.933 14 19 14Z" fill="#20C375"/>
<path fill-rule="evenodd" clip-rule="evenodd" d="M6 2C4.067 2 2.5 3.45835 2.5 5.25732C2.5 7.04219 3.61708 9.12497 5.35997 9.86978C5.76626 10.0434 6.23374 10.0434 6.64003 9.86978C8.38292 9.12497 9.5 7.04219 9.5 5.25732C9.5 3.45835 7.933 2 6 2Z" fill="#20C375"/>
</g>
<path d="M20 17.5C20 18.0523 19.5523 18.5 19 18.5C18.4477 18.5 18 18.0523 18 17.5C18 16.9477 18.4477 16.5 19 16.5C19.5523 16.5 20 16.9477 20 17.5Z" fill="#20C375"/>
<path d="M7 5.5C7 6.05228 6.55228 6.5 6 6.5C5.44772 6.5 5 6.05228 5 5.5C5 4.94772 5.44772 4.5 6 4.5C6.55228 4.5 7 4.94772 7 5.5Z" fill="#20C375"/>
<path fill-rule="evenodd" clip-rule="evenodd" d="M11.7501 5C11.7501 4.58579 12.0859 4.25 12.5001 4.25H16.632C19.3832 4.25 20.4295 7.843 18.1084 9.32007L7.69713 15.9454C6.64207 16.6168 7.11766 18.25 8.36821 18.25H10.6894L10.4698 18.0303C10.1769 17.7374 10.1769 17.2626 10.4698 16.9697C10.7627 16.6768 11.2375 16.6768 11.5304 16.9697L13.0304 18.4697C13.3233 18.7626 13.3233 19.2374 13.0304 19.5303L11.5304 21.0303C11.2375 21.3232 10.7627 21.3232 10.4698 21.0303C10.1769 20.7374 10.1769 20.2626 10.4698 19.9697L10.6894 19.75H8.36821C5.61697 19.75 4.57071 16.157 6.89181 14.6799L17.3031 8.05458C18.3581 7.38318 17.8825 5.75 16.632 5.75H12.5001C12.0859 5.75 11.7501 5.41421 11.7501 5Z" fill="#20C375"/>
</svg>
