<svg width="26" height="26" viewBox="0 0 26 26" fill="none" xmlns="http://www.w3.org/2000/svg">
<path d="M4.61645 20.9228C5.84422 20.0388 7.14711 19.3401 8.52511 18.8269C9.90215 18.3127 11.3938 18.0556 13 18.0556C14.6062 18.0556 16.0979 18.3127 17.4749 18.8269C18.8519 19.3411 20.1548 20.0393 21.3836 20.9213C22.3369 19.9343 23.1039 18.7691 23.6846 17.4258C24.2652 16.0805 24.5556 14.6053 24.5556 13C24.5556 9.79815 23.4303 7.07152 21.1799 4.82011C18.9294 2.5687 16.2028 1.44348 13 1.44444C9.79719 1.44541 7.07056 2.57111 4.82011 4.82156C2.56967 7.072 1.44445 9.79815 1.44445 13C1.44445 14.6053 1.73478 16.0805 2.31545 17.4258C2.89611 18.7701 3.66311 19.9353 4.61645 20.9213M13.0014 13.7222C11.7843 13.7222 10.7573 13.3043 9.92045 12.4684C9.08363 11.6326 8.6657 10.6066 8.66667 9.39033C8.66763 8.17411 9.08556 7.14711 9.92045 6.30933C10.7553 5.47156 11.7819 5.05363 13 5.05556C14.2181 5.05748 15.2447 5.47541 16.0796 6.30933C16.9144 7.14326 17.3324 8.16978 17.3333 9.38889C17.3343 10.608 16.9164 11.6345 16.0796 12.4684C15.2427 13.3024 14.2167 13.7203 13.0014 13.7222ZM13 26C11.1867 26 9.48952 25.6625 7.90834 24.9874C6.32715 24.3124 4.95108 23.3899 3.78011 22.2199C2.60915 21.0499 1.68663 19.6738 1.01256 18.0917C0.338483 16.5095 0.000965018 14.8123 2.05469e-06 13C-0.000960908 11.1877 0.336558 9.49048 1.01256 7.90833C1.68856 6.32619 2.61108 4.95011 3.78011 3.78011C4.95108 2.61011 6.32715 1.68759 7.90834 1.01256C9.48952 0.337518 11.1867 0 13 0C14.8133 0 16.5105 0.337518 18.0917 1.01256C19.6729 1.68759 21.0489 2.61011 22.2199 3.78011C23.3909 4.95011 24.3134 6.32619 24.9874 7.90833C25.6615 9.49048 25.999 11.1877 26 13C26.001 14.8123 25.6634 16.5095 24.9874 18.0917C24.3114 19.6738 23.3889 21.0499 22.2199 22.2199C21.0489 23.3899 19.6729 24.3124 18.0917 24.9874C16.5105 25.6625 14.8133 26 13 26ZM13 24.5556C14.3318 24.5556 15.6419 24.3225 16.9303 23.8564C18.2188 23.3913 19.3324 22.7539 20.2713 21.944C19.3334 21.19 18.2477 20.5944 17.0141 20.1572C15.7806 19.72 14.4425 19.501 13 19.5C11.5575 19.499 10.2146 19.7133 8.97145 20.1428C7.72826 20.5723 6.64685 21.1727 5.72722 21.944C6.66611 22.7529 7.78026 23.3904 9.06967 23.8564C10.3591 24.3225 11.6692 24.5556 13 24.5556ZM13 12.2778C13.8108 12.2778 14.495 11.999 15.0526 11.4414C15.6101 10.8839 15.8889 10.1997 15.8889 9.38889C15.8889 8.57807 15.6101 7.89389 15.0526 7.33633C14.495 6.77878 13.8108 6.5 13 6.5C12.1892 6.5 11.505 6.77878 10.9474 7.33633C10.3899 7.89389 10.1111 8.57807 10.1111 9.38889C10.1111 10.1997 10.3899 10.8839 10.9474 11.4414C11.505 11.999 12.1892 12.2778 13 12.2778Z" fill="black"/>
</svg>
