<svg width="26" height="28" viewBox="0 0 26 28" fill="none" xmlns="http://www.w3.org/2000/svg">
<path d="M3 11.5C3 6.78625 3 4.42875 4.465 2.965C5.93 1.50125 8.28625 1.5 13 1.5H14.875C19.5887 1.5 21.9462 1.5 23.41 2.965C24.8737 4.43 24.875 6.78625 24.875 11.5V16.5C24.875 21.2138 24.875 23.5713 23.41 25.035C21.945 26.4988 19.5887 26.5 14.875 26.5H13C8.28625 26.5 5.92875 26.5 4.465 25.035C3.00125 23.57 3 21.2138 3 16.5V11.5Z" stroke="black" stroke-width="1.5" stroke-linecap="round" stroke-linejoin="round"/>
<path d="M10.25 13.9675C9.71625 13.0375 9.45875 12.2787 9.30375 11.5087C9.07375 10.3712 9.6 9.25875 10.47 8.54875C10.8387 8.24875 11.26 8.35125 11.4775 8.7425L11.9688 9.62375C12.3575 10.3212 12.5525 10.6713 12.5138 11.0413C12.4763 11.4113 12.2138 11.7125 11.6888 12.3162L10.25 13.9675ZM10.25 13.9675C11.3751 15.8955 12.9795 17.4999 14.9075 18.625M14.9075 18.625C15.8375 19.1587 16.5963 19.4163 17.3663 19.5713C18.5038 19.8013 19.6163 19.275 20.3263 18.405C20.6263 18.0363 20.5237 17.615 20.1325 17.3975L19.2525 16.9062C18.5525 16.5175 18.2037 16.3225 17.8337 16.3612C17.4637 16.3987 17.1625 16.6612 16.5588 17.1862L14.9075 18.625ZM4.25 6.5H1.125M4.25 14H1.125M4.25 21.5H1.125" stroke="black" stroke-width="1.5" stroke-linecap="round" stroke-linejoin="round"/>
</svg>
