<?xml version="1.0" encoding="UTF-8"?>
<svg id="Layer_1" data-name="Layer 1" xmlns="http://www.w3.org/2000/svg" viewBox="0 0 512 512">
  <path d="m329.31,501.8c-6.85-1.26-13.79-2.16-20.53-3.85-58.64-14.66-97.69-50.73-117.15-107.92-1-2.95-1.98-4.27-5.37-4.51-28.55-2.03-55.38-9.88-80.4-23.93-1.86-1.04-4.88-.9-7.08-.3-27.95,7.59-55.86,15.37-83.77,23.09-.74.2-1.51.31-3.07.63,1.53-5.78,2.88-11.08,4.34-16.35,6.55-23.62,13.21-47.21,19.58-70.88.61-2.27.25-5.41-.89-7.46C-21.34,189.34,25.61,62.58,134.29,22.46c104.34-38.52,220.93,23.94,246.38,132.19,2.43,10.35,3.47,21.05,4.81,31.63.37,2.91,1.13,4.24,4.09,5.24,60.5,20.51,96.96,62.33,110.03,124.72.91,4.32,1.47,8.71,2.19,13.07v27.79c-.28.72-.74,1.43-.81,2.18-2.1,22.2-8.96,42.87-19.71,62.36-.91,1.65-.83,4.28-.32,6.22,3.82,14.29,7.88,28.5,11.83,42.76,2.74,9.89,5.42,19.8,8.29,30.31-1.6-.32-2.49-.43-3.35-.67-22.99-6.36-45.99-12.68-68.95-19.14-3.24-.91-5.79-.47-8.96.87-12.69,5.38-25.47,10.68-38.55,15.02-7.74,2.57-16.11,3.27-24.19,4.82h-27.79ZM53.23,343.78c16.81-4.64,32.92-8.93,48.92-13.61,4.05-1.19,7.04-.69,10.61,1.55,39,24.5,81.12,31.78,125.64,20.04,81.67-21.54,131.15-100.66,115.73-183.69-15.81-85.17-101.52-142.55-186.78-125.05-73.07,15-125.86,78.06-127.34,152.62-.64,32.43,8.11,62.39,25.86,89.6,1.83,2.81,2.16,5.22,1.25,8.42-4.68,16.38-9.12,32.82-13.89,50.13Zm167.46,41.78c.42,1.32.83,2.85,1.4,4.32,28.47,74.62,119.14,106.1,187.35,64.63,7.42-4.51,13.56-5.68,21.58-2.83,9.17,3.25,18.77,5.28,28.66,7.96-3.39-12.39-6.43-24.08-9.86-35.67-1.01-3.41-.61-5.96,1.34-8.86,13.85-20.65,21.38-43.53,21.72-68.31.6-42.86-16.01-78.11-49.21-105.31-11.41-9.35-24.2-16.37-38.11-20.85-17.57,92.36-72.25,147.1-164.87,164.92Z"/>
  <path d="m169.8,154.61h-28.97c.97-20.43,9.18-36.65,26.14-47.67,18.63-12.1,38.45-13.21,58.13-2.91,19.88,10.41,30.2,27.64,30.92,49.93.53,16.36-5.56,30.64-17.38,42.12-7.44,7.23-15.36,13.97-22.81,21.18-1.49,1.44-2.5,3.99-2.62,6.1-.35,6.02-.12,12.07-.12,18.41h-29.17c0-7.71.63-15.54-.17-23.23-.87-8.34,1.97-13.97,8.38-19.17,8.91-7.23,17.1-15.36,25.5-23.2,8.76-8.18,11.53-18.32,8.12-29.66-3.37-11.2-11.35-17.74-22.9-19.89-15.21-2.82-30.92,8.86-32.69,24.36-.12,1.09-.22,2.18-.37,3.62Z"/>
  <path d="m212.75,299.33h-28.5v-28.21h28.5v28.21Z"/>
</svg>