<svg width="24" height="24" viewBox="0 0 24 24" fill="none" xmlns="http://www.w3.org/2000/svg">
<path d="M10.5 9.00224C10.6762 8.50136 11.024 8.079 11.4817 7.80998C11.9395 7.54095 12.4777 7.4426 13.001 7.53237C13.5243 7.62213 13.999 7.89421 14.3409 8.30041C14.6829 8.70661 14.87 9.22072 14.8692 9.75168C14.8692 11.2506 12.6209 12 12.6209 12M12.6499 15H12.6599M12.5 20C17.1944 20 21 16.1944 21 11.5C21 6.80558 17.1944 3 12.5 3C7.80557 3 3.99999 6.80558 3.99999 11.5C3.99999 12.45 4.15584 13.3636 4.44336 14.2166C4.55156 14.5376 4.60566 14.6981 4.61542 14.8214C4.62506 14.9432 4.61777 15.0286 4.58764 15.1469C4.55714 15.2668 4.48979 15.3915 4.35508 15.6408L2.71943 18.6684C2.48612 19.1002 2.36946 19.3161 2.39557 19.4828C2.41831 19.6279 2.50374 19.7557 2.62917 19.8322C2.77317 19.9201 3.01729 19.8948 3.50553 19.8444L8.62655 19.315C8.78164 19.299 8.85918 19.291 8.92985 19.2937C8.99936 19.2963 9.04844 19.3029 9.11622 19.3185C9.18514 19.3344 9.27181 19.3678 9.44515 19.4345C10.3932 19.7998 11.4232 20 12.5 20Z" stroke="#19191A" stroke-width="2" stroke-linecap="round" stroke-linejoin="round"/>
</svg>
