<svg width="24" height="25" viewBox="0 0 24 25" fill="none" xmlns="http://www.w3.org/2000/svg">
<path d="M2.67449 2.67449H10.698C11.4334 2.67449 12.0352 2.07273 12.0352 1.33724C12.0352 0.60176 11.4334 0 10.698 0H2.67449C1.20352 0 0 1.20352 0 2.67449V21.3959C0 22.8669 1.20352 24.0704 2.67449 24.0704H10.698C11.4334 24.0704 12.0352 23.4686 12.0352 22.7331C12.0352 21.9977 11.4334 21.3959 10.698 21.3959H2.67449V2.67449Z" fill="black"/>
<path d="M23.6023 11.5673L19.8714 7.83644C19.7784 7.7409 19.659 7.67528 19.5285 7.64798C19.398 7.62068 19.2623 7.63295 19.1388 7.68321C19.0153 7.73347 18.9096 7.81944 18.8352 7.93012C18.7609 8.04079 18.7212 8.17114 18.7214 8.30448V10.6981H9.36068C8.6252 10.6981 8.02344 11.2999 8.02344 12.0354C8.02344 12.7709 8.6252 13.3726 9.36068 13.3726H18.7214V15.7663C18.7214 16.3681 19.4435 16.6623 19.858 16.2343L23.589 12.5034C23.8564 12.2493 23.8564 11.8214 23.6023 11.5673Z" fill="black"/>
</svg>
