<svg width="25" height="28" viewBox="0 0 25 28" fill="none" xmlns="http://www.w3.org/2000/svg">
<path d="M16.6791 22V23C16.6791 24.0609 16.2388 25.0783 15.4553 25.8284C14.6717 26.5786 13.6089 27 12.5008 27C11.3926 27 10.3299 26.5786 9.54629 25.8284C8.76271 25.0783 8.32251 24.0609 8.32251 23V22M23.709 19.9644C22.0325 18 20.8488 17 20.8488 11.5844C20.8488 6.625 18.2035 4.85812 16.0262 4C15.737 3.88625 15.4647 3.625 15.3766 3.34062C14.9947 2.09625 13.924 1 12.5008 1C11.0776 1 10.0062 2.09688 9.62822 3.34188C9.54008 3.62938 9.26784 3.88625 8.97863 4C6.79874 4.85938 4.15598 6.62 4.15598 11.5844C4.15272 17 2.96909 18 1.29256 19.9644C0.597919 20.7781 1.20638 22 2.42134 22H22.5867C23.7952 22 24.3997 20.7744 23.709 19.9644Z" stroke="black" stroke-width="1.6" stroke-linecap="round" stroke-linejoin="round"/>
</svg>
