<?xml version="1.0" encoding="UTF-8"?>
<svg id="Layer_1" data-name="Layer 1" xmlns="http://www.w3.org/2000/svg" viewBox="0 0 512 512">
  <path d="m346.26,115.58c-42.07,0-84.14.04-126.2-.07-3.45,0-4.91.88-5.96,4.41-8.85,29.7-36.24,50-66.65,49.75-30.77-.26-57.63-20.45-66.36-50.19-.93-3.18-2.23-3.99-5.29-3.95-12.29.15-24.59.09-36.89.05-9.54-.03-16.38-6.42-16.46-15.3-.08-9.25,6.65-15.7,16.5-15.72,12.46-.03,24.92-.07,37.38.04,2.71.03,3.82-.77,4.64-3.52,9.05-30.3,35.59-50.39,66.52-50.62,30.82-.22,57.76,20.02,66.9,50.7,1.2,4.03,3.57,3.38,6.19,3.38,83.49.01,166.98-.03,250.46.13,3.67,0,7.79,1.04,10.9,2.91,5.85,3.52,7.92,10.75,5.93,17.03-2.18,6.86-7.83,10.96-15.39,10.97-42.07.03-84.14.01-126.2.01Zm-160.5-15.83c.11-20.87-16.8-37.76-37.9-37.83-21.13-.07-38.21,16.66-38.26,37.46-.05,20.21,17.46,37.31,38.14,37.24,20.55-.06,37.91-16.91,38.02-36.88Z"/>
  <path d="m380.89,426.37c-30.58,0-61.16.04-91.74-.06-3.33-.01-4.96.62-6.04,4.29-8.75,29.68-36.06,49.98-66.58,49.85-30.52-.13-57.48-20.18-66.23-49.64-1.13-3.81-2.81-4.53-6.38-4.52-35.27.13-70.55.1-105.82.06-7.95-.01-14.65-5.8-15.58-13.18-.99-7.87,3.49-15.04,11.01-17.21,1.97-.57,4.14-.6,6.22-.6,34.63-.03,69.25-.08,103.88.06,3.73.01,5.56-.73,6.74-4.7,8.76-29.41,35.95-49.52,66.35-49.46,30.51.06,57.53,20.1,66.3,49.55,1.11,3.71,2.64,4.62,6.3,4.61,61-.12,122-.1,183-.07,12.1,0,19.9,11.7,14.71,22.14-2.98,6.01-8,8.94-14.89,8.92-30.42-.08-60.84-.04-91.26-.04Zm-126.14-15.03c.28-21.34-16.39-38.47-37.63-38.66-21.42-.19-38.42,16.38-38.63,37.66-.21,21.42,16.38,38.46,37.63,38.65,21.42.19,38.35-16.31,38.63-37.64Z"/>
  <path d="m289.08,239.93c8.34-33.04,36.2-54.03,67.9-53.99,32.48.04,59.63,21.58,67.82,53.99,15.72,0,31.56-.24,47.38.18,3.73.1,7.93,1.7,10.99,3.91,5.28,3.81,6.62,10.6,4.45,16.6-2.26,6.25-7.7,10.29-14.37,10.33-16.01.08-32.02.02-48.12.02-10.73,33.84-33.15,54.05-69.03,53.67-34.97-.38-56.86-20.4-67.28-53.66-1.86,0-3.79,0-5.72,0-81.38,0-162.76,0-244.14,0-7.8,0-13.34-3.75-15.71-10.51-2.21-6.29-.38-13.58,5.32-17.21,3.07-1.95,7.17-3.16,10.81-3.18,37.53-.22,75.07-.14,112.61-.14,43.85,0,87.69,0,131.54,0h5.57Zm67.54,53.66c21.27.08,38.39-16.71,38.64-37.88.25-21-16.97-38.36-38.1-38.42-21.32-.05-38.49,16.78-38.61,37.88-.13,21.13,16.93,38.34,38.07,38.42Z"/>
</svg>