<svg width="20" height="26" viewBox="0 0 20 26" fill="none" xmlns="http://www.w3.org/2000/svg">
<path d="M17.1111 10.6666V7.33767C17.1492 5.65136 16.4225 4.02048 15.0898 2.80189C13.7571 1.58331 11.927 0.876256 9.99995 0.835449C8.07292 0.876256 6.24283 1.58331 4.91013 2.80189C3.57744 4.02048 2.85066 5.65136 2.88883 7.33767V10.6666H0.222168V23.8888C0.222168 24.3013 0.409469 24.697 0.742867 24.9887C1.07626 25.2804 1.52845 25.4443 1.99995 25.4443H17.9999C18.4714 25.4443 18.9236 25.2804 19.257 24.9887C19.5904 24.697 19.7777 24.3013 19.7777 23.8888V10.6666H17.1111ZM4.66661 7.33767C4.62829 6.06386 5.16773 4.82855 6.16707 3.90166C7.16641 2.97478 8.54439 2.43167 9.99995 2.391C11.4555 2.43167 12.8335 2.97478 13.8328 3.90166C14.8322 4.82855 15.3716 6.06386 15.3333 7.33767V10.6666H4.66661V7.33767ZM1.99995 23.8888V12.2221H17.9999V23.8888H1.99995Z" fill="black"/>
</svg>
