<?xml version="1.0" encoding="UTF-8"?>
<svg id="Layer_1" data-name="Layer 1" xmlns="http://www.w3.org/2000/svg" viewBox="0 0 512 435.2">
  <path d="m40.04,185.53c5.37.1,10.75.02,16.13,0,.49,0,.98-.17,1.38-.25v-14.4H23.95c1.52,9.72,6.73,14.47,16.09,14.65Z" style="fill: none;"/>
  <path d="m109.22,367.91c-7.13.09-14.26.01-21.39,0-5.45,0-10.89,0-16.7,0,0,6.38-.28,12.33.1,18.25.26,4.02,2.75,6.37,6.88,6.7,5.6.44,11.25.4,16.87.4,3.51,0,7.05-.09,10.53-.53,4.13-.53,6.05-2.77,6.16-6.87.14-5.17-.01-10.35.15-15.51.06-2.07-.73-2.46-2.61-2.43Z" style="fill: none;"/>
  <g>
    <path d="m139.62,273.39c-3.84-.05-7.68-.21-11.52-.23-9.81-.03-19.62-.01-29.67-.01.32,1.63.53,2.79.78,3.94,1.6,7.29,4.37,10.61,11.51,10.92,13.38.57,26.78.34,40.18.33.48,0,1.37-1.11,1.38-1.72.16-7.33-5.47-13.13-12.67-13.23Z" style="fill: none;"/>
    <path d="m271.75,355.47v.02c-64.06,0-128.13,0-192.19,0-6.9,0-8.36-1.34-8.41-8.58-.09-12.84.04-25.69,0-38.53-.05-13.49-.18-26.98-.34-40.46-.13-11.27,1.96-21.98,7-32.06,2.5-5,4.9-10.07,6.98-15.26,1.09-2.72,2.34-3.37,5.04-2.56,12.82,3.82,25.93,6.2,39.18,7.69,17.89,2.01,35.83,2.93,53.83,2.87,30.08-.11,60.16-.12,90.24-.2-.02-6.9-.04-13.81-.06-20.71-36.24-.23-72.48-.35-108.71-.9-21.82-.33-43.6-1.84-64.86-7.65-5.46-1.49-5.48-1.44-3.78-6.89,7.37-23.51,14.74-47.02,22.13-70.52,3.75-11.91,9.36-22.57,19.48-30.08,7.78-5.76,16.54-8.88,26.05-8.94,36.42-.22,72.84-.35,109.26-.42l.05-21.97h-55.13c4.01-8.65,7.83-17.07,11.88-25.37.42-.86,2.19-1.45,3.33-1.45,13.34.02,26.68.11,40.01.2.09-7.2.18-14.39.27-21.59-15.3,0-30.6-.03-45.89-.09-7-.03-11.58,2.91-14.43,9.59-5.05,11.81-10.58,23.4-15.68,35.19-1.42,3.28-3.3,4.41-6.74,4.39-9.83-.08-19.73-.5-29.47.53-28.81,3.05-49.4,18.33-59.54,46.57-7.63,21.25-13.84,43.05-20.68,64.6-.32,1.01-.66,2.02-.99,3.02-.59-4.06-.71-7.94-1.1-11.78-.98-9.83-7.79-16.46-17.3-16.56-13.51-.15-27.02-.18-40.53,0-10.19.14-17.22,7.34-17.94,17.88-1.41,20.39,15.88,40.24,35.74,40.8,8.85.25,17.71.08,26.57.12,1.09,0,2.18.19,3.63.33-.59,1.36-.99,2.27-1.37,3.18-3.7,8.79-7.62,17.49-11.03,26.4-2.59,6.76-5.05,13.69-5.11,21.11-.28,31.04-.54,62.09-.63,93.13-.04,14.87.15,29.75.51,44.61.34,14.07,9.07,25.27,22.4,28.01,11.92,2.44,24.06,2,36.03.05,12.21-1.99,20.16-9.48,22.69-21.95,1.36-6.7,1.11-13.75,1.59-20.64.07-.97.09-1.94.13-2.85h138.94c-.03-.2-.06-.41-.07-.62-.08-1.32-.03-2.65.06-3.97-.37-1.06-.45-2.21-.14-3.28.08-.24.14-.49.19-.74,0-.06,0-.09.01-.17,0-.51.02-1.01.01-1.52-.01-1.17-.06-2.33.02-3.5,0-.14.04-.27.06-.4-.09-2.69-.15-5.36-.11-8.07h-1.06ZM57.38,184.41c-.4.08-.9.26-1.4.26-5.46.02-10.92.11-16.37,0-9.49-.19-14.79-5.18-16.33-15.41h34.1v15.15Zm54.96,211c-.11,4.31-2.07,6.67-6.26,7.23-3.53.47-7.12.56-10.69.56-5.71,0-11.44.04-17.13-.42-4.19-.34-6.73-2.82-6.99-7.04-.38-6.22-.1-12.49-.1-19.2,5.89,0,11.42,0,16.95,0,7.24,0,14.47.08,21.71,0,1.9-.02,2.71.38,2.65,2.56-.16,5.44-.01,10.88-.15,16.32Z"/>
    <path d="m146.83,253.16c-3.01-.79-6.18-1.21-9.28-1.23-15.91-.14-31.83-.16-47.74-.09-7.74.03-11.58,3.86-11.91,11.76-.16,3.86-.18,7.76.1,11.61,1.37,18.82,14.8,32.96,33.04,34.19,8.81.59,17.69.1,26.53.1,0,.13,0,.27,0,.4,7.15,0,14.31.03,21.46-.02,1.87-.01,3.76-.15,5.6-.47,5.16-.88,8.14-3.45,8.4-8.83.31-6.58.49-13.39-.78-19.78-2.87-14.36-11.36-23.96-25.4-27.64Zm4.08,35.18c-13.4,0-26.8.24-40.18-.33-7.14-.3-9.91-3.63-11.51-10.92-.25-1.15-.46-2.31-.78-3.94,10.05,0,19.86-.02,29.67.01,3.84.01,7.68.17,11.52.23,7.2.1,12.82,5.9,12.67,13.23-.01.61-.9,1.72-1.38,1.72Z"/>
    <path d="m198.4,321.15c-6.21,0-11.01,3.08-12.93,8.91-.48,1.45-.3,3.67.54,4.89,2.69,3.89,6.26,6.56,11.5,6.54,25.18-.06,50.35-.03,75.53-.03.06-3.29.09-6.66.07-10.13-.01-3.48-.07-6.87-.16-10.17-24.86,0-49.71,0-74.57,0Z"/>
    <g>
      <path d="m501.55,195.32c-5.59-11.45-15.33-17.62-28.82-18.17-9.81-.4-16.04-4.63-19.52-12.91-2.12-5.04-4.46-10.01-6.74-14.99-3.54-7.71-2.39-14.62,3.79-20.89,12.9-13.09,12.48-30-1-42.65-6.44-6.04-12.93-12.02-19.47-17.96-13.7-12.44-32.05-12.83-46.2-.93-6.78,5.7-14.27,6.77-22.64,3.5-5.66-2.21-11.35-4.36-17.04-6.52-8.39-3.19-12.85-8.79-13.12-17.32-.45-14.03-9.96-24.9-24.63-28.49-.67-.16-1.28-.52-1.92-.78h-20.79c0,1.96.02,3.93.02,5.9,0,1.71,0,3.41,0,5.11,5.89-.32,10.66.29,13.89.91,7.06,1.34,13.61,2.55,17.23,7.87,1.72,2.52,2.75,5.61,2.95,9.17.88,15.58,9.4,25.23,25.12,30.11,4.46,1.39,8.69,3.42,13.05,5.08,13.29,5.07,25.46,3.6,36.33-5.37,9.64-7.96,19.74-7.71,28.9.7,6.41,5.89,12.82,11.77,19.18,17.7,8.42,7.87,8.65,17.56.55,25.81-10.16,10.35-11.82,21.85-5.82,34.52,2.41,5.08,4.53,10.27,6.89,15.37,5.32,11.5,14.64,17.99,28.26,18.92,14.66,1,21.13,7.34,21.13,20.82,0,7.81.04,15.63-.01,23.44-.07,10.89-6.98,18.18-18.79,18.77-16.51.83-26.82,8.51-32.12,22.67-1.54,4.11-3.57,8.07-5.45,12.06-5.89,12.53-4.21,23.94,5.78,34.19,8.26,8.47,8.05,18.06-.58,26.1-6.56,6.12-13.15,12.22-19.8,18.25-8.21,7.45-18.89,7.77-27.32.63-11.58-9.8-24.37-11.31-38.52-5.44-5.22,2.17-10.6,3.99-15.87,6.04-12.48,4.87-20.01,13.44-20.48,26.02-.54,14.27-11.26,20.29-23,19.7-3.77-.19-7.54-.21-11.32-.19-.23,4.01-.45,8.01-.68,12.02,5.07,0,10.15,0,15.22-.02,18.04-.05,32.02-12.39,32.57-29.03.29-8.91,4.97-14.58,13.72-17.79,5.45-2,10.88-4.05,16.27-6.2,8.53-3.41,16.09-2.29,23,3.55,13.76,11.62,32.23,11.32,45.61-.69,6.79-6.09,13.48-12.29,20.1-18.54,13.26-12.52,13.62-29.5.86-42.39-6.19-6.25-7.42-13.15-3.88-20.89,2.29-4.99,4.64-9.95,6.75-15,3.46-8.29,9.68-12.56,19.5-12.95,13.32-.53,23.01-6.59,28.69-17.81,1.08-2.13,1.77-4.42,2.64-6.63v-38.15c-.82-2.09-1.49-4.24-2.48-6.27Z" style="stroke: #000; stroke-miterlimit: 10; stroke-width: 10px;"/>
      <path d="m380.27,220.65c-.02-49-43.53-89.17-96.61-89.22-.09,3.51-.18,7.03-.27,10.54.07,0,.14,0,.21,0,47.25.03,85.21,35.04,85.26,78.64.05,43.7-38.13,78.86-85.51,78.76-.29,0-.58-.02-.86-.02.09,3.52.18,7.03.27,10.55.27,0,.54,0,.82,0,53.11,0,96.72-40.25,96.7-89.24Z" style="stroke: #000; stroke-miterlimit: 10; stroke-width: 10px;"/>
      <path d="m397.18,222.82c-.5,28.86-12.96,55.24-38.18,76.06-3.71,3.07-13.35,10.81-27.8,17.15-19.66,8.62-37.32,9.95-48.01,9.9.03,3.45.07,6.9.1,10.34,7.67.09,18.67-.53,31.21-4.08,52.28-14.8,135.54-89.51,72.54-175.99-1.92-2.64-4-5.19-6.15-7.68-2.26-2.61-5.62-3.13-8.13-1.44-2.67,1.8-2.94,4.88-.68,7.83.28.37.61.72.91,1.08,15.89,19,23.91,40.5,24.19,66.84Z" style="stroke: #000; stroke-miterlimit: 10; stroke-width: 10px;"/>
      <path d="m327.91,124.25c8.84,3.52,16.85,8.83,25.13,13.49,3.86,2.17,7.35,1.83,9.1-1.35,1.48-2.7.66-4.93-3.06-7.46-23.45-15.98-48.76-23.91-75.74-23.58,0,.01,0,.02,0,.03.01,3.46.02,6.92.03,10.37,14.8-.02,29.91,2.68,44.54,8.51Z" style="stroke: #000; stroke-miterlimit: 10; stroke-width: 10px;"/>
    </g>
  </g>
</svg>