<?xml version="1.0" encoding="UTF-8"?>
<svg id="Layer_1" data-name="Layer 1" xmlns="http://www.w3.org/2000/svg" viewBox="0 0 512 512">
  <path d="m391.76,297.98c0-2.25-.05-4.5,0-6.74.26-9.21,6.02-14.97,15.25-15.05,10.05-.09,20.11-.1,30.17.03,10,.13,15.98,6.49,15.72,16.43-.38,14.17-12.18,27.21-26.49,28.55-7.69.72-15.48.41-23.23.56-1,.02-2,0-3.37,0,.3.9.48,1.61.78,2.27,2.02,4.34,3.93,8.75,6.15,12.99,5.49,10.44,7.76,21.53,7.7,33.28-.14,31.28-.05,62.56-.13,93.84,0,2.76-.37,5.58-1,8.28-2.23,9.6-8.19,15.62-18,17.3-9.47,1.62-19.08,1.64-28.52.14-10.91-1.74-18.32-10.72-18.97-22.17-.24-4.33-.04-8.68-.04-13.17H125.03c-.03.71-.05,1.46-.1,2.21-.38,5.34-.18,10.8-1.27,15.99-2.03,9.66-8.41,15.47-18.21,17-9.61,1.51-19.35,1.85-28.92-.04-10.7-2.12-17.71-10.8-17.98-21.69-.29-11.52-.45-23.04-.41-34.56.07-24.05.28-48.09.51-72.14.05-5.74,2.03-11.11,4.1-16.35,2.74-6.9,5.88-13.64,8.85-20.45.31-.71.63-1.41,1.1-2.46-1.16-.11-2.04-.25-2.92-.26-7.11-.04-14.22.1-21.33-.1-15.94-.44-29.82-15.81-28.69-31.61.58-8.16,6.22-13.74,14.4-13.85,10.84-.14,21.69-.12,32.54,0,7.64.08,13.1,5.22,13.89,12.83.31,2.98.41,5.98.88,9.13.27-.78.54-1.56.79-2.34,5.49-16.7,10.48-33.58,16.6-50.04,8.14-21.88,24.66-33.71,47.79-36.08,7.82-.8,15.77-.47,23.66-.41,2.76.02,4.27-.86,5.41-3.4,4.1-9.13,8.53-18.11,12.59-27.26,2.29-5.17,5.97-7.45,11.59-7.43,24.13.09,48.27.1,72.4.01,5.78-.02,9.61,2.35,11.98,7.62,4.1,9.13,8.49,18.13,12.62,27.24,1.07,2.35,2.49,3.25,5.1,3.23,7.32-.05,14.66-.11,21.96.37,13.14.86,25.22,4.77,35.12,13.85,7.41,6.78,12.32,15.17,15.47,24.65,5.52,16.61,11.06,33.21,16.59,49.81.2,0,.41,0,.61-.01Zm-144.89,24.86c0-.26,0-.51,0-.77,15.08,0,30.16.21,45.23-.06,14.71-.27,29.42-1.01,44.13-1.6,13.61-.54,27.29-.57,40.53-4.54,2.72-.82,2.77-.67,1.89-3.38-6.27-19.3-12.42-38.63-18.9-57.86-1.49-4.42-3.63-8.77-6.25-12.62-6.83-10.04-16.65-15.7-28.78-15.98-21.89-.5-43.8-.45-65.7-.44-36.77.03-73.53.16-110.3.37-7.64.04-14.67,2.46-20.91,6.92-8.13,5.81-12.63,14.07-15.64,23.3-5.94,18.2-11.85,36.41-17.77,54.62-1.37,4.22-1.35,4.18,3.03,5.33,17.06,4.5,34.55,5.67,52.06,5.93,32.45.48,64.92.53,97.37.76Zm-11.13,114.43v-.02c51.28,0,102.56,0,153.83,0,7.09,0,8.16-1.02,8.16-8.01,0-21.9.06-43.8-.12-65.7-.03-3.5-.64-7.2-1.89-10.46-2.62-6.87-5.84-13.51-8.8-20.24-1.3-2.95-1.3-2.97-4.41-2.04-12.91,3.89-26.12,6.3-39.56,6.71-22.53.68-45.08,1.01-67.63,1.16-36.98.24-73.97.17-110.95.31-14.45.05-28.85-.66-43.21-2.22-10.63-1.15-21.16-2.99-31.45-5.95-2.17-.62-3.17-.12-4.05,1.99-1.67,4.02-3.6,7.95-5.6,11.82-4.05,7.81-5.72,16.11-5.62,24.83.12,10.45.23,20.9.27,31.34.04,9.95-.07,19.9,0,29.85.04,5.61,1.21,6.64,6.75,6.64,51.42,0,102.84,0,154.27,0Zm-43.53-228.64h88.14c-3.16-6.55-6.2-12.76-9.15-19.02-.54-1.14-1.17-1.52-2.42-1.51-7.39.04-14.79,0-22.18-.03-14.06-.08-28.13-.2-42.19-.22-.92,0-2.33.46-2.67,1.13-3.25,6.43-6.32,12.95-9.53,19.65Zm188.78,245.04v-.06c-4.95,0-9.9-.04-14.85.05-.64.01-1.82.66-1.83,1.02-.04,4.78-.08,9.58.23,14.35.19,2.77,1.99,4.57,4.9,4.82,2.57.22,5.15.39,7.72.37,5.09-.04,10.19-.04,15.26-.43,3.32-.25,4.88-2.11,5-5.38.16-4.35.03-8.72.14-13.08.03-1.36-.42-1.7-1.72-1.68-4.95.06-9.9.03-14.86.03Zm-306.23-.1c0,5.2-.23,10.05.08,14.87.21,3.27,2.24,5.19,5.61,5.46,4.56.36,9.16.33,13.75.33,2.86,0,5.75-.07,8.58-.44,3.36-.43,4.93-2.26,5.02-5.6.11-4.21,0-8.43.12-12.64.05-1.69-.6-2-2.12-1.98-5.81.07-11.62.01-17.43,0-4.44,0-8.88,0-13.61,0Zm361.23-160.5h-27.32v11.84c5.8,0,11.57.53,17.19-.15,5.72-.68,9.74-5.89,10.13-11.69Zm-399.68-.06c1.24,7.92,5.49,11.79,13.11,11.93,4.38.08,8.76.02,13.14,0,.4,0,.8-.14,1.12-.2v-11.73h-27.37Z"/>
  <path d="m400.08,20.29c38.83-.17,75.42,21.89,87.58,59.98,6.56,20.54,4.37,40.36-5.3,59.48-12.17,24.05-24.23,48.16-36.58,72.11-6.88,13.34-14.23,26.44-21.42,39.61-2.15,3.95-4.91,7.41-8.96,9.62-9.4,5.12-19.8,2.52-25.77-6.59-2.47-3.77-4.64-7.73-6.85-11.65-10.69-19.01-21.6-37.91-31.95-57.11-9.75-18.07-18.5-36.66-25.25-56.06-8.86-25.44-6.11-49.87,9.56-71.89,13.67-19.2,32.23-31.95,55.84-36.49,3.44-.66,6.98-.8,9.11-1.03Zm74.48,82.36c.44-7.73-1.16-15.4-4.14-22.77-11.48-28.31-41.23-47.8-75.97-42.27-15.11,2.41-27.92,9.27-38.45,20.32-12.52,13.14-19.15,28.7-18.91,46.9.1,7.69,1.47,15.29,4.47,22.39,4.56,10.79,9.26,21.54,14.34,32.1,13.99,29.1,30.33,56.93,46.36,84.93.39.68.83,1.35,1.33,1.95,1.33,1.57,3.06,1.73,4.46.22,1.06-1.14,1.92-2.5,2.69-3.86,7.8-13.83,15.59-27.68,23.33-41.54,13.04-23.37,25.43-47.07,35.02-72.1,3.2-8.36,6.2-16.81,5.48-26.28Z"/>
  <path d="m363.31,356.96c6.25,0,12.49,0,18.74,0,6.7,0,9.8,2.36,10.44,8.73,1.15,11.6-1.37,21.91-10.69,29.77-5.46,4.6-11.99,6.32-18.97,6.39-12.2.11-24.41.08-36.61.08-.86,0-1.72-.14-2.57-.27-5.36-.77-8.21-3.49-7.99-8.84.24-5.75.54-11.69,2.17-17.15,3.25-10.86,11.34-17.01,22.47-18.16,7.59-.79,15.33-.15,23.01-.15,0-.14,0-.27,0-.41Zm-30.5,28.24c.25.07.39.14.52.14,5.46.02,10.91.06,16.37.04,5.03-.02,10.06.06,15.07-.19,6.95-.35,11.01-4.85,10.55-11.46-11.39,0-22.8-.22-34.2.1-5.35.15-9.3,6.02-8.32,11.37Z"/>
  <path d="m128.02,401.65c-7.1,0-14.23.38-21.3-.08-14.63-.95-25.42-11.91-26.52-26.49-.22-2.98-.21-6-.08-8.99.27-6.12,3.35-9.08,9.56-9.11,12.77-.05,25.55-.04,38.32.07,2.49.02,5.04.34,7.45.96,11.27,2.86,18.08,10.29,20.39,21.41,1.03,4.95.88,10.23.63,15.32-.2,4.16-2.6,6.16-6.74,6.84-1.48.24-3,.35-4.5.36-5.74.04-11.48.02-17.22.02,0-.1,0-.21,0-.31Zm-31.41-28.16c.26,1.26.43,2.16.63,3.05,1.29,5.65,3.51,8.22,9.24,8.46,10.74.44,21.5.26,32.25.26.39,0,1.1-.86,1.11-1.33.12-5.68-4.39-10.17-10.17-10.25-3.08-.04-6.16-.17-9.25-.18-7.87-.03-15.75,0-23.82,0Z"/>
  <path d="m236.92,424.19c-20.25,0-40.51-.03-60.76.02-4.21.01-7.08-2.17-9.23-5.35-.68-1-.82-2.81-.44-4,1.54-4.76,5.39-7.28,10.38-7.28,39.5,0,79.01-.01,118.51.05,2.24,0,4.61.33,6.7,1.1,3.52,1.29,5.32,4.94,4.69,8.51-.64,3.65-3.43,6.32-7.16,6.66-2.14.2-4.3.23-6.46.23-18.75.02-37.49,0-56.24,0v.04Z"/>
  <path d="m406.09,47.47c33.41.47,57.95,27.6,58.16,57.43.22,32.29-25.72,58.84-58.82,58.58-31.58-.24-57.76-25.61-57.49-58.28.27-32.8,26.62-57.45,58.15-57.73Zm-.23,99.68c22.99.31,42.14-18.3,42.12-41.46-.02-22.87-18.21-41.43-40.95-41.9-23.32-.48-42.59,17.92-42.9,40.72-.33,23.76,17.83,42.32,41.74,42.65Z"/>
</svg>