<?xml version="1.0" encoding="UTF-8"?>
<svg id="Layer_1" data-name="Layer 1" xmlns="http://www.w3.org/2000/svg" viewBox="0 0 512 512">
  <defs>
    <style>
      .cls-1 {
        stroke: #231f20;
        stroke-miterlimit: 10;
        stroke-width: 2px;
      }
    </style>
  </defs>
  <path class="cls-1" d="m500.24,278.85c-.96,2.65-1.73,5.4-2.93,7.95-6.29,13.45-17.03,20.7-31.79,21.34-10.88.47-17.77,5.59-21.61,15.52-2.34,6.05-4.94,12-7.48,17.98-3.93,9.27-2.56,17.54,4.29,25.03,14.13,15.44,13.74,35.79-.96,50.79-7.34,7.49-14.75,14.91-22.27,22.21-14.83,14.4-35.29,14.75-50.53.83-7.65-6.99-16.03-8.34-25.48-4.25-5.96,2.58-11.98,5.03-18.02,7.43-9.7,3.85-14.88,10.64-15.2,21.31-.61,19.94-16.1,34.72-36.08,34.78-10.97.03-21.94.05-32.91,0-19.37-.09-34.74-14.93-35.63-34.32-.54-11.85-4.95-17.75-16.09-22.04-5.77-2.22-11.43-4.72-17.1-7.17-9.44-4.07-17.83-2.73-25.48,4.28-15.25,13.97-35.65,13.6-50.51-.85-7.52-7.31-14.92-14.73-22.26-22.22-14.71-15-15.11-35.3-.97-50.77,6.85-7.49,8.21-15.76,4.3-25.03-2.64-6.27-5.24-12.56-7.83-18.86-3.82-9.28-10.52-14.26-20.78-14.56-16.87-.49-29.9-10.99-34.25-27.23-.2-.74-.62-1.42-.94-2.13,0-15.24,0-30.47,0-45.71.32-.71.74-1.39.94-2.13,4.36-16.25,17.39-26.75,34.21-27.23,10.48-.3,17.16-5.5,20.98-14.96,2.42-6.01,4.82-12.04,7.43-17.97,4.23-9.6,2.83-18.05-4.32-25.82-13.63-14.8-13.44-35.19.48-49.7,7.69-8.01,15.56-15.87,23.58-23.55,14.5-13.88,34.96-14.05,49.78-.45,7.95,7.29,16.55,8.54,26.29,4.1,5.62-2.56,11.37-4.84,17.13-7.05,9.95-3.82,15.06-10.73,15.49-21.58.55-13.91,7.19-24.39,19.69-30.84,3.05-1.58,6.43-2.53,9.66-3.77,15.27,0,30.53,0,45.8,0,.71.32,1.39.74,2.13.94,16.25,4.31,26.79,17.33,27.29,34.14.3,10.21,5.24,16.93,14.54,20.75,6.3,2.59,12.6,5.16,18.87,7.81,9.27,3.92,17.57,2.63,25.08-4.19,15.68-14.26,36.01-13.79,51.19,1.12,7.24,7.12,14.44,14.29,21.57,21.52,14.93,15.15,15.4,35.41,1.11,51.1-6.84,7.51-8.12,15.79-4.2,25.03,2.53,5.97,5.12,11.92,7.47,17.96,3.85,9.91,10.76,14.98,21.63,15.46,14.94.66,25.74,8.05,31.93,21.78,1.09,2.42,1.84,5,2.75,7.51v45.71Zm-424.69,112.55c-.07,6.14,2.26,11.16,6.5,15.39,7.2,7.17,14.38,14.37,21.59,21.54,10.36,10.3,21.41,10.6,32.38.87,11.77-10.44,24.95-12.32,39.39-6.51,5,2.01,9.84,4.45,14.93,6.18,17.54,5.96,27.12,17.56,28.05,36.47.61,12.44,9.56,20.06,22.11,20.17,9.38.08,18.78-.4,28.13.12,13.01.71,24.88-6.5,25.48-23.6.53-15.08,8.87-25.34,22.69-31.18,5.84-2.47,11.8-4.65,17.58-7.24,15.68-7.04,29.84-5.23,42.67,6.51,9.34,8.55,21.17,8.17,30.27-.76,7.37-7.23,14.66-14.54,21.93-21.87,9.56-9.64,9.8-21.12.64-31.28-11.07-12.28-12.93-25.95-6.41-40.97,2.08-4.79,4.34-9.53,6.04-14.46,5.87-16.96,17.3-26.17,35.59-27.16,13.09-.71,20.73-9.45,20.81-22.5.06-9.36.01-18.73.01-28.09,0-16.15-7.17-23.75-23.41-24.95-15.09-1.11-25.42-8.89-31.31-22.67-2.61-6.11-4.97-12.33-7.63-18.42-6.65-15.19-4.8-28.96,6.45-41.37,8.97-9.89,8.73-21.51-.61-30.93-7.04-7.11-14.15-14.16-21.25-21.21-10.15-10.08-21.34-10.38-32.02-.84-12.04,10.75-25.52,12.52-40.25,6.44-4.83-2-9.51-4.43-14.46-6.09-17.42-5.86-26.85-17.41-27.83-36.08-.67-12.74-9.52-20.34-22.36-20.42-9.22-.06-18.47.42-27.66-.11-13.36-.78-25.17,6.49-25.77,23.81-.5,14.67-8.62,24.8-22,30.66-6.24,2.73-12.64,5.09-18.88,7.82-15.4,6.73-29.3,4.77-41.84-6.63-9.64-8.76-21.32-8.4-30.61.76-7.24,7.14-14.42,14.34-21.59,21.54-9.82,9.87-10.07,21.16-.69,31.62,10.91,12.16,12.69,25.74,6.37,40.59-2.04,4.81-4.4,9.51-6.08,14.44-5.87,17.2-17.42,26.43-35.9,27.43-13.03.7-20.52,9.49-20.57,22.7-.04,9.2,0,18.41,0,27.61,0,16.47,7.08,23.95,23.64,25.21,14.89,1.13,25.12,8.83,30.96,22.43,2.44,5.67,4.53,11.5,7.12,17.09,7.45,16.11,5.75,30.73-6.62,43.82-3.75,3.97-5.67,8.72-5.6,14.14Z"/>
  <path class="cls-1" d="m256.01,380.44c-68.46,0-124.7-56.11-124.7-124.44,0-68.35,56.19-124.43,124.68-124.44,68.5,0,124.68,56.04,124.7,124.43.02,68.32-56.21,124.45-124.68,124.46Zm.03-234.19c-60.88-.04-109.9,48.8-110.01,109.59-.11,60.74,48.83,109.78,109.69,109.91,61.09.14,110.31-48.9,110.25-109.83-.06-60.8-49-109.63-109.93-109.67Z"/>
  <path class="cls-1" d="m402.49,259.01c-.36-36.73-10.7-66.72-31.19-93.22-.39-.5-.81-.98-1.17-1.5-2.91-4.11-2.56-8.41.88-10.92,3.23-2.36,7.57-1.64,10.48,2.01,2.77,3.47,5.45,7.03,7.93,10.71,62.08,92.18,14.37,218.07-93.52,245.44-51.05,12.95-97.81,2.27-139.72-29.53-4.56-3.46-5.62-7.86-2.9-11.37,2.8-3.62,7.08-3.7,11.73-.04,22.66,17.84,48.41,28.44,77.07,30.93,42.09,3.66,79.6-8.21,111.2-36.43,32.52-29.04,48.58-65.82,49.23-106.07Z"/>
  <path class="cls-1" d="m109.02,256.01c.64,32.49,10.34,61.74,29.8,87.73,4.53,6.05,4.87,10.32,1.02,13.27-4.04,3.09-7.85,1.83-12.49-4.44-23.99-32.38-34.61-68.58-31.78-108.85,4.68-66.58,52.39-126.21,120.32-143.23,49.93-12.51,95.96-3.03,137.47,27.56,4.79,3.53,5.85,6.64,3.94,10.41-2.25,4.44-6.76,4.91-11.73,1.89-10.68-6.49-21-13.91-32.4-18.81-86.35-37.19-185.47,16.83-201.37,109.47-1.42,8.25-1.88,16.66-2.79,25Z"/>
  <path class="cls-1" d="m262.54,200.27c0,15.49-.04,29.26.09,43.03,0,.88,1.14,2.11,2.05,2.53,2.29,1.07,4.75,1.76,7.13,2.61,15.77,5.63,26.18,16.1,26.67,33.32.48,17.02-8.05,29.61-23.02,37.6-3.86,2.06-8.26,3.14-12.95,4.86,0,1.49.11,3.37-.02,5.23-.33,4.78-3.17,7.61-7.44,7.55-4.16-.06-7.23-2.64-6.94-7.34.33-5.31-2.42-5.84-6.46-6.1-9.12-.57-17.14-4.37-24.69-9.19-3.79-2.42-4.58-6.45-2.4-9.91,2.11-3.35,5.97-4.12,10.02-2.3,5.17,2.33,10.36,4.64,15.68,6.59,2.12.78,4.6.57,7.25.84.15-1.88.36-3.25.36-4.63.02-15.22-.09-30.45.1-45.67.04-3.23-1.02-4.87-3.95-6.04-3.37-1.34-6.57-3.15-9.8-4.82-11.55-5.97-17.74-15.46-16.85-28.44,1-14.72,8.64-25.18,22.61-30.65,2.34-.92,4.83-1.48,7.55-2.3.82-5.16-.45-12.18,8.21-12.03,4.65.08,6.31,2.84,7.08,10.94,5.37,1.82,10.79,3.44,16.03,5.53,2.6,1.04,5.03,2.73,7.25,4.49,3.63,2.89,4.13,6.7,1.68,10.03-2.42,3.27-6.12,3.68-10.13,1.56-4.61-2.45-9.4-4.57-15.1-7.32Zm.32,60.83v47.19c11.46-1.69,20.83-12.7,21.05-24.37.23-11.95-7.24-20.07-21.05-22.82Zm-15.25-58.51c-9.16,1.84-15.28,9.07-15.69,17.87-.44,9.14,4.4,14.74,15.69,17.99v-35.86Z"/>
</svg>