<?xml version="1.0" encoding="UTF-8"?>
<svg id="Layer_1" data-name="Layer 1" xmlns="http://www.w3.org/2000/svg" viewBox="0 0 512 512">
  <path d="m14.6,273.15c0-11.32,0-22.65,0-33.97.72-5.58,1.36-11.17,2.17-16.74,5.83-39.85,20.13-76.35,44.18-108.71C99.24,62.21,149.97,30.23,213.18,18.43c8.6-1.61,17.33-2.57,26-3.83,11.32,0,22.65,0,33.97,0,7.75,1.04,15.55,1.84,23.25,3.17,37.08,6.42,71.43,19.89,101.41,42.72,75.9,57.79,108.41,134.67,97.54,229.27-4.58,39.85-19.41,76.41-43.78,108.36-57.73,75.69-134.52,108.07-228.92,97.24-40.18-4.61-76.73-20.01-109.2-44.21-51.34-38.27-83.24-88.9-95.01-151.98-1.61-8.61-2.57-17.35-3.82-26.03ZM256.22,42.9c-117.26-.07-213.37,96.04-213.31,213.31.07,117.18,95.55,212.78,212.95,213.22,117.07.43,213.31-95.6,213.57-213.09.25-117.19-95.82-213.36-213.21-213.44Z"/>
  <path d="m156.96,270.08h-84.74c-2.49-66.57,20.55-122.04,74.56-161.33,62.47-45.43,130.14-49.77,198.27-13.38,64.75,34.59,99.51,102.88,94.81,174.59h-84.76c2.35-36.59-8.44-67.97-37.64-91.41-19.13-15.35-41.31-22.39-65.76-21.31-52.74,2.32-100.3,47.71-94.74,112.83Zm225.88-28.39h28.27c-3.29-32-14.91-60.13-34.67-84.09-6.78,6.77-13.28,13.27-19.97,19.95,14.45,18.52,23.41,39.93,26.38,64.14Zm-47.49-85.41c6.76-6.77,13.19-13.2,19.95-19.96-24.62-20.21-52.73-31.96-84.65-35.04v28.21c24.23,2.95,45.63,11.91,64.71,26.8Zm-207.21,85.56c3.56-11.99,6-23.58,10.48-34.31,4.55-10.88,11.12-20.91,16.5-30.75-6.09-6.12-12.56-12.61-19.2-19.28-19.84,24.35-31.56,52.37-34.66,84.34h26.89Zm48.97-85.62c18.93-14.83,40.48-23.82,64.67-26.77v-28.23c-32.03,3.22-60.11,14.92-84.57,34.96,6.65,6.7,13.04,13.13,19.9,20.04Z"/>
  <path d="m242.41,185.62h27.89c0,7.22,0,14.25,0,21.27,0,11.16.12,22.32-.08,33.48-.05,2.98.93,4.3,3.61,5.53,17.35,8,27.5,26.74,24.46,44.67-3.29,19.39-18.09,33.86-37.02,36.19-20.46,2.52-39.91-10.37-45.87-30.39-5.87-19.73,3.27-40.84,21.98-49.86,3.68-1.77,4.81-3.68,4.75-7.7-.25-17.28-.08-34.57-.06-51.86,0-.29.14-.59.33-1.32Zm27.89,98.73c-.09-7.5-6.8-14.11-14.26-14.02-7.5.09-14.11,6.81-14.02,14.26.09,7.48,6.83,14.11,14.26,14.03,7.49-.09,14.11-6.82,14.02-14.26Z"/>
  <path d="m213.92,383.28h-28.14v-27.73h28.01c0,9.19,0,18.53,0,27.89,0,0,.13-.15.13-.15Z"/>
  <path d="m270.37,383.46c-9.47,0-18.94,0-28.41,0l.14.14v-28.01h28.13v28.02l.14-.14Z"/>
  <path d="m298.89,383.76v-28.14h27.73v28.01c-9.19,0-18.53,0-27.89,0,0,0,.15.13.15.13Z"/>
  <path d="m241.96,383.45v28.07h-28.05c0-9.48,0-18.85,0-28.23,0,0-.14.15-.13.15,9.44.05,18.88.11,28.31.16,0,0-.14-.14-.14-.14Z"/>
  <path d="m270.23,383.6c9.55.05,19.1.1,28.66.15,0,0-.15-.14-.15-.13,0,9.21,0,18.41,0,27.91h-28.38c0-9.41,0-18.74,0-28.08,0,0-.14.14-.14.14Z"/>
</svg>