<svg width="30" height="22" viewBox="0 0 30 22" fill="none" xmlns="http://www.w3.org/2000/svg">
<path d="M6.9325 3.847L5.7481 7.4002H11.4001V2.0002H9.4957C8.92864 1.99987 8.37587 2.17809 7.9158 2.50958C7.45572 2.84107 7.11169 3.30899 6.9325 3.847ZM5.1505 9.2002L5.1433 9.2182L4.6645 9.337L4.4449 9.391C3.86057 9.53716 3.34189 9.87452 2.97137 10.3494C2.60085 10.8243 2.39976 11.4095 2.4001 12.0118V15.0502C2.4001 15.3382 2.4901 15.6082 2.6467 15.8278C2.96996 14.896 3.59026 14.0962 4.41226 13.5512C5.23427 13.0062 6.2125 12.7463 7.19661 12.8113C8.18072 12.8763 9.11624 13.2627 9.8594 13.9111C10.6026 14.5595 11.1122 15.434 11.3101 16.4002H18.6901C18.8867 15.433 19.3958 14.5572 20.1391 13.9078C20.8823 13.2584 21.8184 12.8714 22.8033 12.8063C23.7881 12.7412 24.767 13.0018 25.5892 13.5477C26.4114 14.0937 27.0314 14.8949 27.3535 15.8278C27.5139 15.6002 27.6001 15.3286 27.6001 15.0502V12.8668C27.6003 12.2716 27.4038 11.6929 27.0412 11.2209C26.6785 10.7489 26.1701 10.41 25.5949 10.2568L21.6349 9.2002H5.1505ZM20.1715 7.4002L17.9413 3.3898C17.7078 2.96906 17.366 2.61838 16.9514 2.37407C16.5368 2.12975 16.0645 2.00067 15.5833 2.0002H13.2001V7.4002H20.1715ZM29.4001 15.0502C29.4002 15.6541 29.2266 16.2453 28.9001 16.7534C28.5737 17.2614 28.108 17.6649 27.5587 17.9158C27.4146 18.9689 26.9023 19.937 26.1126 20.6486C25.3229 21.3601 24.3069 21.7692 23.2445 21.8032C22.1821 21.8373 21.1419 21.4942 20.3083 20.8347C19.4747 20.1752 18.9014 19.2419 18.6901 18.2002H11.3101C11.0988 19.2419 10.5255 20.1752 9.69188 20.8347C8.85826 21.4942 7.8181 21.8373 6.75569 21.8032C5.69329 21.7692 4.67725 21.3601 3.88759 20.6486C3.09793 19.937 2.58565 18.9689 2.4415 17.9158C1.89217 17.6649 1.42653 17.2614 1.10006 16.7534C0.77359 16.2453 0.600044 15.6541 0.600098 15.0502V12.0118C0.60006 11.0551 0.904895 10.1234 1.47036 9.35174C2.03582 8.5801 2.83248 8.00874 3.7447 7.7206L5.2261 3.2764C5.52493 2.38045 6.09808 1.60124 6.86437 1.04914C7.63066 0.497035 8.55123 0.200031 9.4957 0.200195H15.5815C16.3842 0.20002 17.1724 0.414564 17.8642 0.821583C18.5561 1.2286 19.1265 1.81328 19.5163 2.515L22.2919 7.51359L26.0593 8.518C27.0175 8.77345 27.8645 9.33829 28.4687 10.1247C29.0728 10.9111 29.4002 11.8751 29.4001 12.8668V15.0502ZM6.9001 14.6002C6.18401 14.6002 5.49726 14.8847 4.99091 15.391C4.48456 15.8974 4.2001 16.5841 4.2001 17.3002C4.2001 18.0163 4.48456 18.703 4.99091 19.2094C5.49726 19.7157 6.18401 20.0002 6.9001 20.0002C7.61618 20.0002 8.30294 19.7157 8.80929 19.2094C9.31563 18.703 9.6001 18.0163 9.6001 17.3002C9.6001 16.5841 9.31563 15.8974 8.80929 15.391C8.30294 14.8847 7.61618 14.6002 6.9001 14.6002ZM23.1001 14.6002C22.384 14.6002 21.6973 14.8847 21.1909 15.391C20.6846 15.8974 20.4001 16.5841 20.4001 17.3002C20.4001 18.0163 20.6846 18.703 21.1909 19.2094C21.6973 19.7157 22.384 20.0002 23.1001 20.0002C23.8162 20.0002 24.5029 19.7157 25.0093 19.2094C25.5156 18.703 25.8001 18.0163 25.8001 17.3002C25.8001 16.5841 25.5156 15.8974 25.0093 15.391C24.5029 14.8847 23.8162 14.6002 23.1001 14.6002Z" fill="black"/>
</svg>
