<svg width="25" height="24" viewBox="0 0 25 24" fill="none" xmlns="http://www.w3.org/2000/svg">
<path d="M22.25 7.99996C22.25 8.40996 21.91 8.74996 21.5 8.74996H3.5C3.09 8.74996 2.75 8.40996 2.75 7.99996C2.75 7.58996 3.09 7.24996 3.5 7.24996H4.52L4.9 5.43996C5.26 3.68996 6.01 2.07996 8.99 2.07996H16.01C18.99 2.07996 19.74 3.68996 20.1 5.43996L20.48 7.24996H21.5C21.91 7.24996 22.25 7.58996 22.25 7.99996Z" fill="#2E2E2E"/>
<path d="M22.6801 13.66C22.5301 12.01 22.0901 10.25 18.8801 10.25H6.12009C2.91009 10.25 2.48009 12.01 2.32009 13.66L1.76009 19.75C1.69009 20.51 1.94009 21.27 2.46009 21.84C2.99009 22.42 3.74009 22.75 4.54009 22.75H6.42009C8.04009 22.75 8.35009 21.82 8.55009 21.21L8.75009 20.61C8.98009 19.92 9.04009 19.75 9.94009 19.75H15.0601C15.9601 19.75 15.9901 19.85 16.2501 20.61L16.4501 21.21C16.6501 21.82 16.9601 22.75 18.5801 22.75H20.4601C21.2501 22.75 22.0101 22.42 22.5401 21.84C23.0601 21.27 23.3101 20.51 23.2401 19.75L22.6801 13.66ZM9.50009 15.75H6.50009C6.09009 15.75 5.75009 15.41 5.75009 15C5.75009 14.59 6.09009 14.25 6.50009 14.25H9.50009C9.91009 14.25 10.2501 14.59 10.2501 15C10.2501 15.41 9.91009 15.75 9.50009 15.75ZM18.5001 15.75H15.5001C15.0901 15.75 14.7501 15.41 14.7501 15C14.7501 14.59 15.0901 14.25 15.5001 14.25H18.5001C18.9101 14.25 19.2501 14.59 19.2501 15C19.2501 15.41 18.9101 15.75 18.5001 15.75Z" fill="#2E2E2E"/>
</svg>
